<svg width="60" height="34" viewBox="0 0 60 34" fill="none" xmlns="http://www.w3.org/2000/svg">
<g clip-path="url(#clip0_1_4481)">
<path d="M45.5824 4.84342H39.6851L35.6818 10.7998V0.378515H31.1414V19.2042H35.6818V12.528L40.3439 19.2042H46.2278L39.7548 11.6813L45.5824 4.84342Z" fill="#B9B9B9"/>
<path d="M20.6828 10.3938C20.802 9.18964 21.5782 7.48611 23.4908 7.48611C25.5813 7.48611 26.0592 9.30629 26.0592 10.3938H20.6828ZM23.76 4.51982C18.6806 4.51982 16.3808 8.5438 16.3808 12.1844C16.3808 16.6776 19.2195 19.4965 24.1775 19.4965C26.1481 19.4965 27.9712 19.2044 29.4645 18.6161L28.8672 15.5922C27.6418 15.9729 26.3867 16.1789 24.8346 16.1789C22.7136 16.1789 20.8616 15.2982 20.7131 13.4477H30.1217C30.1813 13.125 30.2714 12.4488 30.2714 11.6855C30.2714 8.13176 28.4784 4.51982 23.76 4.51982Z" fill="#B9B9B9"/>
<path d="M8.12559 16.3261C6.3145 16.3261 5.28341 14.7156 5.15299 12.4958V11.5399C5.26716 9.58151 6.10658 7.69154 8.12559 7.69154C10.1872 7.69154 11.0229 9.86473 11.0229 12.0077C11.0229 14.5924 9.88789 16.3261 8.12559 16.3261ZM8.24486 4.51981C7.11445 4.51981 6.07872 4.69606 5.15299 5.02367V0.378521H0.449448V12.5113C0.629708 16.915 3.85664 19.5266 8.007 19.5266C11.9196 19.5266 15.7129 17.1182 15.7129 11.8615C15.7129 7.54509 12.7262 4.51981 8.24486 4.51981Z" fill="#B9B9B9"/>
<path d="M51.9173 16.3261C49.9752 16.3261 48.9304 14.4762 48.9304 12.0077C48.9304 9.89391 49.7361 7.69154 51.9173 7.69154C53.9778 7.69154 54.8142 9.86472 54.8142 12.0077C54.8142 14.5924 53.6788 16.3261 51.9173 16.3261ZM52.0366 4.51981C47.347 4.51981 44.2408 7.48611 44.2408 12.1261C44.2408 16.7658 47.5252 19.5266 51.7976 19.5266C55.7101 19.5266 59.5043 17.1182 59.5043 11.8615C59.5043 7.54509 56.5168 4.51981 52.0366 4.51981Z" fill="#B9B9B9"/>
<path d="M0.449234 28.9537V33.4609L57.8351 25.532V21.0252L0.449234 28.9537Z" fill="#B9B9B9"/>
</g>
<defs>
<clipPath id="clip0_1_4481">
<rect width="60" height="34" fill="white"/>
</clipPath>
</defs>
</svg>
