<svg width="900" height="684" viewBox="0 0 900 684" fill="none" xmlns="http://www.w3.org/2000/svg">
<path d="M86.4131 162.333C100.423 92.041 110.836 -8.07534e-06 86.4131 0H818.047C790.922 20.5574 793 93.5 809 134.5C825 175.5 851 273.5 851 273.5C851 273.5 912.277 420.5 896.5 516.5C896.5 530.5 892.866 536.077 891 542.5C886.982 556.333 883.667 561.778 878.5 573C821.547 696.711 188.414 741.344 40.0585 573.289C-64.375 454.989 72.4033 232.626 86.4131 162.333Z" fill="#222194"/>
<path d="M891 542.5C886.982 556.333 883.667 561.778 878.5 573C821.547 696.711 188.414 741.344 40.0585 573.289C-64.375 454.989 72.4033 232.626 86.4131 162.333C100.423 92.041 110.836 -8.07534e-06 86.4131 0C61.9899 8.07534e-06 818.047 0 818.047 0C790.922 20.5574 793 93.5 809 134.5C825 175.5 851 273.5 851 273.5C851 273.5 912.277 420.5 896.5 516.5M891 542.5C892.866 536.077 896.5 530.5 896.5 516.5M891 542.5L896.5 516.5" stroke="#222194"/>
</svg>
