<svg width="43" height="41" viewBox="0 0 43 41" fill="none" xmlns="http://www.w3.org/2000/svg">
<ellipse cx="23.0078" cy="20" rx="19.9922" ry="20" fill="#FFF3FB"/>
<ellipse cx="18.5095" cy="22.5" rx="17.4932" ry="17.5" fill="#FAC3DE"/>
<path d="M7.51379 17C5.52858 15.8859 4.51495 12.5 4.51495 12.5C4.51495 12.5 2.20905 15.3309 1.51612 17.5C0.859824 19.5544 1.01632 23 1.01632 23L2.51573 24L4.01515 25.5L4.51495 27.5H6.01437L7.51379 25.5L12.012 28L11.5122 31.5L15.0109 34V39.5C15.0109 39.5 21.029 40.3019 24.5072 39C27.1437 38.0131 28.5229 36.9998 30.5048 35C32.1823 33.3074 34.0035 30 34.0035 30C34.5033 29.5 35.2423 26.711 35.5029 24.5C35.7086 22.7547 35.5029 20 35.5029 20L33.5037 22.5V26H29.5052L27.506 29L24.0074 28C24.0074 28 19.5091 27.5 18.0097 26C16.5103 24.5 27.506 19.0604 24.5072 20C21.5083 20.9396 18.6172 21.8143 16.5103 19.5C15.3874 18.2666 14.5111 16.5 15.0109 15.5C15.5107 14.5 10.1178 18.4614 7.51379 17Z" fill="#222194" stroke="#222194"/>
</svg>
