<svg width="137" height="19" viewBox="0 0 137 19" fill="none" xmlns="http://www.w3.org/2000/svg">
<path d="M15.7148 16.875C14.0742 17.8203 12.0352 18.293 9.59766 18.293C6.89453 18.293 4.76172 17.5469 3.19922 16.0547C1.64453 14.5547 0.867188 12.4922 0.867188 9.86719C0.867188 7.22656 1.71875 5.07422 3.42188 3.41016C5.125 1.74609 7.39062 0.914062 10.2188 0.914062C12 0.914062 13.5703 1.16016 14.9297 1.65234V5.20312C13.6328 4.45312 12.0469 4.07812 10.1719 4.07812C8.60156 4.07812 7.32031 4.58984 6.32812 5.61328C5.34375 6.62891 4.85156 7.98828 4.85156 9.69141C4.85156 11.418 5.29297 12.7539 6.17578 13.6992C7.06641 14.6445 8.26562 15.1172 9.77344 15.1172C10.6797 15.1172 11.3984 14.9883 11.9297 14.7305V11.4492H8.56641V8.42578H15.7148V16.875ZM26.4492 9.33984C26.0039 9.09766 25.4844 8.97656 24.8906 8.97656C24.0859 8.97656 23.457 9.27344 23.0039 9.86719C22.5508 10.4531 22.3242 11.2539 22.3242 12.2695V18H18.6211V6H22.3242V8.22656H22.3711C22.957 6.60156 24.0117 5.78906 25.5352 5.78906C25.9258 5.78906 26.2305 5.83594 26.4492 5.92969V9.33984ZM38.168 18H34.6641V16.2773H34.6172C33.8125 17.6211 32.6211 18.293 31.043 18.293C29.8789 18.293 28.9609 17.9648 28.2891 17.3086C27.625 16.6445 27.293 15.7617 27.293 14.6602C27.293 12.332 28.6719 10.9883 31.4297 10.6289L34.6875 10.1953C34.6875 8.88281 33.9766 8.22656 32.5547 8.22656C31.125 8.22656 29.7656 8.65234 28.4766 9.50391V6.71484C28.9922 6.44922 29.6953 6.21484 30.5859 6.01172C31.4844 5.80859 32.3008 5.70703 33.0352 5.70703C36.457 5.70703 38.168 7.41406 38.168 10.8281V18ZM34.6875 13.125V12.3164L32.5078 12.5977C31.3047 12.7539 30.7031 13.2969 30.7031 14.2266C30.7031 14.6484 30.8477 14.9961 31.1367 15.2695C31.4336 15.5352 31.832 15.668 32.332 15.668C33.0273 15.668 33.5938 15.4297 34.0312 14.9531C34.4688 14.4688 34.6875 13.8594 34.6875 13.125ZM52.6875 18H48.9961V11.332C48.9961 9.47266 48.332 8.54297 47.0039 8.54297C46.3633 8.54297 45.8359 8.78906 45.4219 9.28125C45.0078 9.77344 44.8008 10.3984 44.8008 11.1562V18H41.0977V6H44.8008V7.89844H44.8477C45.7305 6.4375 47.0156 5.70703 48.7031 5.70703C51.3594 5.70703 52.6875 7.35547 52.6875 10.6523V18ZM67.3711 18H63.668V16.3477H63.6211C62.7773 17.6445 61.5391 18.293 59.9062 18.293C58.4062 18.293 57.1992 17.7656 56.2852 16.7109C55.3711 15.6484 54.9141 14.168 54.9141 12.2695C54.9141 10.2852 55.418 8.69531 56.4258 7.5C57.4336 6.30469 58.7539 5.70703 60.3867 5.70703C61.9336 5.70703 63.0117 6.26172 63.6211 7.37109H63.668V0.234375H67.3711V18ZM63.7383 12.1641V11.2617C63.7383 10.4805 63.5117 9.83203 63.0586 9.31641C62.6055 8.80078 62.0156 8.54297 61.2891 8.54297C60.4688 8.54297 59.8281 8.86719 59.3672 9.51562C58.9062 10.1562 58.6758 11.0391 58.6758 12.1641C58.6758 13.2188 58.8984 14.0312 59.3438 14.6016C59.7891 15.1719 60.4062 15.457 61.1953 15.457C61.9453 15.457 62.5547 15.1562 63.0234 14.5547C63.5 13.9531 63.7383 13.1562 63.7383 12.1641ZM84.8438 1.19531L79.0547 18H74.7656L69.0469 1.19531H73.125L76.6289 12.8906C76.8164 13.5234 76.9297 14.082 76.9688 14.5664H77.0391C77.0938 14.043 77.2148 13.4688 77.4023 12.8438L80.8828 1.19531H84.8438ZM88.3711 4.10156C87.7461 4.10156 87.2344 3.91797 86.8359 3.55078C86.4375 3.17578 86.2383 2.71875 86.2383 2.17969C86.2383 1.625 86.4375 1.17188 86.8359 0.820312C87.2344 0.46875 87.7461 0.292969 88.3711 0.292969C89.0039 0.292969 89.5156 0.46875 89.9062 0.820312C90.3047 1.17188 90.5039 1.625 90.5039 2.17969C90.5039 2.74219 90.3047 3.20312 89.9062 3.5625C89.5156 3.92188 89.0039 4.10156 88.3711 4.10156ZM90.1992 18H86.4961V6H90.1992V18ZM92.5312 17.6836V14.6836C93.1406 15.0508 93.7461 15.3242 94.3477 15.5039C94.957 15.6836 95.5312 15.7734 96.0703 15.7734C96.7266 15.7734 97.2422 15.6836 97.6172 15.5039C98 15.3242 98.1914 15.0508 98.1914 14.6836C98.1914 14.4492 98.1055 14.2539 97.9336 14.0977C97.7617 13.9414 97.5391 13.8047 97.2656 13.6875C97 13.5703 96.707 13.4648 96.3867 13.3711C96.0664 13.2773 95.7578 13.1719 95.4609 13.0547C94.9844 12.875 94.5625 12.6836 94.1953 12.4805C93.8359 12.2695 93.5312 12.0273 93.2812 11.7539C93.0391 11.4805 92.8516 11.1641 92.7188 10.8047C92.5938 10.4453 92.5312 10.0195 92.5312 9.52734C92.5312 8.85547 92.6758 8.27734 92.9648 7.79297C93.2617 7.30859 93.6523 6.91406 94.1367 6.60938C94.6289 6.29688 95.1875 6.07031 95.8125 5.92969C96.4453 5.78125 97.1016 5.70703 97.7812 5.70703C98.3125 5.70703 98.8516 5.75 99.3984 5.83594C99.9453 5.91406 100.484 6.03125 101.016 6.1875V9.04688C100.547 8.77344 100.043 8.57031 99.5039 8.4375C98.9727 8.29688 98.4492 8.22656 97.9336 8.22656C97.6914 8.22656 97.4609 8.25 97.2422 8.29688C97.0312 8.33594 96.8438 8.39844 96.6797 8.48438C96.5156 8.5625 96.3867 8.66797 96.293 8.80078C96.1992 8.92578 96.1523 9.07031 96.1523 9.23438C96.1523 9.45312 96.2227 9.64062 96.3633 9.79688C96.5039 9.95312 96.6875 10.0898 96.9141 10.207C97.1406 10.3164 97.3906 10.418 97.6641 10.5117C97.9453 10.5977 98.2227 10.6875 98.4961 10.7812C98.9883 10.9531 99.4336 11.1406 99.832 11.3438C100.23 11.5469 100.57 11.7852 100.852 12.0586C101.141 12.332 101.359 12.6523 101.508 13.0195C101.664 13.3867 101.742 13.8242 101.742 14.332C101.742 15.043 101.586 15.6523 101.273 16.1602C100.969 16.6602 100.559 17.0703 100.043 17.3906C99.5352 17.7031 98.9453 17.9297 98.2734 18.0703C97.6094 18.2188 96.918 18.293 96.1992 18.293C94.8789 18.293 93.6562 18.0898 92.5312 17.6836ZM105.762 4.10156C105.137 4.10156 104.625 3.91797 104.227 3.55078C103.828 3.17578 103.629 2.71875 103.629 2.17969C103.629 1.625 103.828 1.17188 104.227 0.820312C104.625 0.46875 105.137 0.292969 105.762 0.292969C106.395 0.292969 106.906 0.46875 107.297 0.820312C107.695 1.17188 107.895 1.625 107.895 2.17969C107.895 2.74219 107.695 3.20312 107.297 3.5625C106.906 3.92188 106.395 4.10156 105.762 4.10156ZM107.59 18H103.887V6H107.59V18ZM116.426 18.293C114.426 18.293 112.852 17.7344 111.703 16.6172C110.562 15.4922 109.992 13.9688 109.992 12.0469C109.992 10.0625 110.586 8.51172 111.773 7.39453C112.961 6.26953 114.566 5.70703 116.59 5.70703C118.582 5.70703 120.145 6.26953 121.277 7.39453C122.41 8.51172 122.977 9.99219 122.977 11.8359C122.977 13.8281 122.391 15.4023 121.219 16.5586C120.055 17.7148 118.457 18.293 116.426 18.293ZM116.52 8.54297C115.645 8.54297 114.965 8.84375 114.48 9.44531C113.996 10.0469 113.754 10.8984 113.754 12C113.754 14.3047 114.684 15.457 116.543 15.457C118.316 15.457 119.203 14.2734 119.203 11.9062C119.203 9.66406 118.309 8.54297 116.52 8.54297ZM136.969 18H133.277V11.332C133.277 9.47266 132.613 8.54297 131.285 8.54297C130.645 8.54297 130.117 8.78906 129.703 9.28125C129.289 9.77344 129.082 10.3984 129.082 11.1562V18H125.379V6H129.082V7.89844H129.129C130.012 6.4375 131.297 5.70703 132.984 5.70703C135.641 5.70703 136.969 7.35547 136.969 10.6523V18Z" fill="#B9B9B9"/>
</svg>
