<svg width="49" height="40" viewBox="0 0 49 40" fill="none" xmlns="http://www.w3.org/2000/svg">
<ellipse cx="29.3999" cy="20" rx="19.6" ry="20" fill="#FFF3FB"/>
<rect y="16.1532" width="19.6" height="8.07661" rx="4.0383" fill="#FAC3DE"/>
<rect y="16.1532" width="19.6" height="8.07661" rx="4.0383" fill="#FAC3DE"/>
<rect y="16.1532" width="19.6" height="8.07661" rx="4.0383" fill="#FAC3DE"/>
<rect y="16.1532" width="19.6" height="8.07661" rx="4.0383" fill="#FAC3DE"/>
<rect y="16.1532" width="19.6" height="8.07661" rx="4.0383" fill="#FAC3DE"/>
<rect y="16.1532" width="19.6" height="8.07661" rx="4.0383" fill="#FAC3DE"/>
<rect x="7.83997" y="26.249" width="19.6" height="8.07661" rx="4.0383" fill="#FAC3DE"/>
<rect x="7.83997" y="26.249" width="19.6" height="8.07661" rx="4.0383" fill="#FAC3DE"/>
<rect x="7.83997" y="26.249" width="19.6" height="8.07661" rx="4.0383" fill="#FAC3DE"/>
<rect x="7.83997" y="26.249" width="19.6" height="8.07661" rx="4.0383" fill="#FAC3DE"/>
<rect x="7.83997" y="26.249" width="19.6" height="8.07661" rx="4.0383" fill="#FAC3DE"/>
<rect x="7.83997" y="26.249" width="19.6" height="8.07661" rx="4.0383" fill="#FAC3DE"/>
<rect x="7.83997" y="6.0575" width="19.6" height="8.07661" rx="4.0383" fill="#FAC3DE"/>
<rect x="7.83997" y="6.0575" width="19.6" height="8.07661" rx="4.0383" fill="#FAC3DE"/>
<rect x="7.83997" y="6.0575" width="19.6" height="8.07661" rx="4.0383" fill="#FAC3DE"/>
<rect x="7.83997" y="6.0575" width="19.6" height="8.07661" rx="4.0383" fill="#FAC3DE"/>
<rect x="7.83997" y="6.0575" width="19.6" height="8.07661" rx="4.0383" fill="#FAC3DE"/>
<rect x="7.83997" y="6.0575" width="19.6" height="8.07661" rx="4.0383" fill="#FAC3DE"/>
<path d="M24.5001 20.1916L35.2801 6.0575V20.1916H24.5001Z" fill="#222194"/>
<path d="M46.0599 20.1915L35.2799 34.3256L35.2799 20.1915L46.0599 20.1915Z" fill="#222194"/>
</svg>
