<svg width="47" height="40" viewBox="0 0 47 40" fill="none" xmlns="http://www.w3.org/2000/svg">
<circle cx="27" cy="20" r="20" fill="#FFF3FB"/>
<rect x="5.99997" width="22" height="36.3447" fill="#222194"/>
<rect x="31" width="8" height="36.3447" fill="#222194"/>
<path d="M2 16.6724C1.17157 16.6724 0.5 17.3439 0.5 18.1724C0.5 19.0008 1.17157 19.6724 2 19.6724L2 16.6724ZM24.0607 19.233C24.6464 18.6472 24.6464 17.6975 24.0607 17.1117L14.5147 7.56576C13.9289 6.97997 12.9792 6.97997 12.3934 7.56576C11.8076 8.15155 11.8076 9.1013 12.3934 9.68708L20.8787 18.1724L12.3934 26.6576C11.8076 27.2434 11.8076 28.1932 12.3934 28.779C12.9792 29.3648 13.9289 29.3648 14.5147 28.779L24.0607 19.233ZM2 19.6724L23 19.6724V16.6724L2 16.6724L2 19.6724Z" fill="#FAC3DE"/>
</svg>
