<svg width="28" height="28" viewBox="0 0 28 28" fill="none" xmlns="http://www.w3.org/2000/svg">
<ellipse cx="14.091" cy="13.8963" rx="13.9091" ry="13.8265" fill="#ECF3F8"/>
<path d="M4.35454 6.52215C4.06825 5.6684 4.02955 5.05768 4.35454 4.21773C4.72222 3.26744 6.20908 2.37419 6.20908 2.37419C6.20908 2.37419 8.3696 1.00176 9.91816 0.530657C11.8305 -0.0511108 13.0228 -0.0644761 15.0182 0.0697726C17.2526 0.220113 18.5937 0.427429 20.5818 1.45242C22.7442 2.56727 23.7433 3.67319 25.2181 5.60038C26.3468 7.0752 26.9925 7.97585 27.5363 9.74834C28.0146 11.3073 28 12.2664 28 13.8963C28 15.5261 27.5363 18.0442 27.5363 18.0442H27.0727L16.4091 17.5834L20.5818 11.5919H16.4091C16.4091 11.5919 16.2856 8.36569 15.0182 8.36569H11.7727C10.5053 8.36569 10.7156 5.80325 9.91816 4.21773C9.45453 3.29595 5.74544 8.36569 5.74544 8.36569C5.74544 8.36569 4.64082 7.3759 4.35454 6.52215Z" fill="#222194"/>
<path d="M1.10919 19.4269C0.181846 17.5834 -0.281742 15.7398 0.181893 15.7398L1.10907 15.2789H2.96366L3.89094 15.7398L4.35454 16.6616V18.0442V19.4269L5.28184 20.3487C5.28184 20.3487 6.73362 20.0877 7.60002 20.3487C8.70954 20.6829 9.91816 22.1922 9.91816 22.1922L13.1636 23.5748L14.5546 24.4966L16.4091 23.5748H19.6545L20.5818 26.3402C20.5818 26.3402 18.3882 27.414 16.8727 27.7228C14.9216 28.1204 13.7347 28.0633 11.7727 27.7228C10.0806 27.4291 9.1249 27.1261 7.60002 26.3402C5.99264 25.5116 5.14403 24.874 3.89094 23.5748C2.5355 22.1696 2.03653 21.2704 1.10919 19.4269Z" fill="#222194"/>
</svg>
