<svg width="42" height="39" viewBox="0 0 42 39" fill="none" xmlns="http://www.w3.org/2000/svg">
<ellipse cx="21.9999" cy="19.5" rx="20" ry="19.5" fill="#FFF3FB"/>
<rect x="12" y="15.7494" width="20" height="5.90602" rx="2.95301" fill="#FAC3DE"/>
<rect x="12" y="15.7494" width="20" height="5.90602" rx="2.95301" fill="#FAC3DE"/>
<rect x="12" y="15.7494" width="20" height="5.90602" rx="2.95301" fill="#FAC3DE"/>
<rect x="12" y="15.7494" width="20" height="5.90602" rx="2.95301" fill="#FAC3DE"/>
<rect x="12" y="15.7494" width="20" height="5.90602" rx="2.95301" fill="#FAC3DE"/>
<rect x="12" y="15.7494" width="20" height="5.90602" rx="2.95301" fill="#FAC3DE"/>
<rect x="-0.00012207" y="25.5928" width="20" height="5.90602" rx="2.95301" fill="#FAC3DE"/>
<rect x="-0.00012207" y="25.5928" width="20" height="5.90602" rx="2.95301" fill="#FAC3DE"/>
<rect x="-0.00012207" y="25.5928" width="20" height="5.90602" rx="2.95301" fill="#FAC3DE"/>
<rect x="-0.00012207" y="25.5928" width="20" height="5.90602" rx="2.95301" fill="#FAC3DE"/>
<rect x="-0.00012207" y="25.5928" width="20" height="5.90602" rx="2.95301" fill="#FAC3DE"/>
<rect x="-0.00012207" y="25.5928" width="20" height="5.90602" rx="2.95301" fill="#FAC3DE"/>
<rect x="-0.00012207" y="5.90601" width="20" height="5.90602" rx="2.95301" fill="#FAC3DE"/>
<rect x="-0.00012207" y="5.90601" width="20" height="5.90602" rx="2.95301" fill="#FAC3DE"/>
<rect x="-0.00012207" y="5.90601" width="20" height="5.90602" rx="2.95301" fill="#FAC3DE"/>
<rect x="-0.00012207" y="5.90601" width="20" height="5.90602" rx="2.95301" fill="#FAC3DE"/>
<rect x="-0.00012207" y="5.90601" width="20" height="5.90602" rx="2.95301" fill="#FAC3DE"/>
<rect x="-0.00012207" y="5.90601" width="20" height="5.90602" rx="2.95301" fill="#FAC3DE"/>
<ellipse cx="27" cy="8.85898" rx="4" ry="3.93735" fill="#222194"/>
<ellipse cx="3.99988" cy="18.7024" rx="4" ry="3.93735" fill="#222194"/>
<ellipse cx="27" cy="28.5457" rx="4" ry="3.93735" fill="#222194"/>
</svg>
