<svg width="43" height="46" viewBox="0 0 43 46" fill="none" xmlns="http://www.w3.org/2000/svg">
<ellipse cx="23.2198" cy="19.5745" rx="19.7802" ry="19.5745" fill="#FFF3FB"/>
<rect width="39.4234" height="11.7861" rx="5.89304" transform="matrix(0.818842 0.574019 -0.582068 0.81314 6.89197 4.87274)" fill="#FAC3DE"/>
<path d="M22.069 0.989136L24.3678 2.77596L17.931 11.2634L22.9885 14.3903L19.7701 18.4107L15.1724 15.2837L12.8736 18.4107L17.931 21.9843L15.1724 25.558L14.7126 25.1113L10.1149 22.431L3.21839 31.8119L0 29.5783L22.069 0.989136Z" fill="#FFF3FB"/>
<path d="M40.5275 14.6809L39.5385 13.7022L17.2858 45.5107L18.7693 46L40.5275 14.6809Z" fill="#FFF3FB"/>
<path d="M18.8516 41.8092L39.1315 12.8488L23.2799 1.97827L17.3756 10.4098L22.6595 14.0333L19.8357 18.0657L14.5518 14.4422L12.2415 17.7415L17.5253 21.365L14.9583 25.0309L9.6744 21.4074L3 30.9386L18.8516 41.8092Z" fill="#222194"/>
</svg>
