<svg width="41" height="43" viewBox="0 0 41 43" fill="none" xmlns="http://www.w3.org/2000/svg">
<ellipse cx="20.1684" cy="20" rx="20.1528" ry="20" fill="#FFF3FB"/>
<path d="M29.2329 6H11.0884V21H0V40H28.7289L29.2329 6Z" fill="#222194"/>
<path d="M17.1365 32.4995C15.6245 32.4994 16.1285 29.4994 17.1365 29.4995C18.1445 29.4995 20.7468 27.4606 21.6726 24.9994C23.5192 20.0907 20.6349 14.6563 15.6245 12.9994C13.3837 12.2585 9.57626 12.9994 9.57626 12.9994V10C9.57626 10 14.3312 9.58686 17.1365 10.5C23.1677 12.4632 26.7706 20.048 24.6967 25.9995C23.3296 29.923 18.6486 32.4995 17.1365 32.4995Z" fill="#FAC3DE"/>
<path d="M1.96343 32.0607C1.37765 31.4749 1.37765 30.5251 1.96343 29.9393L11.5094 20.3934C12.0952 19.8076 13.0449 19.8076 13.6307 20.3934C14.2165 20.9792 14.2165 21.9289 13.6307 22.5147L5.14541 31L13.6307 39.4853C14.2165 40.0711 14.2165 41.0208 13.6307 41.6066C13.0449 42.1924 12.0952 42.1924 11.5094 41.6066L1.96343 32.0607ZM17.1365 32.5H3.02409V29.5H17.1365V32.5Z" fill="#FAC3DE"/>
</svg>
