<svg width="44" height="40" viewBox="0 0 44 40" fill="none" xmlns="http://www.w3.org/2000/svg">
<circle cx="24" cy="20" r="20" fill="#FFF3FB"/>
<circle cx="19.5" cy="22.5" r="17.5" fill="#222194"/>
<ellipse cx="29.132" cy="7.90345" rx="4.86796" ry="4.90345" fill="#FAC3DE"/>
<path d="M27.1848 8.88412C27.1848 8.88412 28.76 9.86481 29.6188 9.86481C30.4776 9.86481 32.0528 8.88412 32.0528 8.88412" stroke="white"/>
<path d="M18.5739 30.9496C14.5262 30.7077 10.0086 24.8365 9.36881 24.5751C8.72902 24.3138 7.77806 24.2519 8.6324 26.0462C8.6324 26.0462 14.1368 33.1444 18.5739 33.4013C23.3923 33.6803 29.132 27.5172 29.6201 26.0462C29.9628 25.0133 29.132 24.614 29.132 24.614L28.6452 24.5752C28.6452 24.5752 23.0085 31.2147 18.5739 30.9496Z" fill="white" stroke="white"/>
<path d="M5.76586 32.9108L3.81866 30.4591C3.81866 30.4591 -1.48989 35.018 0.411107 37.3239C2.29652 39.6109 7.71304 35.3625 7.71304 35.3625L5.76586 32.9108Z" fill="#FAC3DE"/>
</svg>
