<svg width="77" height="77" viewBox="0 0 77 77" fill="none" xmlns="http://www.w3.org/2000/svg">
<rect y="0.000732422" width="77" height="77" rx="38.5" fill="#ECF3F8"/>
<path d="M30.3146 54.8274V34.0275H23.4071V54.8274H30.3153H30.3146ZM26.8623 31.1881C29.2706 31.1881 30.7699 29.5909 30.7699 27.5949C30.7248 25.5533 29.2706 24.0007 26.9081 24.0007C24.544 24.0007 23 25.5533 23 27.5947C23 29.5907 24.4988 31.1879 26.817 31.1879H26.8618L26.8623 31.1881ZM34.1379 54.8274H41.0448V43.213C41.0448 42.5922 41.0899 41.9697 41.2724 41.5263C41.7715 40.2838 42.908 38.9975 44.8166 38.9975C47.3154 38.9975 48.3156 40.9048 48.3156 43.7012V54.8274H55.2223V42.9013C55.2223 36.5128 51.8151 33.5398 47.2707 33.5398C43.5449 33.5398 41.9085 35.6241 40.9994 37.0437H41.0454V34.0282H34.1383C34.2285 35.9795 34.1378 54.8281 34.1378 54.8281L34.1379 54.8274Z" fill="#006699"/>
</svg>
