<svg width="40" height="48" viewBox="0 0 40 48" fill="none" xmlns="http://www.w3.org/2000/svg">
<path d="M20.0185 23.8475L12.2479 19.5914V30.3711L20.0185 34.5923L40 23.7079V12.9282L20.0185 23.8475Z" fill="#ECF3F8"/>
<path d="M20.0185 11.4978L28.9732 16.3818L38.8529 11.0094L20.0185 0.75293L1.18408 11.0094L10.9898 16.4167L20.0185 11.4978Z" fill="#ECF3F8"/>
<path d="M9.87974 31.627V18.3006L0 12.9282V36.9995L20.0185 47.9187L40 36.9995V26.2546L20.0185 37.139L9.87974 31.627Z" fill="#ECF3F8"/>
<g opacity="0.25">
<path d="M20.0185 23.8474L12.2479 19.5913V30.371L20.0185 34.5922V23.8474Z" fill="#0061FF"/>
<path d="M20.0185 11.4978V0.75293L1.18408 11.0094L10.9898 16.4167L20.0185 11.4978Z" fill="#0061FF"/>
<path d="M9.87974 31.627V18.3006L0 12.9282V36.9995L20.0185 47.9187V37.139L9.87974 31.627Z" fill="#0061FF"/>
</g>
</svg>
