<svg width="70" height="80" viewBox="0 0 70 80" fill="none" xmlns="http://www.w3.org/2000/svg">
<path d="M35.0324 39.1719L21.4338 31.953V50.237L35.0324 57.3967L70 38.9352V20.6512L35.0324 39.1719Z" fill="#ECF3F8"/>
<path d="M35.0324 18.2248L50.7031 26.5088L67.9926 17.3964L35.0324 0L2.07214 17.3964L19.2322 26.568L35.0324 18.2248Z" fill="#ECF3F8"/>
<path d="M17.2895 52.3671V29.7636L0 20.6512V61.4795L35.0324 80.0002L70 61.4795V43.2547L35.0324 61.7162L17.2895 52.3671Z" fill="#ECF3F8"/>
<g opacity="0.25">
<path d="M35.0324 39.1716L21.4338 31.9526V50.2366L35.0324 57.3964V39.1716Z" fill="#0061FF"/>
<path d="M35.0324 18.2248V0L2.07214 17.3964L19.2322 26.568L35.0324 18.2248Z" fill="#0061FF"/>
<path d="M17.2895 52.3671V29.7636L0 20.6512V61.4795L35.0324 80.0002V61.7162L17.2895 52.3671Z" fill="#0061FF"/>
</g>
</svg>
