<svg width="150" height="34" viewBox="0 0 150 34" fill="none" xmlns="http://www.w3.org/2000/svg">
<g clip-path="url(#clip0_1_4461)">
<path d="M38.5096 22.1128H41.975C43.3299 22.1128 43.851 22.5729 43.851 23.6977C43.851 24.7714 43.3299 25.2316 41.975 25.2316H38.5096V22.1128ZM33.1162 33.4632H38.4836V28.8361H44.2418C48.0459 28.8361 49.4268 26.6376 49.4268 23.7744C49.4268 20.4767 48.0198 18.585 44.1897 18.585H33.0901V33.4632H33.1162Z" fill="#B9B9B9"/>
<path d="M51.2246 18.6105H65.7113V22.2405H56.618V24.2345H65.0599V27.8646H56.618V29.8586H65.7113V33.4631H51.2246V18.6105Z" fill="#B9B9B9"/>
<path d="M73.3455 22.1128H76.8108C78.1657 22.1128 78.6868 22.5729 78.6868 23.6977C78.6868 24.7714 78.1657 25.2316 76.8108 25.2316H73.3455V22.1128ZM67.9521 33.4632H73.3194V28.8361H79.0776C82.8817 28.8361 84.2626 26.6376 84.2626 23.7744C84.2626 20.4767 82.8556 18.585 79.0255 18.585H67.926L67.9521 33.4632Z" fill="#B9B9B9"/>
<path d="M89.4997 27.1744C86.8682 26.7398 85.7738 25.0782 85.7738 22.9819C85.7738 19.1218 89.2392 18.0992 93.6425 18.0992C99.7134 18.0992 102.215 19.8376 102.397 22.9564H96.1438C96.1438 22.3429 95.8312 21.985 95.3361 21.7804C94.8671 21.5504 94.2418 21.4737 93.6686 21.4737C92.0792 21.4737 91.506 21.9083 91.506 22.5474C91.506 22.9564 91.6884 23.2376 92.2095 23.3143L98.6451 24.3624C101.355 24.797 103.022 26.1774 103.022 28.6827C103.022 32.3128 100.313 34 94.2678 34C90.1251 34 85.6175 33.3865 85.5914 29.015H92.0792C92.1053 29.5263 92.2616 29.8586 92.6524 30.0632C93.0432 30.2677 93.6425 30.3699 94.4763 30.3699C96.1438 30.3699 96.6128 29.8586 96.6128 29.1684C96.6128 28.7338 96.3523 28.2992 95.6488 28.1714L89.4997 27.1744Z" fill="#B9B9B9"/>
<path d="M104.768 18.6105H110.135V33.4631H104.768V18.6105Z" fill="#B9B9B9"/>
<path d="M130.068 27.6857C129.729 29.6541 129.104 31.2135 127.775 32.3128C126.472 33.3865 124.388 34 121.131 34C117.874 34 111.829 33.7444 111.829 26.0496C111.829 18.3549 117.874 18.0992 121.131 18.0992C124.362 18.0992 129.364 18.5594 130.068 24.4391H124.023C123.867 23.3654 123.215 21.8316 121.131 21.8316C118.942 21.8316 117.535 23.0075 117.535 26.0241C117.535 29.0406 118.89 30.2165 120.844 30.2165C122.538 30.2165 123.554 29.4496 123.997 27.6601L130.068 27.6857Z" fill="#B9B9B9"/>
<path d="M137.129 26.0496C137.129 23.0331 138.51 21.8571 140.724 21.8571C142.913 21.8571 144.32 23.0331 144.32 26.0496C144.32 29.0662 142.939 30.2421 140.724 30.2421C138.51 30.2421 137.129 29.0662 137.129 26.0496ZM131.397 26.0496C131.397 33.7444 137.441 34 140.698 34C143.955 34 150 33.7444 150 26.0496C150 18.3549 143.955 18.0992 140.698 18.0992C137.441 18.0992 131.397 18.3549 131.397 26.0496Z" fill="#B9B9B9"/>
<path d="M24.987 18.7639C25.3257 11.6316 19.0724 3.6045 10.5263 2.6075L10.5524 2.50525C18.9682 2.50525 25.4299 10.1489 25.4299 16.1819C25.4299 17.4346 25.3257 18.2271 25.1433 18.7895L24.987 18.7639ZM24.4919 19.6586C23.9187 20.3233 23.2152 21.0135 22.4075 21.6526C20.8963 13.0887 14.4607 5.59848 9.92705 3.39999L9.82282 3.47668C14.3825 7.15788 19.828 14.2902 21.9385 21.9849C20.9224 22.7263 19.7499 23.391 18.4732 23.9278C14.174 19.1218 10.1615 9.84209 8.85878 3.93683L8.7285 3.98796C8.75456 9.71427 12.8973 19.4286 17.9521 24.1579C16.8317 24.5925 15.6331 24.9248 14.3564 25.1293C9.51016 23.2631 6.07087 17.2301 6.07087 11.0436C6.07087 7.0045 7.32152 4.5248 7.55602 4.01352L7.4518 3.96239C7.16519 4.42254 5.34132 6.90224 5.34132 11.2481C5.34132 18.2271 8.85878 23.5699 13.4966 25.2316C11.9072 25.4105 10.2397 25.3594 8.49401 25.0015L8.46795 25.1037C8.963 25.2827 10.6566 25.9729 13.2361 25.9729C19.0724 25.9729 23.0068 22.4195 24.5961 19.7098L24.4919 19.6586Z" fill="#B9B9B9"/>
<path d="M12.6628 0C8.23345 0 3.04846 3.1188 3.04846 5.98196C3.04846 7.0812 4.09067 8.02707 6.2272 8.02707C11.1777 8.02707 15.7895 4.6782 15.7895 2.09624C15.7895 0.715789 14.4346 0 12.6628 0ZM14.4085 2.01955C14.4085 4.21805 10.1094 6.87669 6.53986 6.87669C4.95049 6.87669 4.09067 6.26316 4.09067 5.26617C4.09067 3.04211 8.41584 0.409023 11.777 0.409023C13.9917 0.409023 14.4085 1.50827 14.4085 2.01955Z" fill="#B9B9B9"/>
<path d="M1.27671 7.31126C1.14643 7.51577 0.651381 8.4872 0.651381 9.45863C0.651381 11.2737 2.52736 12.9609 5.96665 12.9609C12.5847 12.9609 20.2449 8.18044 20.2449 3.73231C20.2449 1.73833 18.3168 0.664646 16.988 0.43457L16.962 0.511262C17.3788 0.639082 18.89 1.32931 18.89 3.11878C18.89 6.6466 12.1417 11.4782 5.41949 11.4782C2.84002 11.4782 1.2246 10.2255 1.2246 8.41051C1.2246 7.8481 1.35487 7.46465 1.38093 7.33683L1.27671 7.31126Z" fill="#B9B9B9"/>
<path d="M22.9807 4.09021C23.1631 4.21803 24.2574 5.11277 24.2574 6.79998C24.2574 12.5519 15.086 18.2015 6.95675 18.2015C2.11047 18.2015 -0.104221 15.8496 4.19095e-09 13.7789H0.0781657C0.260552 14.8526 1.84992 16.7955 6.07087 16.7955C14.2001 16.7955 23.2673 10.9413 23.2673 5.82856C23.2673 4.95938 23.0328 4.39698 22.8765 4.1669L22.9807 4.09021Z" fill="#B9B9B9"/>
<path d="M26.0552 9.45862C26.0813 9.58644 26.2897 10.1233 26.2897 10.9925C26.2897 17.3834 16.988 22.8541 8.91089 22.8541C4.74205 22.8541 2.57947 20.8601 2.11047 20.0676L2.18864 20.0165C3.33507 21.0135 5.60188 21.7549 8.25951 21.7549C15.3986 21.7549 26.0552 16.4376 25.951 9.48418L26.0552 9.45862Z" fill="#B9B9B9"/>
</g>
<defs>
<clipPath id="clip0_1_4461">
<rect width="150" height="34" fill="white"/>
</clipPath>
</defs>
</svg>
