<svg width="156" height="34" viewBox="0 0 156 34" fill="none" xmlns="http://www.w3.org/2000/svg">
<path fill-rule="evenodd" clip-rule="evenodd" d="M67.7748 22.7875C67.7748 24.0625 68.758 25.125 70.0034 25.125C71.2487 25.125 72.2319 24.0625 72.2319 22.7875V15.1375H76.0992V23.6375C76.0992 26.4708 73.3462 28.8083 69.9378 28.8083C66.5294 28.8083 63.7765 26.4708 63.7765 23.6375V15.1375H67.7092V22.7875H67.7748ZM84.9479 28.3125H88.8807V6H84.9479V28.3125ZM78.3277 28.3125H82.2605V6H78.3277V28.3125ZM6.35798 10.675H4.19496V28.3125H0V7.0625H7.21008C10.4874 7.0625 13.1092 9.89583 13.1092 13.3667C13.1092 16.2708 11.2084 18.8208 8.58656 19.4583L14.3546 28.3833H9.43866L5.2437 21.4417V16.3417H6.22689C7.8 16.3417 9.04538 15.0667 9.04538 13.5792C9.04538 11.95 7.86555 10.675 6.35798 10.675Z" fill="#B9B9B9"/>
<path fill-rule="evenodd" clip-rule="evenodd" d="M18.0907 20.1667C18.0252 18.75 19.0084 17.475 20.3849 17.4042C21.6958 17.3333 22.8756 18.3958 22.9412 19.8833C22.9412 19.9542 22.9412 20.0958 22.9412 20.1667H18.0907ZM26.7428 22.575C26.7428 22.2917 26.8084 22.0083 26.8084 21.6542C26.8739 17.05 24.0555 14.5 20.4504 14.5C16.8454 14.5 13.9613 17.6875 13.9613 21.5833C13.9613 25.4792 16.8454 28.6667 20.4504 28.6667C23.2034 28.6667 25.3008 27.3208 26.4151 25.2667L23.2034 23.6375C22.7445 24.6292 21.7613 25.2667 20.7126 25.2667C19.205 25.2667 18.0252 24.0625 18.0252 22.6458V22.5042C18.0907 22.575 26.7428 22.575 26.7428 22.575ZM35.6571 25.0542C34.084 25.0542 32.7731 23.4958 32.7731 21.6542C32.7731 19.7417 34.084 18.2542 35.6571 18.2542C37.2302 18.2542 38.5412 19.8125 38.5412 21.6542C38.5412 23.5667 37.2302 25.0542 35.6571 25.0542ZM42.4084 28.3125V6H38.4756V16.5542C37.4269 15.4208 35.9849 14.7833 34.5428 14.7833C31.3311 14.7833 28.6437 17.9 28.6437 21.725C28.6437 25.55 31.2655 28.6667 34.5428 28.6667C36.0504 28.6667 37.4924 27.9583 38.5412 26.825V28.3125H42.4084ZM55.7798 24.6292H52.0437V10.675H54.6655C55.8454 10.675 56.763 11.8083 56.763 13.0833C56.763 14.3583 55.8454 15.35 54.6655 15.35H53.2891V19.175H55.7798C57.1563 19.175 58.205 20.3792 58.205 21.8667V21.9375C58.1395 23.425 57.2874 24.5583 55.7798 24.6292ZM59.0571 16.7667C60.1714 15.7042 60.7613 14.2167 60.7613 12.6583C60.7613 11.2417 60.237 9.89583 59.3193 8.83333C58.4017 7.7 56.6975 7.13333 54.4689 7.13333H47.7832V28.3833H56.5008C59.8437 28.3125 62.5311 25.6208 62.5311 22.2917C62.4655 19.8125 61.679 18.1125 59.0571 16.7667Z" fill="#B9B9B9"/>
</svg>
