<svg width="5014" height="1304" viewBox="0 0 5014 1304" fill="none" xmlns="http://www.w3.org/2000/svg">
<g filter="url(#filter0_d_1_4493)">
<rect x="80.1094" y="366.516" width="4853.78" height="796.96" rx="24" fill="#222194"/>
</g>
<rect x="61" width="4892" height="1172" fill="#222194"/>
<g clip-path="url(#clip0_1_4493)">
<rect width="4892" height="1172" transform="translate(61)" fill="#222194"/>
<path d="M140.113 45.8718C141.505 41.1543 150.242 39.2776 153.98 42.8929C157.561 46.3556 150.5 57.5 150.5 57.5C150.5 57.5 138.733 50.546 140.113 45.8718Z" stroke="#33508A"/>
<path d="M70.4193 7.98547C75.041 6.30233 81.742 12.2139 81.0557 17.3689C80.3983 22.3063 67.2396 23.2503 67.2396 23.2503C67.2396 23.2503 65.8398 9.65319 70.4193 7.98547Z" stroke="#33508A"/>
<path d="M212.725 18.4084C207.862 19.1487 202.456 12.0335 204.144 7.11455C205.76 2.40317 218.847 4.06833 218.847 4.06833C218.847 4.06833 217.543 17.6749 212.725 18.4084Z" stroke="#33508A"/>
<path d="M282.781 52.4856C280.094 48.3657 284.332 40.499 289.509 39.9989C294.467 39.5199 298.369 52.122 298.369 52.122C298.369 52.122 285.443 56.5677 282.781 52.4856Z" stroke="#33508A"/>
<path d="M437.113 50.8718C438.505 46.1543 447.242 44.2776 450.98 47.8929C454.561 51.3556 447.5 62.5 447.5 62.5C447.5 62.5 435.733 55.546 437.113 50.8718Z" stroke="#33508A"/>
<path d="M367.419 12.9855C372.041 11.3023 378.742 17.2139 378.056 22.3689C377.398 27.3063 364.24 28.2503 364.24 28.2503C364.24 28.2503 362.84 14.6532 367.419 12.9855Z" stroke="#33508A"/>
<path d="M509.725 23.4084C504.862 24.1487 499.456 17.0335 501.144 12.1146C502.76 7.40317 515.847 9.06833 515.847 9.06833C515.847 9.06833 514.543 22.6749 509.725 23.4084Z" stroke="#33508A"/>
<path d="M579.781 57.4856C577.094 53.3657 581.332 45.499 586.509 44.9989C591.467 44.5199 595.369 57.122 595.369 57.122C595.369 57.122 582.443 61.5677 579.781 57.4856Z" stroke="#33508A"/>
<path d="M734.113 50.8718C735.505 46.1543 744.242 44.2776 747.98 47.8929C751.561 51.3556 744.5 62.5 744.5 62.5C744.5 62.5 732.733 55.546 734.113 50.8718Z" stroke="#33508A"/>
<path d="M664.419 12.9855C669.041 11.3023 675.742 17.2139 675.056 22.3689C674.398 27.3063 661.24 28.2503 661.24 28.2503C661.24 28.2503 659.84 14.6532 664.419 12.9855Z" stroke="#33508A"/>
<path d="M806.725 23.4084C801.862 24.1487 796.456 17.0335 798.144 12.1146C799.76 7.40317 812.847 9.06833 812.847 9.06833C812.847 9.06833 811.543 22.6749 806.725 23.4084Z" stroke="#33508A"/>
<path d="M876.781 57.4856C874.094 53.3657 878.332 45.499 883.509 44.9989C888.467 44.5199 892.369 57.122 892.369 57.122C892.369 57.122 879.443 61.5677 876.781 57.4856Z" stroke="#33508A"/>
<path d="M1248.11 55.8718C1249.51 51.1543 1258.24 49.2776 1261.98 52.8929C1265.56 56.3556 1258.5 67.5 1258.5 67.5C1258.5 67.5 1246.73 60.546 1248.11 55.8718Z" stroke="#33508A"/>
<path d="M1217.11 16.8718C1218.51 12.1543 1227.24 10.2776 1230.98 13.8929C1234.56 17.3556 1227.5 28.5 1227.5 28.5C1227.5 28.5 1215.73 21.546 1217.11 16.8718Z" stroke="#33508A"/>
<path d="M1320.72 28.4084C1315.86 29.1487 1310.46 22.0335 1312.14 17.1146C1313.76 12.4032 1326.85 14.0683 1326.85 14.0683C1326.85 14.0683 1325.54 27.6749 1320.72 28.4084Z" stroke="#33508A"/>
<path d="M1390.78 62.4856C1388.09 58.3657 1392.33 50.499 1397.51 49.9989C1402.47 49.5199 1406.37 62.122 1406.37 62.122C1406.37 62.122 1393.44 66.5677 1390.78 62.4856Z" stroke="#33508A"/>
<path d="M1031.11 55.8718C1032.51 51.1543 1041.24 49.2776 1044.98 52.8929C1048.56 56.3556 1041.5 67.5 1041.5 67.5C1041.5 67.5 1029.73 60.546 1031.11 55.8718Z" stroke="#33508A"/>
<path d="M961.419 17.9855C966.041 16.3023 972.742 22.2139 972.056 27.3689C971.398 32.3063 958.24 33.2503 958.24 33.2503C958.24 33.2503 956.84 19.6532 961.419 17.9855Z" stroke="#33508A"/>
<path d="M1103.72 28.4084C1098.86 29.1487 1093.46 22.0335 1095.14 17.1146C1096.76 12.4032 1109.85 14.0683 1109.85 14.0683C1109.85 14.0683 1108.54 27.6749 1103.72 28.4084Z" stroke="#33508A"/>
<path d="M1173.78 62.4856C1171.09 58.3657 1175.33 50.499 1180.51 49.9989C1185.47 49.5199 1189.37 62.122 1189.37 62.122C1189.37 62.122 1176.44 66.5677 1173.78 62.4856Z" stroke="#33508A"/>
<path d="M1113.17 91.242C1111.78 95.9594 1103.04 97.8361 1099.3 94.2209C1095.72 90.7581 1102.78 79.6138 1102.78 79.6138C1102.78 79.6138 1114.55 86.5678 1113.17 91.242Z" stroke="#33508A"/>
<path d="M1182.86 129.128C1178.24 130.811 1171.54 124.9 1172.23 119.745C1172.88 114.807 1186.04 113.863 1186.04 113.863C1186.04 113.863 1187.44 127.461 1182.86 129.128Z" stroke="#33508A"/>
<path d="M1040.56 118.705C1045.42 117.965 1050.83 125.08 1049.14 129.999C1047.52 134.711 1034.44 133.045 1034.44 133.045C1034.44 133.045 1035.74 119.439 1040.56 118.705Z" stroke="#33508A"/>
<path d="M970.502 84.6282C973.189 88.7481 968.951 96.6147 963.774 97.1149C958.817 97.5939 954.914 84.9918 954.914 84.9918C954.914 84.9918 967.84 80.5461 970.502 84.6282Z" stroke="#33508A"/>
<path d="M816.171 86.242C814.778 90.9594 806.041 92.8361 802.303 89.2209C798.723 85.7581 805.783 74.6138 805.783 74.6138C805.783 74.6138 817.551 81.5678 816.171 86.242Z" stroke="#33508A"/>
<path d="M885.864 124.128C881.242 125.811 874.541 119.9 875.228 114.745C875.885 109.807 889.044 108.863 889.044 108.863C889.044 108.863 890.443 122.461 885.864 124.128Z" stroke="#33508A"/>
<path d="M743.558 113.705C748.421 112.965 753.827 120.08 752.139 124.999C750.523 129.711 737.436 128.045 737.436 128.045C737.436 128.045 738.74 114.439 743.558 113.705Z" stroke="#33508A"/>
<path d="M673.502 79.6282C676.189 83.7481 671.951 91.6147 666.774 92.1149C661.817 92.5939 657.914 79.9918 657.914 79.9918C657.914 79.9918 670.84 75.5461 673.502 79.6282Z" stroke="white" stroke-opacity="0.1"/>
<path d="M519.171 86.242C517.778 90.9594 509.041 92.8361 505.303 89.2209C501.723 85.7581 508.783 74.6138 508.783 74.6138C508.783 74.6138 520.551 81.5678 519.171 86.242Z" stroke="#33508A"/>
<path d="M588.864 124.128C584.242 125.811 577.541 119.9 578.228 114.745C578.885 109.807 592.044 108.863 592.044 108.863C592.044 108.863 593.443 122.461 588.864 124.128Z" stroke="#33508A"/>
<path d="M446.558 113.705C451.421 112.965 456.827 120.08 455.139 124.999C453.523 129.711 440.436 128.045 440.436 128.045C440.436 128.045 441.74 114.439 446.558 113.705Z" stroke="#33508A"/>
<path d="M376.502 79.6282C379.189 83.7481 374.951 91.6147 369.774 92.1149C364.817 92.5939 360.914 79.9918 360.914 79.9918C360.914 79.9918 373.84 75.5461 376.502 79.6282Z" stroke="#33508A"/>
<path d="M222.171 81.242C220.778 85.9594 212.041 87.8361 208.303 84.2209C204.723 80.7581 211.783 69.6138 211.783 69.6138C211.783 69.6138 223.551 76.5678 222.171 81.242Z" stroke="#33508A"/>
<path d="M291.864 119.128C287.242 120.811 280.541 114.9 281.228 109.745C281.885 104.807 295.044 103.863 295.044 103.863C295.044 103.863 296.443 117.461 291.864 119.128Z" stroke="#33508A"/>
<path d="M149.558 108.705C154.421 107.965 159.827 115.08 158.139 119.999C156.523 124.711 143.436 123.045 143.436 123.045C143.436 123.045 144.74 109.439 149.558 108.705Z" stroke="#33508A"/>
<path d="M79.5023 74.6282C82.1894 78.7481 77.9508 86.6147 72.7744 87.1149C67.8165 87.5939 63.9141 74.9918 63.9141 74.9918C63.9141 74.9918 76.8399 70.5461 79.5023 74.6282Z" stroke="#33508A"/>
<path d="M2486.17 105.242C2484.78 109.959 2476.04 111.836 2472.3 108.221C2468.72 104.758 2475.78 93.6138 2475.78 93.6138C2475.78 93.6138 2487.55 100.568 2486.17 105.242Z" stroke="#33508A"/>
<path d="M2555.86 143.128C2551.24 144.811 2544.54 138.9 2545.23 133.745C2545.88 128.807 2559.04 127.863 2559.04 127.863C2559.04 127.863 2560.44 141.461 2555.86 143.128Z" stroke="#33508A"/>
<path d="M2413.56 132.705C2418.42 131.965 2423.83 139.08 2422.14 143.999C2420.52 148.711 2407.44 147.045 2407.44 147.045C2407.44 147.045 2408.74 133.439 2413.56 132.705Z" stroke="#33508A"/>
<path d="M2343.5 98.6282C2346.19 102.748 2341.95 110.615 2336.77 111.115C2331.82 111.594 2327.91 98.9918 2327.91 98.9918C2327.91 98.9918 2340.84 94.5461 2343.5 98.6282Z" stroke="#33508A"/>
<path d="M2189.17 100.242C2187.78 104.959 2179.04 106.836 2175.3 103.221C2171.72 99.7581 2178.78 88.6138 2178.78 88.6138C2178.78 88.6138 2190.55 95.5678 2189.17 100.242Z" stroke="#33508A"/>
<path d="M2258.86 138.128C2254.24 139.811 2247.54 133.9 2248.23 128.745C2248.88 123.807 2262.04 122.863 2262.04 122.863C2262.04 122.863 2263.44 136.461 2258.86 138.128Z" stroke="#33508A"/>
<path d="M2116.56 127.705C2121.42 126.965 2126.83 134.08 2125.14 138.999C2123.52 143.711 2110.44 142.045 2110.44 142.045C2110.44 142.045 2111.74 128.439 2116.56 127.705Z" stroke="#33508A"/>
<path d="M2046.5 93.6282C2049.19 97.7481 2044.95 105.615 2039.77 106.115C2034.82 106.594 2030.91 93.9918 2030.91 93.9918C2030.91 93.9918 2043.84 89.5461 2046.5 93.6282Z" stroke="#33508A"/>
<path d="M1892.17 100.242C1890.78 104.959 1882.04 106.836 1878.3 103.221C1874.72 99.7581 1881.78 88.6138 1881.78 88.6138C1881.78 88.6138 1893.55 95.5678 1892.17 100.242Z" stroke="#33508A"/>
<path d="M1961.86 138.128C1957.24 139.811 1950.54 133.9 1951.23 128.745C1951.88 123.807 1965.04 122.863 1965.04 122.863C1965.04 122.863 1966.44 136.461 1961.86 138.128Z" stroke="#33508A"/>
<path d="M1819.56 127.705C1824.42 126.965 1829.83 134.08 1828.14 138.999C1826.52 143.711 1813.44 142.045 1813.44 142.045C1813.44 142.045 1814.74 128.439 1819.56 127.705Z" stroke="#33508A"/>
<path d="M1749.5 93.6282C1752.19 97.7481 1747.95 105.615 1742.77 106.115C1737.82 106.594 1733.91 93.9918 1733.91 93.9918C1733.91 93.9918 1746.84 89.5461 1749.5 93.6282Z" stroke="#33508A"/>
<path d="M1378.17 95.242C1376.78 99.9594 1368.04 101.836 1364.3 98.2209C1360.72 94.7581 1367.78 83.6138 1367.78 83.6138C1367.78 83.6138 1379.55 90.5678 1378.17 95.242Z" stroke="#33508A"/>
<path d="M1409.17 134.242C1407.78 138.959 1399.04 140.836 1395.3 137.221C1391.72 133.758 1398.78 122.614 1398.78 122.614C1398.78 122.614 1410.55 129.568 1409.17 134.242Z" stroke="#33508A"/>
<path d="M1305.56 122.705C1310.42 121.965 1315.83 129.08 1314.14 133.999C1312.52 138.711 1299.44 137.045 1299.44 137.045C1299.44 137.045 1300.74 123.439 1305.56 122.705Z" stroke="#33508A"/>
<path d="M1235.5 88.6282C1238.19 92.7481 1233.95 100.615 1228.77 101.115C1223.82 101.594 1219.91 88.9918 1219.91 88.9918C1219.91 88.9918 1232.84 84.5461 1235.5 88.6282Z" stroke="#33508A"/>
<path d="M1595.17 95.242C1593.78 99.9594 1585.04 101.836 1581.3 98.2209C1577.72 94.7581 1584.78 83.6138 1584.78 83.6138C1584.78 83.6138 1596.55 90.5678 1595.17 95.242Z" stroke="#33508A"/>
<path d="M1664.86 133.128C1660.24 134.811 1653.54 128.9 1654.23 123.745C1654.88 118.807 1668.04 117.863 1668.04 117.863C1668.04 117.863 1669.44 131.461 1664.86 133.128Z" stroke="#33508A"/>
<path d="M1522.56 122.705C1527.42 121.965 1532.83 129.08 1531.14 133.999C1529.52 138.711 1516.44 137.045 1516.44 137.045C1516.44 137.045 1517.74 123.439 1522.56 122.705Z" stroke="#33508A"/>
<path d="M1452.5 88.6282C1455.19 92.7481 1450.95 100.615 1445.77 101.115C1440.82 101.594 1436.91 88.9918 1436.91 88.9918C1436.91 88.9918 1449.84 84.5461 1452.5 88.6282Z" stroke="#33508A"/>
<path d="M68.7247 159.408C63.862 160.149 58.4561 153.034 60.1439 148.115C61.7605 143.403 74.8475 145.068 74.8475 145.068C74.8475 145.068 73.5429 158.675 68.7247 159.408Z" stroke="#33508A"/>
<path d="M138.781 193.486C136.094 189.366 140.332 181.499 145.509 180.999C150.467 180.52 154.369 193.122 154.369 193.122C154.369 193.122 141.443 197.568 138.781 193.486Z" stroke="#33508A"/>
<path d="M293.113 191.872C294.505 187.154 303.242 185.278 306.98 188.893C310.561 192.356 303.5 203.5 303.5 203.5C303.5 203.5 291.733 196.546 293.113 191.872Z" stroke="#33508A"/>
<path d="M223.419 153.985C228.041 152.302 234.742 158.214 234.056 163.369C233.398 168.306 220.24 169.25 220.24 169.25C220.24 169.25 218.84 155.653 223.419 153.985Z" stroke="#33508A"/>
<path d="M365.725 164.408C360.862 165.149 355.456 158.034 357.144 153.115C358.76 148.403 371.847 150.068 371.847 150.068C371.847 150.068 370.543 163.675 365.725 164.408Z" stroke="#33508A"/>
<path d="M435.781 198.486C433.094 194.366 437.332 186.499 442.509 185.999C447.467 185.52 451.369 198.122 451.369 198.122C451.369 198.122 438.443 202.568 435.781 198.486Z" stroke="#33508A"/>
<path d="M590.113 191.872C591.505 187.154 600.242 185.278 603.98 188.893C607.561 192.356 600.5 203.5 600.5 203.5C600.5 203.5 588.733 196.546 590.113 191.872Z" stroke="#33508A"/>
<path d="M520.419 153.985C525.041 152.302 531.742 158.214 531.056 163.369C530.398 168.306 517.24 169.25 517.24 169.25C517.24 169.25 515.84 155.653 520.419 153.985Z" stroke="#33508A"/>
<path d="M662.725 164.408C657.862 165.149 652.456 158.034 654.144 153.115C655.76 148.403 668.847 150.068 668.847 150.068C668.847 150.068 667.543 163.675 662.725 164.408Z" stroke="#33508A"/>
<path d="M732.781 198.486C730.094 194.366 734.332 186.499 739.509 185.999C744.467 185.52 748.369 198.122 748.369 198.122C748.369 198.122 735.443 202.568 732.781 198.486Z" stroke="#33508A"/>
<path d="M1104.11 196.872C1105.51 192.154 1114.24 190.278 1117.98 193.893C1121.56 197.356 1114.5 208.5 1114.5 208.5C1114.5 208.5 1102.73 201.546 1104.11 196.872Z" stroke="#33508A"/>
<path d="M1073.11 157.872C1074.51 153.154 1083.24 151.278 1086.98 154.893C1090.56 158.356 1083.5 169.5 1083.5 169.5C1083.5 169.5 1071.73 162.546 1073.11 157.872Z" stroke="#33508A"/>
<path d="M1176.72 169.408C1171.86 170.149 1166.46 163.034 1168.14 158.115C1169.76 153.403 1182.85 155.068 1182.85 155.068C1182.85 155.068 1181.54 168.675 1176.72 169.408Z" stroke="#33508A"/>
<path d="M1246.78 203.486C1244.09 199.366 1248.33 191.499 1253.51 190.999C1258.47 190.52 1262.37 203.122 1262.37 203.122C1262.37 203.122 1249.44 207.568 1246.78 203.486Z" stroke="#33508A"/>
<path d="M887.113 196.872C888.505 192.154 897.242 190.278 900.98 193.893C904.561 197.356 897.5 208.5 897.5 208.5C897.5 208.5 885.733 201.546 887.113 196.872Z" stroke="#33508A"/>
<path d="M817.419 158.985C822.041 157.302 828.742 163.214 828.056 168.369C827.398 173.306 814.24 174.25 814.24 174.25C814.24 174.25 812.84 160.653 817.419 158.985Z" stroke="#33508A"/>
<path d="M959.725 169.408C954.862 170.149 949.456 163.034 951.144 158.115C952.76 153.403 965.847 155.068 965.847 155.068C965.847 155.068 964.543 168.675 959.725 169.408Z" stroke="#33508A"/>
<path d="M1029.78 203.486C1027.09 199.366 1031.33 191.499 1036.51 190.999C1041.47 190.52 1045.37 203.122 1045.37 203.122C1045.37 203.122 1032.44 207.568 1029.78 203.486Z" stroke="#33508A"/>
<path d="M954.171 232.242C952.778 236.959 944.041 238.836 940.303 235.221C936.723 231.758 943.783 220.614 943.783 220.614C943.783 220.614 955.551 227.568 954.171 232.242Z" stroke="#33508A"/>
<path d="M1023.86 270.128C1019.24 271.812 1012.54 265.9 1013.23 260.745C1013.88 255.808 1027.04 254.864 1027.04 254.864C1027.04 254.864 1028.44 268.461 1023.86 270.128Z" stroke="#33508A"/>
<path d="M881.558 259.705C886.421 258.965 891.827 266.08 890.139 270.999C888.523 275.711 875.436 274.045 875.436 274.045C875.436 274.045 876.74 260.439 881.558 259.705Z" stroke="#33508A"/>
<path d="M811.502 225.628C814.189 229.748 809.951 237.615 804.774 238.115C799.817 238.594 795.914 225.992 795.914 225.992C795.914 225.992 808.84 221.546 811.502 225.628Z" stroke="#33508A"/>
<path d="M657.171 227.242C655.778 231.959 647.041 233.836 643.303 230.221C639.723 226.758 646.783 215.614 646.783 215.614C646.783 215.614 658.551 222.568 657.171 227.242Z" stroke="#33508A"/>
<path d="M726.864 265.128C722.242 266.812 715.541 260.9 716.228 255.745C716.885 250.808 730.044 249.864 730.044 249.864C730.044 249.864 731.443 263.461 726.864 265.128Z" stroke="#33508A"/>
<path d="M584.558 254.705C589.421 253.965 594.827 261.08 593.139 265.999C591.523 270.711 578.436 269.045 578.436 269.045C578.436 269.045 579.74 255.439 584.558 254.705Z" stroke="#33508A"/>
<path d="M514.502 220.628C517.189 224.748 512.951 232.615 507.774 233.115C502.817 233.594 498.914 220.992 498.914 220.992C498.914 220.992 511.84 216.546 514.502 220.628Z" stroke="#33508A"/>
<path d="M360.171 227.242C358.778 231.959 350.041 233.836 346.303 230.221C342.723 226.758 349.783 215.614 349.783 215.614C349.783 215.614 361.551 222.568 360.171 227.242Z" stroke="#33508A"/>
<path d="M429.864 265.128C425.242 266.812 418.541 260.9 419.228 255.745C419.885 250.808 433.044 249.864 433.044 249.864C433.044 249.864 434.443 263.461 429.864 265.128Z" stroke="#33508A"/>
<path d="M287.558 254.705C292.421 253.965 297.827 261.08 296.139 265.999C294.523 270.711 281.436 269.045 281.436 269.045C281.436 269.045 282.74 255.439 287.558 254.705Z" stroke="#33508A"/>
<path d="M217.502 220.628C220.189 224.748 215.951 232.615 210.774 233.115C205.817 233.594 201.914 220.992 201.914 220.992C201.914 220.992 214.84 216.546 217.502 220.628Z" stroke="#33508A"/>
<path d="M63.1707 222.242C61.778 226.959 53.0414 228.836 49.3032 225.221C45.7227 221.758 52.7827 210.614 52.7827 210.614C52.7827 210.614 64.5506 217.568 63.1707 222.242Z" stroke="#33508A"/>
<path d="M132.864 260.128C128.242 261.812 121.541 255.9 122.228 250.745C122.885 245.808 136.044 244.864 136.044 244.864C136.044 244.864 137.443 258.461 132.864 260.128Z" stroke="#33508A"/>
<path d="M2327.17 246.242C2325.78 250.959 2317.04 252.836 2313.3 249.221C2309.72 245.758 2316.78 234.614 2316.78 234.614C2316.78 234.614 2328.55 241.568 2327.17 246.242Z" stroke="#33508A"/>
<path d="M2396.86 284.128C2392.24 285.812 2385.54 279.9 2386.23 274.745C2386.88 269.808 2400.04 268.864 2400.04 268.864C2400.04 268.864 2401.44 282.461 2396.86 284.128Z" stroke="#33508A"/>
<path d="M2254.56 273.705C2259.42 272.965 2264.83 280.08 2263.14 284.999C2261.52 289.711 2248.44 288.045 2248.44 288.045C2248.44 288.045 2249.74 274.439 2254.56 273.705Z" stroke="#33508A"/>
<path d="M2184.5 239.628C2187.19 243.748 2182.95 251.615 2177.77 252.115C2172.82 252.594 2168.91 239.992 2168.91 239.992C2168.91 239.992 2181.84 235.546 2184.5 239.628Z" stroke="#33508A"/>
<path d="M2030.17 241.242C2028.78 245.959 2020.04 247.836 2016.3 244.221C2012.72 240.758 2019.78 229.614 2019.78 229.614C2019.78 229.614 2031.55 236.568 2030.17 241.242Z" stroke="#33508A"/>
<path d="M2099.86 279.128C2095.24 280.812 2088.54 274.9 2089.23 269.745C2089.88 264.808 2103.04 263.864 2103.04 263.864C2103.04 263.864 2104.44 277.461 2099.86 279.128Z" stroke="#33508A"/>
<path d="M1957.56 268.705C1962.42 267.965 1967.83 275.08 1966.14 279.999C1964.52 284.711 1951.44 283.045 1951.44 283.045C1951.44 283.045 1952.74 269.439 1957.56 268.705Z" stroke="#33508A"/>
<path d="M1887.5 234.628C1890.19 238.748 1885.95 246.615 1880.77 247.115C1875.82 247.594 1871.91 234.992 1871.91 234.992C1871.91 234.992 1884.84 230.546 1887.5 234.628Z" stroke="#33508A"/>
<path d="M1733.17 241.242C1731.78 245.959 1723.04 247.836 1719.3 244.221C1715.72 240.758 1722.78 229.614 1722.78 229.614C1722.78 229.614 1734.55 236.568 1733.17 241.242Z" stroke="#33508A"/>
<path d="M1802.86 279.128C1798.24 280.812 1791.54 274.9 1792.23 269.745C1792.88 264.808 1806.04 263.864 1806.04 263.864C1806.04 263.864 1807.44 277.461 1802.86 279.128Z" stroke="#33508A"/>
<path d="M1660.56 268.705C1665.42 267.965 1670.83 275.08 1669.14 279.999C1667.52 284.711 1654.44 283.045 1654.44 283.045C1654.44 283.045 1655.74 269.439 1660.56 268.705Z" stroke="#33508A"/>
<path d="M1590.5 234.628C1593.19 238.748 1588.95 246.615 1583.77 247.115C1578.82 247.594 1574.91 234.992 1574.91 234.992C1574.91 234.992 1587.84 230.546 1590.5 234.628Z" stroke="#33508A"/>
<path d="M1219.17 236.242C1217.78 240.959 1209.04 242.836 1205.3 239.221C1201.72 235.758 1208.78 224.614 1208.78 224.614C1208.78 224.614 1220.55 231.568 1219.17 236.242Z" stroke="#33508A"/>
<path d="M1250.17 275.242C1248.78 279.959 1240.04 281.836 1236.3 278.221C1232.72 274.758 1239.78 263.614 1239.78 263.614C1239.78 263.614 1251.55 270.568 1250.17 275.242Z" stroke="#33508A"/>
<path d="M1146.56 263.705C1151.42 262.965 1156.83 270.08 1155.14 274.999C1153.52 279.711 1140.44 278.045 1140.44 278.045C1140.44 278.045 1141.74 264.439 1146.56 263.705Z" stroke="#33508A"/>
<path d="M1076.5 229.628C1079.19 233.748 1074.95 241.615 1069.77 242.115C1064.82 242.594 1060.91 229.992 1060.91 229.992C1060.91 229.992 1073.84 225.546 1076.5 229.628Z" stroke="#33508A"/>
<path d="M1436.17 236.242C1434.78 240.959 1426.04 242.836 1422.3 239.221C1418.72 235.758 1425.78 224.614 1425.78 224.614C1425.78 224.614 1437.55 231.568 1436.17 236.242Z" stroke="#33508A"/>
<path d="M1505.86 274.128C1501.24 275.812 1494.54 269.9 1495.23 264.745C1495.88 259.808 1509.04 258.864 1509.04 258.864C1509.04 258.864 1510.44 272.461 1505.86 274.128Z" stroke="#33508A"/>
<path d="M1363.56 263.705C1368.42 262.965 1373.83 270.08 1372.14 274.999C1370.52 279.711 1357.44 278.045 1357.44 278.045C1357.44 278.045 1358.74 264.439 1363.56 263.705Z" stroke="#33508A"/>
<path d="M1293.5 229.628C1296.19 233.748 1291.95 241.615 1286.77 242.115C1281.82 242.594 1277.91 229.992 1277.91 229.992C1277.91 229.992 1290.84 225.546 1293.5 229.628Z" stroke="#33508A"/>
<path d="M61.7249 296.408C56.8622 297.149 51.4562 290.034 53.144 285.115C54.7606 280.403 67.8476 282.068 67.8476 282.068C67.8476 282.068 66.543 295.675 61.7249 296.408Z" stroke="#33508A"/>
<path d="M131.781 330.486C129.094 326.366 133.333 318.499 138.509 317.999C143.467 317.52 147.369 330.122 147.369 330.122C147.369 330.122 134.443 334.568 131.781 330.486Z" stroke="#33508A"/>
<path d="M286.113 328.872C287.505 324.154 296.242 322.278 299.98 325.893C303.561 329.356 296.501 340.5 296.501 340.5C296.501 340.5 284.733 333.546 286.113 328.872Z" stroke="#33508A"/>
<path d="M216.419 290.985C221.041 289.302 227.742 295.214 227.056 300.369C226.398 305.306 213.24 306.25 213.24 306.25C213.24 306.25 211.84 292.653 216.419 290.985Z" stroke="#33508A"/>
<path d="M358.725 301.408C353.862 302.149 348.456 295.034 350.144 290.115C351.761 285.403 364.848 287.068 364.848 287.068C364.848 287.068 363.543 300.675 358.725 301.408Z" stroke="#33508A"/>
<path d="M428.781 335.486C426.094 331.366 430.333 323.499 435.509 322.999C440.467 322.52 444.369 335.122 444.369 335.122C444.369 335.122 431.443 339.568 428.781 335.486Z" stroke="#33508A"/>
<path d="M583.113 328.872C584.505 324.154 593.242 322.278 596.98 325.893C600.561 329.356 593.501 340.5 593.501 340.5C593.501 340.5 581.733 333.546 583.113 328.872Z" stroke="#33508A"/>
<path d="M513.419 290.985C518.041 289.302 524.742 295.214 524.056 300.369C523.398 305.306 510.24 306.25 510.24 306.25C510.24 306.25 508.84 292.653 513.419 290.985Z" stroke="#33508A"/>
<path d="M655.725 301.408C650.862 302.149 645.456 295.034 647.144 290.115C648.761 285.403 661.848 287.068 661.848 287.068C661.848 287.068 660.543 300.675 655.725 301.408Z" stroke="#33508A"/>
<path d="M725.781 335.486C723.094 331.366 727.333 323.499 732.509 322.999C737.467 322.52 741.369 335.122 741.369 335.122C741.369 335.122 728.443 339.568 725.781 335.486Z" stroke="#33508A"/>
<path d="M1097.11 333.872C1098.51 329.154 1107.24 327.278 1110.98 330.893C1114.56 334.356 1107.5 345.5 1107.5 345.5C1107.5 345.5 1095.73 338.546 1097.11 333.872Z" stroke="#33508A"/>
<path d="M1066.11 294.872C1067.51 290.154 1076.24 288.278 1079.98 291.893C1083.56 295.356 1076.5 306.5 1076.5 306.5C1076.5 306.5 1064.73 299.546 1066.11 294.872Z" stroke="#33508A"/>
<path d="M1169.72 306.408C1164.86 307.149 1159.46 300.034 1161.14 295.115C1162.76 290.403 1175.85 292.068 1175.85 292.068C1175.85 292.068 1174.54 305.675 1169.72 306.408Z" stroke="#33508A"/>
<path d="M1239.78 340.486C1237.09 336.366 1241.33 328.499 1246.51 327.999C1251.47 327.52 1255.37 340.122 1255.37 340.122C1255.37 340.122 1242.44 344.568 1239.78 340.486Z" stroke="#33508A"/>
<path d="M880.113 333.872C881.505 329.154 890.242 327.278 893.98 330.893C897.561 334.356 890.501 345.5 890.501 345.5C890.501 345.5 878.733 338.546 880.113 333.872Z" stroke="#33508A"/>
<path d="M810.419 295.985C815.041 294.302 821.742 300.214 821.056 305.369C820.398 310.306 807.24 311.25 807.24 311.25C807.24 311.25 805.84 297.653 810.419 295.985Z" stroke="#33508A"/>
<path d="M952.725 306.408C947.862 307.149 942.456 300.034 944.144 295.115C945.761 290.403 958.848 292.068 958.848 292.068C958.848 292.068 957.543 305.675 952.725 306.408Z" stroke="#33508A"/>
<path d="M1022.78 340.486C1020.09 336.366 1024.33 328.499 1029.51 327.999C1034.47 327.52 1038.37 340.122 1038.37 340.122C1038.37 340.122 1025.44 344.568 1022.78 340.486Z" stroke="#33508A"/>
<path d="M962.171 369.242C960.778 373.959 952.042 375.836 948.303 372.221C944.723 368.758 951.783 357.614 951.783 357.614C951.783 357.614 963.551 364.568 962.171 369.242Z" stroke="#33508A"/>
<path d="M1031.86 407.128C1027.24 408.812 1020.54 402.9 1021.23 397.745C1021.89 392.808 1035.04 391.864 1035.04 391.864C1035.04 391.864 1036.44 405.461 1031.86 407.128Z" stroke="#33508A"/>
<path d="M889.559 396.705C894.421 395.965 899.827 403.08 898.139 407.999C896.523 412.711 883.436 411.045 883.436 411.045C883.436 411.045 884.74 397.439 889.559 396.705Z" stroke="#33508A"/>
<path d="M819.502 362.628C822.19 366.748 817.951 374.615 812.775 375.115C807.817 375.594 803.914 362.992 803.914 362.992C803.914 362.992 816.84 358.546 819.502 362.628Z" stroke="#33508A"/>
<path d="M665.171 364.242C663.778 368.959 655.042 370.836 651.303 367.221C647.723 363.758 654.783 352.614 654.783 352.614C654.783 352.614 666.551 359.568 665.171 364.242Z" stroke="#33508A"/>
<path d="M734.864 402.128C730.242 403.812 723.541 397.9 724.228 392.745C724.885 387.808 738.044 386.864 738.044 386.864C738.044 386.864 739.443 400.461 734.864 402.128Z" stroke="#33508A"/>
<path d="M592.559 391.705C597.421 390.965 602.827 398.08 601.139 402.999C599.523 407.711 586.436 406.045 586.436 406.045C586.436 406.045 587.74 392.439 592.559 391.705Z" stroke="#33508A"/>
<path d="M522.502 357.628C525.19 361.748 520.951 369.615 515.775 370.115C510.817 370.594 506.914 357.992 506.914 357.992C506.914 357.992 519.84 353.546 522.502 357.628Z" stroke="#33508A"/>
<path d="M368.171 364.242C366.778 368.959 358.042 370.836 354.303 367.221C350.723 363.758 357.783 352.614 357.783 352.614C357.783 352.614 369.551 359.568 368.171 364.242Z" stroke="#33508A"/>
<path d="M437.864 402.128C433.242 403.812 426.541 397.9 427.228 392.745C427.885 387.808 441.044 386.864 441.044 386.864C441.044 386.864 442.443 400.461 437.864 402.128Z" stroke="#33508A"/>
<path d="M295.559 391.705C300.421 390.965 305.827 398.08 304.139 402.999C302.523 407.711 289.436 406.045 289.436 406.045C289.436 406.045 290.74 392.439 295.559 391.705Z" stroke="#33508A"/>
<path d="M225.502 357.628C228.19 361.748 223.951 369.615 218.775 370.115C213.817 370.594 209.914 357.992 209.914 357.992C209.914 357.992 222.84 353.546 225.502 357.628Z" stroke="#33508A"/>
<path d="M71.1708 359.242C69.7781 363.959 61.0416 365.836 57.3033 362.221C53.7228 358.758 60.7828 347.614 60.7828 347.614C60.7828 347.614 72.5507 354.568 71.1708 359.242Z" stroke="#33508A"/>
<path d="M140.864 397.128C136.242 398.812 129.541 392.9 130.228 387.745C130.885 382.808 144.044 381.864 144.044 381.864C144.044 381.864 145.443 395.461 140.864 397.128Z" stroke="#33508A"/>
<path d="M2335.17 383.242C2333.78 387.959 2325.04 389.836 2321.3 386.221C2317.72 382.758 2324.78 371.614 2324.78 371.614C2324.78 371.614 2336.55 378.568 2335.17 383.242Z" stroke="#33508A"/>
<path d="M2404.86 421.128C2400.24 422.812 2393.54 416.9 2394.23 411.745C2394.88 406.808 2408.04 405.864 2408.04 405.864C2408.04 405.864 2409.44 419.461 2404.86 421.128Z" stroke="#33508A"/>
<path d="M2262.56 410.705C2267.42 409.965 2272.83 417.08 2271.14 421.999C2269.52 426.711 2256.44 425.045 2256.44 425.045C2256.44 425.045 2257.74 411.439 2262.56 410.705Z" stroke="#33508A"/>
<path d="M2192.5 376.628C2195.19 380.748 2190.95 388.615 2185.77 389.115C2180.82 389.594 2176.91 376.992 2176.91 376.992C2176.91 376.992 2189.84 372.546 2192.5 376.628Z" stroke="#33508A"/>
<path d="M2038.17 378.242C2036.78 382.959 2028.04 384.836 2024.3 381.221C2020.72 377.758 2027.78 366.614 2027.78 366.614C2027.78 366.614 2039.55 373.568 2038.17 378.242Z" stroke="#33508A"/>
<path d="M2107.86 416.128C2103.24 417.812 2096.54 411.9 2097.23 406.745C2097.88 401.808 2111.04 400.864 2111.04 400.864C2111.04 400.864 2112.44 414.461 2107.86 416.128Z" stroke="#33508A"/>
<path d="M1965.56 405.705C1970.42 404.965 1975.83 412.08 1974.14 416.999C1972.52 421.711 1959.44 420.045 1959.44 420.045C1959.44 420.045 1960.74 406.439 1965.56 405.705Z" stroke="#33508A"/>
<path d="M1895.5 371.628C1898.19 375.748 1893.95 383.615 1888.77 384.115C1883.82 384.594 1879.91 371.992 1879.91 371.992C1879.91 371.992 1892.84 367.546 1895.5 371.628Z" stroke="#33508A"/>
<path d="M1741.17 378.242C1739.78 382.959 1731.04 384.836 1727.3 381.221C1723.72 377.758 1730.78 366.614 1730.78 366.614C1730.78 366.614 1742.55 373.568 1741.17 378.242Z" stroke="#33508A"/>
<path d="M1810.86 416.128C1806.24 417.812 1799.54 411.9 1800.23 406.745C1800.88 401.808 1814.04 400.864 1814.04 400.864C1814.04 400.864 1815.44 414.461 1810.86 416.128Z" stroke="#33508A"/>
<path d="M1668.56 405.705C1673.42 404.965 1678.83 412.08 1677.14 416.999C1675.52 421.711 1662.44 420.045 1662.44 420.045C1662.44 420.045 1663.74 406.439 1668.56 405.705Z" stroke="#33508A"/>
<path d="M1598.5 371.628C1601.19 375.748 1596.95 383.615 1591.77 384.115C1586.82 384.594 1582.91 371.992 1582.91 371.992C1582.91 371.992 1595.84 367.546 1598.5 371.628Z" stroke="#33508A"/>
<path d="M1227.17 373.242C1225.78 377.959 1217.04 379.836 1213.3 376.221C1209.72 372.758 1216.78 361.614 1216.78 361.614C1216.78 361.614 1228.55 368.568 1227.17 373.242Z" stroke="#33508A"/>
<path d="M1258.17 412.242C1256.78 416.959 1248.04 418.836 1244.3 415.221C1240.72 411.758 1247.78 400.614 1247.78 400.614C1247.78 400.614 1259.55 407.568 1258.17 412.242Z" stroke="#33508A"/>
<path d="M1154.56 400.705C1159.42 399.965 1164.83 407.08 1163.14 411.999C1161.52 416.711 1148.44 415.045 1148.44 415.045C1148.44 415.045 1149.74 401.439 1154.56 400.705Z" stroke="#33508A"/>
<path d="M1084.5 366.628C1087.19 370.748 1082.95 378.615 1077.77 379.115C1072.82 379.594 1068.91 366.992 1068.91 366.992C1068.91 366.992 1081.84 362.546 1084.5 366.628Z" stroke="#33508A"/>
<path d="M1444.17 373.242C1442.78 377.959 1434.04 379.836 1430.3 376.221C1426.72 372.758 1433.78 361.614 1433.78 361.614C1433.78 361.614 1445.55 368.568 1444.17 373.242Z" stroke="#33508A"/>
<path d="M1513.86 411.128C1509.24 412.812 1502.54 406.9 1503.23 401.745C1503.88 396.808 1517.04 395.864 1517.04 395.864C1517.04 395.864 1518.44 409.461 1513.86 411.128Z" stroke="#33508A"/>
<path d="M1371.56 400.705C1376.42 399.965 1381.83 407.08 1380.14 411.999C1378.52 416.711 1365.44 415.045 1365.44 415.045C1365.44 415.045 1366.74 401.439 1371.56 400.705Z" stroke="#33508A"/>
<path d="M1301.5 366.628C1304.19 370.748 1299.95 378.615 1294.77 379.115C1289.82 379.594 1285.91 366.992 1285.91 366.992C1285.91 366.992 1298.84 362.546 1301.5 366.628Z" stroke="#33508A"/>
<path d="M142.113 469.872C143.505 465.154 152.242 463.278 155.98 466.893C159.561 470.356 152.501 481.5 152.501 481.5C152.501 481.5 140.733 474.546 142.113 469.872Z" stroke="#33508A"/>
<path d="M72.4194 431.985C77.0412 430.302 83.7421 436.214 83.0558 441.369C82.3984 446.306 69.2397 447.25 69.2397 447.25C69.2397 447.25 67.84 433.653 72.4194 431.985Z" stroke="#33508A"/>
<path d="M214.725 442.408C209.862 443.149 204.456 436.034 206.144 431.115C207.761 426.403 220.848 428.068 220.848 428.068C220.848 428.068 219.543 441.675 214.725 442.408Z" stroke="#33508A"/>
<path d="M284.781 476.486C282.094 472.366 286.333 464.499 291.509 463.999C296.467 463.52 300.369 476.122 300.369 476.122C300.369 476.122 287.443 480.568 284.781 476.486Z" stroke="#33508A"/>
<path d="M439.113 469.872C440.505 465.154 449.242 463.278 452.98 466.893C456.561 470.356 449.501 481.5 449.501 481.5C449.501 481.5 437.733 474.546 439.113 469.872Z" stroke="#33508A"/>
<path d="M369.419 431.985C374.041 430.302 380.742 436.214 380.056 441.369C379.398 446.306 366.24 447.25 366.24 447.25C366.24 447.25 364.84 433.653 369.419 431.985Z" stroke="#33508A"/>
<path d="M511.725 442.408C506.862 443.149 501.456 436.034 503.144 431.115C504.761 426.403 517.848 428.068 517.848 428.068C517.848 428.068 516.543 441.675 511.725 442.408Z" stroke="#33508A"/>
<path d="M581.781 476.486C579.094 472.366 583.333 464.499 588.509 463.999C593.467 463.52 597.369 476.122 597.369 476.122C597.369 476.122 584.443 480.568 581.781 476.486Z" stroke="#33508A"/>
<path d="M953.113 474.872C954.505 470.154 963.242 468.278 966.98 471.893C970.561 475.356 963.501 486.5 963.501 486.5C963.501 486.5 951.733 479.546 953.113 474.872Z" stroke="#33508A"/>
<path d="M922.113 435.872C923.505 431.154 932.242 429.278 935.98 432.893C939.561 436.356 932.501 447.5 932.501 447.5C932.501 447.5 920.733 440.546 922.113 435.872Z" stroke="#33508A"/>
<path d="M1025.72 447.408C1020.86 448.149 1015.46 441.034 1017.14 436.115C1018.76 431.403 1031.85 433.068 1031.85 433.068C1031.85 433.068 1030.54 446.675 1025.72 447.408Z" stroke="#33508A"/>
<path d="M1095.78 481.486C1093.09 477.366 1097.33 469.499 1102.51 468.999C1107.47 468.52 1111.37 481.122 1111.37 481.122C1111.37 481.122 1098.44 485.568 1095.78 481.486Z" stroke="#33508A"/>
<path d="M736.113 474.872C737.505 470.154 746.242 468.278 749.98 471.893C753.561 475.356 746.501 486.5 746.501 486.5C746.501 486.5 734.733 479.546 736.113 474.872Z" stroke="#33508A"/>
<path d="M666.419 436.985C671.041 435.302 677.742 441.214 677.056 446.369C676.398 451.306 663.24 452.25 663.24 452.25C663.24 452.25 661.84 438.653 666.419 436.985Z" stroke="#33508A"/>
<path d="M808.725 447.408C803.862 448.149 798.456 441.034 800.144 436.115C801.761 431.403 814.848 433.068 814.848 433.068C814.848 433.068 813.543 446.675 808.725 447.408Z" stroke="#33508A"/>
<path d="M878.781 481.486C876.094 477.366 880.333 469.499 885.509 468.999C890.467 468.52 894.369 481.122 894.369 481.122C894.369 481.122 881.443 485.568 878.781 481.486Z" stroke="#33508A"/>
<path d="M803.171 510.242C801.778 514.959 793.042 516.836 789.303 513.221C785.723 509.758 792.783 498.614 792.783 498.614C792.783 498.614 804.551 505.568 803.171 510.242Z" stroke="#33508A"/>
<path d="M872.864 548.128C868.242 549.812 861.541 543.9 862.228 538.745C862.885 533.808 876.044 532.864 876.044 532.864C876.044 532.864 877.443 546.461 872.864 548.128Z" stroke="#33508A"/>
<path d="M730.559 537.705C735.421 536.965 740.827 544.08 739.139 548.999C737.523 553.711 724.436 552.045 724.436 552.045C724.436 552.045 725.74 538.439 730.559 537.705Z" stroke="#33508A"/>
<path d="M660.502 503.628C663.19 507.748 658.951 515.615 653.775 516.115C648.817 516.594 644.914 503.992 644.914 503.992C644.914 503.992 657.84 499.546 660.502 503.628Z" stroke="#33508A"/>
<path d="M506.171 505.242C504.778 509.959 496.042 511.836 492.303 508.221C488.723 504.758 495.783 493.614 495.783 493.614C495.783 493.614 507.551 500.568 506.171 505.242Z" stroke="#33508A"/>
<path d="M575.864 543.128C571.242 544.812 564.541 538.9 565.228 533.745C565.885 528.808 579.044 527.864 579.044 527.864C579.044 527.864 580.443 541.461 575.864 543.128Z" stroke="#33508A"/>
<path d="M433.559 532.705C438.421 531.965 443.827 539.08 442.139 543.999C440.523 548.711 427.436 547.045 427.436 547.045C427.436 547.045 428.74 533.439 433.559 532.705Z" stroke="#33508A"/>
<path d="M363.502 498.628C366.19 502.748 361.951 510.615 356.775 511.115C351.817 511.594 347.914 498.992 347.914 498.992C347.914 498.992 360.84 494.546 363.502 498.628Z" stroke="#33508A"/>
<path d="M209.171 505.242C207.778 509.959 199.042 511.836 195.303 508.221C191.723 504.758 198.783 493.614 198.783 493.614C198.783 493.614 210.551 500.568 209.171 505.242Z" stroke="#33508A"/>
<path d="M278.864 543.128C274.242 544.812 267.541 538.9 268.228 533.745C268.885 528.808 282.044 527.864 282.044 527.864C282.044 527.864 283.443 541.461 278.864 543.128Z" stroke="#33508A"/>
<path d="M136.559 532.705C141.421 531.965 146.827 539.08 145.139 543.999C143.523 548.711 130.436 547.045 130.436 547.045C130.436 547.045 131.74 533.439 136.559 532.705Z" stroke="#33508A"/>
<path d="M66.5025 498.628C69.1895 502.748 64.9509 510.615 59.7746 511.115C54.8166 511.594 50.9142 498.992 50.9142 498.992C50.9142 498.992 63.84 494.546 66.5025 498.628Z" stroke="#33508A"/>
<path d="M2176.17 524.242C2174.78 528.959 2166.04 530.836 2162.3 527.221C2158.72 523.758 2165.78 512.614 2165.78 512.614C2165.78 512.614 2177.55 519.568 2176.17 524.242Z" stroke="#33508A"/>
<path d="M2245.86 562.128C2241.24 563.812 2234.54 557.9 2235.23 552.745C2235.88 547.808 2249.04 546.864 2249.04 546.864C2249.04 546.864 2250.44 560.461 2245.86 562.128Z" stroke="#33508A"/>
<path d="M2103.56 551.705C2108.42 550.965 2113.83 558.08 2112.14 562.999C2110.52 567.711 2097.44 566.045 2097.44 566.045C2097.44 566.045 2098.74 552.439 2103.56 551.705Z" stroke="#33508A"/>
<path d="M2033.5 517.628C2036.19 521.748 2031.95 529.615 2026.77 530.115C2021.82 530.594 2017.91 517.992 2017.91 517.992C2017.91 517.992 2030.84 513.546 2033.5 517.628Z" stroke="#33508A"/>
<path d="M1879.17 519.242C1877.78 523.959 1869.04 525.836 1865.3 522.221C1861.72 518.758 1868.78 507.614 1868.78 507.614C1868.78 507.614 1880.55 514.568 1879.17 519.242Z" stroke="#33508A"/>
<path d="M1948.86 557.128C1944.24 558.812 1937.54 552.9 1938.23 547.745C1938.88 542.808 1952.04 541.864 1952.04 541.864C1952.04 541.864 1953.44 555.461 1948.86 557.128Z" stroke="#33508A"/>
<path d="M1806.56 546.705C1811.42 545.965 1816.83 553.08 1815.14 557.999C1813.52 562.711 1800.44 561.045 1800.44 561.045C1800.44 561.045 1801.74 547.439 1806.56 546.705Z" stroke="#33508A"/>
<path d="M1736.5 512.628C1739.19 516.748 1734.95 524.615 1729.77 525.115C1724.82 525.594 1720.91 512.992 1720.91 512.992C1720.91 512.992 1733.84 508.546 1736.5 512.628Z" stroke="#33508A"/>
<path d="M1582.17 519.242C1580.78 523.959 1572.04 525.836 1568.3 522.221C1564.72 518.758 1571.78 507.614 1571.78 507.614C1571.78 507.614 1583.55 514.568 1582.17 519.242Z" stroke="#33508A"/>
<path d="M1651.86 557.128C1647.24 558.812 1640.54 552.9 1641.23 547.745C1641.88 542.808 1655.04 541.864 1655.04 541.864C1655.04 541.864 1656.44 555.461 1651.86 557.128Z" stroke="#33508A"/>
<path d="M1509.56 546.705C1514.42 545.965 1519.83 553.08 1518.14 557.999C1516.52 562.711 1503.44 561.045 1503.44 561.045C1503.44 561.045 1504.74 547.439 1509.56 546.705Z" stroke="#33508A"/>
<path d="M1439.5 512.628C1442.19 516.748 1437.95 524.615 1432.77 525.115C1427.82 525.594 1423.91 512.992 1423.91 512.992C1423.91 512.992 1436.84 508.546 1439.5 512.628Z" stroke="#33508A"/>
<path d="M1068.17 514.242C1066.78 518.959 1058.04 520.836 1054.3 517.221C1050.72 513.758 1057.78 502.614 1057.78 502.614C1057.78 502.614 1069.55 509.568 1068.17 514.242Z" stroke="#33508A"/>
<path d="M1099.17 553.242C1097.78 557.959 1089.04 559.836 1085.3 556.221C1081.72 552.758 1088.78 541.614 1088.78 541.614C1088.78 541.614 1100.55 548.568 1099.17 553.242Z" stroke="#33508A"/>
<path d="M995.558 541.705C1000.42 540.965 1005.83 548.08 1004.14 552.999C1002.52 557.711 989.436 556.045 989.436 556.045C989.436 556.045 990.74 542.439 995.558 541.705Z" stroke="#33508A"/>
<path d="M925.502 507.628C928.189 511.748 923.951 519.615 918.774 520.115C913.817 520.594 909.914 507.992 909.914 507.992C909.914 507.992 922.84 503.546 925.502 507.628Z" stroke="#33508A"/>
<path d="M1285.17 514.242C1283.78 518.959 1275.04 520.836 1271.3 517.221C1267.72 513.758 1274.78 502.614 1274.78 502.614C1274.78 502.614 1286.55 509.568 1285.17 514.242Z" stroke="#33508A"/>
<path d="M1354.86 552.128C1350.24 553.812 1343.54 547.9 1344.23 542.745C1344.88 537.808 1358.04 536.864 1358.04 536.864C1358.04 536.864 1359.44 550.461 1354.86 552.128Z" stroke="#33508A"/>
<path d="M1212.56 541.705C1217.42 540.965 1222.83 548.08 1221.14 552.999C1219.52 557.711 1206.44 556.045 1206.44 556.045C1206.44 556.045 1207.74 542.439 1212.56 541.705Z" stroke="#33508A"/>
<path d="M1142.5 507.628C1145.19 511.748 1140.95 519.615 1135.77 520.115C1130.82 520.594 1126.91 507.992 1126.91 507.992C1126.91 507.992 1139.84 503.546 1142.5 507.628Z" stroke="#33508A"/>
</g>
<path d="M3405.14 1140.04H4947.27" stroke="black"/>
<path d="M3110.48 1160.77L3110.11 1160.42L3109.98 1160.57V1160.77V1171.04V1171.54H3110.48H4952.62H4953.12V1171.04V728.135V727.625L4952.61 727.635L4952.62 728.135C4952.61 727.635 4952.61 727.635 4952.61 727.635L4952.6 727.635L4952.57 727.635L4952.46 727.638L4952 727.646C4951.59 727.653 4950.97 727.663 4950.16 727.675C4948.54 727.7 4946.13 727.732 4942.97 727.765C4936.65 727.83 4927.33 727.896 4915.34 727.898C4891.35 727.901 4856.66 727.648 4813.87 726.622C4728.29 724.572 4610.3 719.431 4480.67 707.073C4157.03 676.222 3886.96 659.308 3647.25 763.581C3508.87 823.776 3374.59 922.993 3274.91 1007.15C3225.07 1049.22 3183.87 1087.54 3155.13 1115.34C3140.76 1129.24 3129.51 1140.51 3121.85 1148.3C3118.02 1152.2 3115.08 1155.23 3113.11 1157.29C3112.12 1158.31 3111.37 1159.1 3110.87 1159.62C3110.62 1159.89 3110.43 1160.09 3110.3 1160.22L3110.16 1160.37L3110.13 1160.41L3110.12 1160.42C3110.12 1160.42 3110.11 1160.42 3110.48 1160.77Z" fill="#FEC3DD" stroke="#FEC3DD"/>
<path d="M676.322 312.178C342.866 305.706 61 121.462 61 121.462V0H1608.86C1608.86 0 1087.77 320.164 676.322 312.178Z" fill="#3EB9FF"/>
<defs>
<filter id="filter0_d_1_4493" x="0.109375" y="346.516" width="5013.78" height="956.96" filterUnits="userSpaceOnUse" color-interpolation-filters="sRGB">
<feFlood flood-opacity="0" result="BackgroundImageFix"/>
<feColorMatrix in="SourceAlpha" type="matrix" values="0 0 0 0 0 0 0 0 0 0 0 0 0 0 0 0 0 0 127 0" result="hardAlpha"/>
<feMorphology radius="20" operator="erode" in="SourceAlpha" result="effect1_dropShadow_1_4493"/>
<feOffset dy="60"/>
<feGaussianBlur stdDeviation="50"/>
<feComposite in2="hardAlpha" operator="out"/>
<feColorMatrix type="matrix" values="0 0 0 0 0.133333 0 0 0 0 0.129412 0 0 0 0 0.580392 0 0 0 0.05 0"/>
<feBlend mode="normal" in2="BackgroundImageFix" result="effect1_dropShadow_1_4493"/>
<feBlend mode="normal" in="SourceGraphic" in2="effect1_dropShadow_1_4493" result="shape"/>
</filter>
<clipPath id="clip0_1_4493">
<rect width="4892" height="1172" fill="white" transform="translate(61)"/>
</clipPath>
</defs>
</svg>
