<svg width="1430" height="686" viewBox="0 0 1430 686" fill="none" xmlns="http://www.w3.org/2000/svg">
<g filter="url(#filter0_d_1_4493)">
<rect x="80" y="172" width="1270" height="374" rx="24" fill="#222194"/>
</g>
<rect x="75" width="1280" height="550" fill="#222194"/>
<g clip-path="url(#clip0_1_4493)">
<rect width="1280" height="550" transform="translate(75)" fill="#222194"/>
<path d="M154.113 45.8718C155.505 41.1543 164.242 39.2776 167.98 42.8929C171.561 46.3556 164.5 57.5 164.5 57.5C164.5 57.5 152.733 50.546 154.113 45.8718Z" stroke="#33508A"/>
<path d="M84.4193 7.98547C89.041 6.30233 95.742 12.2139 95.0557 17.3689C94.3983 22.3063 81.2396 23.2503 81.2396 23.2503C81.2396 23.2503 79.8398 9.65319 84.4193 7.98547Z" stroke="#33508A"/>
<path d="M226.725 18.4084C221.862 19.1487 216.456 12.0335 218.144 7.11455C219.76 2.40317 232.847 4.06833 232.847 4.06833C232.847 4.06833 231.543 17.6749 226.725 18.4084Z" stroke="#33508A"/>
<path d="M296.781 52.4856C294.094 48.3657 298.332 40.499 303.509 39.9989C308.467 39.5199 312.369 52.122 312.369 52.122C312.369 52.122 299.443 56.5677 296.781 52.4856Z" stroke="#33508A"/>
<path d="M451.113 50.8718C452.505 46.1543 461.242 44.2776 464.98 47.8929C468.561 51.3556 461.5 62.5 461.5 62.5C461.5 62.5 449.733 55.546 451.113 50.8718Z" stroke="#33508A"/>
<path d="M381.419 12.9855C386.041 11.3023 392.742 17.2139 392.056 22.3689C391.398 27.3063 378.24 28.2503 378.24 28.2503C378.24 28.2503 376.84 14.6532 381.419 12.9855Z" stroke="#33508A"/>
<path d="M523.725 23.4084C518.862 24.1487 513.456 17.0335 515.144 12.1146C516.76 7.40317 529.847 9.06833 529.847 9.06833C529.847 9.06833 528.543 22.6749 523.725 23.4084Z" stroke="#33508A"/>
<path d="M593.781 57.4856C591.094 53.3657 595.332 45.499 600.509 44.9989C605.467 44.5199 609.369 57.122 609.369 57.122C609.369 57.122 596.443 61.5677 593.781 57.4856Z" stroke="#33508A"/>
<path d="M748.113 50.8718C749.505 46.1543 758.242 44.2776 761.98 47.8929C765.561 51.3556 758.5 62.5 758.5 62.5C758.5 62.5 746.733 55.546 748.113 50.8718Z" stroke="#33508A"/>
<path d="M678.419 12.9855C683.041 11.3023 689.742 17.2139 689.056 22.3689C688.398 27.3063 675.24 28.2503 675.24 28.2503C675.24 28.2503 673.84 14.6532 678.419 12.9855Z" stroke="#33508A"/>
<path d="M820.725 23.4084C815.862 24.1487 810.456 17.0335 812.144 12.1146C813.76 7.40317 826.847 9.06833 826.847 9.06833C826.847 9.06833 825.543 22.6749 820.725 23.4084Z" stroke="#33508A"/>
<path d="M890.781 57.4856C888.094 53.3657 892.332 45.499 897.509 44.9989C902.467 44.5199 906.369 57.122 906.369 57.122C906.369 57.122 893.443 61.5677 890.781 57.4856Z" stroke="#33508A"/>
<path d="M1262.11 55.8718C1263.51 51.1543 1272.24 49.2776 1275.98 52.8929C1279.56 56.3556 1272.5 67.5 1272.5 67.5C1272.5 67.5 1260.73 60.546 1262.11 55.8718Z" stroke="#33508A"/>
<path d="M1231.11 16.8718C1232.51 12.1543 1241.24 10.2776 1244.98 13.8929C1248.56 17.3556 1241.5 28.5 1241.5 28.5C1241.5 28.5 1229.73 21.546 1231.11 16.8718Z" stroke="#33508A"/>
<path d="M1334.72 28.4084C1329.86 29.1487 1324.46 22.0335 1326.14 17.1146C1327.76 12.4032 1340.85 14.0683 1340.85 14.0683C1340.85 14.0683 1339.54 27.6749 1334.72 28.4084Z" stroke="#33508A"/>
<path d="M1045.11 55.8718C1046.51 51.1543 1055.24 49.2776 1058.98 52.8929C1062.56 56.3556 1055.5 67.5 1055.5 67.5C1055.5 67.5 1043.73 60.546 1045.11 55.8718Z" stroke="#33508A"/>
<path d="M975.419 17.9855C980.041 16.3023 986.742 22.2139 986.056 27.3689C985.398 32.3063 972.24 33.2503 972.24 33.2503C972.24 33.2503 970.84 19.6532 975.419 17.9855Z" stroke="#33508A"/>
<path d="M1117.72 28.4084C1112.86 29.1487 1107.46 22.0335 1109.14 17.1146C1110.76 12.4032 1123.85 14.0683 1123.85 14.0683C1123.85 14.0683 1122.54 27.6749 1117.72 28.4084Z" stroke="#33508A"/>
<path d="M1187.78 62.4856C1185.09 58.3657 1189.33 50.499 1194.51 49.9989C1199.47 49.5199 1203.37 62.122 1203.37 62.122C1203.37 62.122 1190.44 66.5677 1187.78 62.4856Z" stroke="#33508A"/>
<path d="M1127.17 91.242C1125.78 95.9595 1117.04 97.8362 1113.3 94.2209C1109.72 90.7582 1116.78 79.6138 1116.78 79.6138C1116.78 79.6138 1128.55 86.5678 1127.17 91.242Z" stroke="#33508A"/>
<path d="M1196.86 129.128C1192.24 130.812 1185.54 124.9 1186.23 119.745C1186.88 114.808 1200.04 113.864 1200.04 113.864C1200.04 113.864 1201.44 127.461 1196.86 129.128Z" stroke="#33508A"/>
<path d="M1054.56 118.705C1059.42 117.965 1064.83 125.08 1063.14 129.999C1061.52 134.711 1048.44 133.045 1048.44 133.045C1048.44 133.045 1049.74 119.439 1054.56 118.705Z" stroke="#33508A"/>
<path d="M984.502 84.6282C987.189 88.7481 982.951 96.6147 977.774 97.1149C972.817 97.5939 968.914 84.9918 968.914 84.9918C968.914 84.9918 981.84 80.5461 984.502 84.6282Z" stroke="#33508A"/>
<path d="M830.171 86.242C828.778 90.9595 820.041 92.8362 816.303 89.2209C812.723 85.7582 819.783 74.6138 819.783 74.6138C819.783 74.6138 831.551 81.5678 830.171 86.242Z" stroke="#33508A"/>
<path d="M899.864 124.128C895.242 125.812 888.541 119.9 889.228 114.745C889.885 109.808 903.044 108.864 903.044 108.864C903.044 108.864 904.443 122.461 899.864 124.128Z" stroke="#33508A"/>
<path d="M757.558 113.705C762.421 112.965 767.827 120.08 766.139 124.999C764.523 129.711 751.436 128.045 751.436 128.045C751.436 128.045 752.74 114.439 757.558 113.705Z" stroke="#33508A"/>
<path d="M687.502 79.6282C690.189 83.7481 685.951 91.6147 680.774 92.1149C675.817 92.5939 671.914 79.9918 671.914 79.9918C671.914 79.9918 684.84 75.5461 687.502 79.6282Z" stroke="white" stroke-opacity="0.1"/>
<path d="M533.171 86.242C531.778 90.9595 523.041 92.8362 519.303 89.2209C515.723 85.7582 522.783 74.6138 522.783 74.6138C522.783 74.6138 534.551 81.5678 533.171 86.242Z" stroke="#33508A"/>
<path d="M602.864 124.128C598.242 125.812 591.541 119.9 592.228 114.745C592.885 109.808 606.044 108.864 606.044 108.864C606.044 108.864 607.443 122.461 602.864 124.128Z" stroke="#33508A"/>
<path d="M460.558 113.705C465.421 112.965 470.827 120.08 469.139 124.999C467.523 129.711 454.436 128.045 454.436 128.045C454.436 128.045 455.74 114.439 460.558 113.705Z" stroke="#33508A"/>
<path d="M390.502 79.6282C393.189 83.7481 388.951 91.6147 383.774 92.1149C378.817 92.5939 374.914 79.9918 374.914 79.9918C374.914 79.9918 387.84 75.5461 390.502 79.6282Z" stroke="#33508A"/>
<path d="M236.171 81.242C234.778 85.9595 226.041 87.8362 222.303 84.2209C218.723 80.7582 225.783 69.6138 225.783 69.6138C225.783 69.6138 237.551 76.5678 236.171 81.242Z" stroke="#33508A"/>
<path d="M305.864 119.128C301.242 120.812 294.541 114.9 295.228 109.745C295.885 104.808 309.044 103.864 309.044 103.864C309.044 103.864 310.443 117.461 305.864 119.128Z" stroke="#33508A"/>
<path d="M163.558 108.705C168.421 107.965 173.827 115.08 172.139 119.999C170.523 124.711 157.436 123.045 157.436 123.045C157.436 123.045 158.74 109.439 163.558 108.705Z" stroke="#33508A"/>
<path d="M93.5023 74.6282C96.1894 78.7481 91.9508 86.6147 86.7744 87.1149C81.8165 87.5939 77.9141 74.9918 77.9141 74.9918C77.9141 74.9918 90.8399 70.5461 93.5023 74.6282Z" stroke="#33508A"/>
<path d="M1319.56 122.705C1324.42 121.965 1329.83 129.08 1328.14 133.999C1326.52 138.711 1313.44 137.045 1313.44 137.045C1313.44 137.045 1314.74 123.439 1319.56 122.705Z" stroke="#33508A"/>
<path d="M1249.5 88.6282C1252.19 92.7481 1247.95 100.615 1242.77 101.115C1237.82 101.594 1233.91 88.9918 1233.91 88.9918C1233.91 88.9918 1246.84 84.5461 1249.5 88.6282Z" stroke="#33508A"/>
<path d="M82.7247 159.408C77.862 160.149 72.4561 153.034 74.1439 148.115C75.7605 143.403 88.8475 145.068 88.8475 145.068C88.8475 145.068 87.5429 158.675 82.7247 159.408Z" stroke="#33508A"/>
<path d="M152.781 193.486C150.094 189.366 154.332 181.499 159.509 180.999C164.467 180.52 168.369 193.122 168.369 193.122C168.369 193.122 155.443 197.568 152.781 193.486Z" stroke="#33508A"/>
<path d="M307.113 191.872C308.505 187.154 317.242 185.278 320.98 188.893C324.561 192.356 317.5 203.5 317.5 203.5C317.5 203.5 305.733 196.546 307.113 191.872Z" stroke="#33508A"/>
<path d="M237.419 153.985C242.041 152.302 248.742 158.214 248.056 163.369C247.398 168.306 234.24 169.25 234.24 169.25C234.24 169.25 232.84 155.653 237.419 153.985Z" stroke="#33508A"/>
<path d="M379.725 164.408C374.862 165.149 369.456 158.034 371.144 153.115C372.76 148.403 385.847 150.068 385.847 150.068C385.847 150.068 384.543 163.675 379.725 164.408Z" stroke="#33508A"/>
<path d="M449.781 198.486C447.094 194.366 451.332 186.499 456.509 185.999C461.467 185.52 465.369 198.122 465.369 198.122C465.369 198.122 452.443 202.568 449.781 198.486Z" stroke="#33508A"/>
<path d="M604.113 191.872C605.505 187.154 614.242 185.278 617.98 188.893C621.561 192.356 614.5 203.5 614.5 203.5C614.5 203.5 602.733 196.546 604.113 191.872Z" stroke="#33508A"/>
<path d="M534.419 153.985C539.041 152.302 545.742 158.214 545.056 163.369C544.398 168.306 531.24 169.25 531.24 169.25C531.24 169.25 529.84 155.653 534.419 153.985Z" stroke="#33508A"/>
<path d="M676.725 164.408C671.862 165.149 666.456 158.034 668.144 153.115C669.76 148.403 682.847 150.068 682.847 150.068C682.847 150.068 681.543 163.675 676.725 164.408Z" stroke="#33508A"/>
<path d="M746.781 198.486C744.094 194.366 748.332 186.499 753.509 185.999C758.467 185.52 762.369 198.122 762.369 198.122C762.369 198.122 749.443 202.568 746.781 198.486Z" stroke="#33508A"/>
<path d="M1118.11 196.872C1119.51 192.154 1128.24 190.278 1131.98 193.893C1135.56 197.356 1128.5 208.5 1128.5 208.5C1128.5 208.5 1116.73 201.546 1118.11 196.872Z" stroke="#33508A"/>
<path d="M1087.11 157.872C1088.51 153.154 1097.24 151.278 1100.98 154.893C1104.56 158.356 1097.5 169.5 1097.5 169.5C1097.5 169.5 1085.73 162.546 1087.11 157.872Z" stroke="#33508A"/>
<path d="M1190.72 169.408C1185.86 170.149 1180.46 163.034 1182.14 158.115C1183.76 153.403 1196.85 155.068 1196.85 155.068C1196.85 155.068 1195.54 168.675 1190.72 169.408Z" stroke="#33508A"/>
<path d="M1260.78 203.486C1258.09 199.366 1262.33 191.499 1267.51 190.999C1272.47 190.52 1276.37 203.122 1276.37 203.122C1276.37 203.122 1263.44 207.568 1260.78 203.486Z" stroke="#33508A"/>
<path d="M901.113 196.872C902.505 192.154 911.242 190.278 914.98 193.893C918.561 197.356 911.5 208.5 911.5 208.5C911.5 208.5 899.733 201.546 901.113 196.872Z" stroke="#33508A"/>
<path d="M831.419 158.985C836.041 157.302 842.742 163.214 842.056 168.369C841.398 173.306 828.24 174.25 828.24 174.25C828.24 174.25 826.84 160.653 831.419 158.985Z" stroke="#33508A"/>
<path d="M973.725 169.408C968.862 170.149 963.456 163.034 965.144 158.115C966.76 153.403 979.847 155.068 979.847 155.068C979.847 155.068 978.543 168.675 973.725 169.408Z" stroke="#33508A"/>
<path d="M1043.78 203.486C1041.09 199.366 1045.33 191.499 1050.51 190.999C1055.47 190.52 1059.37 203.122 1059.37 203.122C1059.37 203.122 1046.44 207.568 1043.78 203.486Z" stroke="#33508A"/>
<path d="M968.171 232.242C966.778 236.959 958.041 238.836 954.303 235.221C950.723 231.758 957.783 220.614 957.783 220.614C957.783 220.614 969.551 227.568 968.171 232.242Z" stroke="#33508A"/>
<path d="M1037.86 270.128C1033.24 271.812 1026.54 265.9 1027.23 260.745C1027.88 255.808 1041.04 254.864 1041.04 254.864C1041.04 254.864 1042.44 268.461 1037.86 270.128Z" stroke="#33508A"/>
<path d="M895.558 259.705C900.421 258.965 905.827 266.08 904.139 270.999C902.523 275.711 889.436 274.045 889.436 274.045C889.436 274.045 890.74 260.439 895.558 259.705Z" stroke="#33508A"/>
<path d="M825.502 225.628C828.189 229.748 823.951 237.615 818.774 238.115C813.817 238.594 809.914 225.992 809.914 225.992C809.914 225.992 822.84 221.546 825.502 225.628Z" stroke="#33508A"/>
<path d="M671.171 227.242C669.778 231.959 661.041 233.836 657.303 230.221C653.723 226.758 660.783 215.614 660.783 215.614C660.783 215.614 672.551 222.568 671.171 227.242Z" stroke="#33508A"/>
<path d="M740.864 265.128C736.242 266.812 729.541 260.9 730.228 255.745C730.885 250.808 744.044 249.864 744.044 249.864C744.044 249.864 745.443 263.461 740.864 265.128Z" stroke="#33508A"/>
<path d="M598.558 254.705C603.421 253.965 608.827 261.08 607.139 265.999C605.523 270.711 592.436 269.045 592.436 269.045C592.436 269.045 593.74 255.439 598.558 254.705Z" stroke="#33508A"/>
<path d="M528.502 220.628C531.189 224.748 526.951 232.615 521.774 233.115C516.817 233.594 512.914 220.992 512.914 220.992C512.914 220.992 525.84 216.546 528.502 220.628Z" stroke="#33508A"/>
<path d="M374.171 227.242C372.778 231.959 364.041 233.836 360.303 230.221C356.723 226.758 363.783 215.614 363.783 215.614C363.783 215.614 375.551 222.568 374.171 227.242Z" stroke="#33508A"/>
<path d="M443.864 265.128C439.242 266.812 432.541 260.9 433.228 255.745C433.885 250.808 447.044 249.864 447.044 249.864C447.044 249.864 448.443 263.461 443.864 265.128Z" stroke="#33508A"/>
<path d="M301.558 254.705C306.421 253.965 311.827 261.08 310.139 265.999C308.523 270.711 295.436 269.045 295.436 269.045C295.436 269.045 296.74 255.439 301.558 254.705Z" stroke="#33508A"/>
<path d="M231.502 220.628C234.189 224.748 229.951 232.615 224.774 233.115C219.817 233.594 215.914 220.992 215.914 220.992C215.914 220.992 228.84 216.546 231.502 220.628Z" stroke="#33508A"/>
<path d="M77.1707 222.242C75.778 226.959 67.0414 228.836 63.3032 225.221C59.7227 221.758 66.7827 210.614 66.7827 210.614C66.7827 210.614 78.5506 217.568 77.1707 222.242Z" stroke="#33508A"/>
<path d="M146.864 260.128C142.242 261.812 135.541 255.9 136.228 250.745C136.885 245.808 150.044 244.864 150.044 244.864C150.044 244.864 151.443 258.461 146.864 260.128Z" stroke="#33508A"/>
<path d="M1233.17 236.242C1231.78 240.959 1223.04 242.836 1219.3 239.221C1215.72 235.758 1222.78 224.614 1222.78 224.614C1222.78 224.614 1234.55 231.568 1233.17 236.242Z" stroke="#33508A"/>
<path d="M1264.17 275.242C1262.78 279.959 1254.04 281.836 1250.3 278.221C1246.72 274.758 1253.78 263.614 1253.78 263.614C1253.78 263.614 1265.55 270.568 1264.17 275.242Z" stroke="#33508A"/>
<path d="M1160.56 263.705C1165.42 262.965 1170.83 270.08 1169.14 274.999C1167.52 279.711 1154.44 278.045 1154.44 278.045C1154.44 278.045 1155.74 264.439 1160.56 263.705Z" stroke="#33508A"/>
<path d="M1090.5 229.628C1093.19 233.748 1088.95 241.615 1083.77 242.115C1078.82 242.594 1074.91 229.992 1074.91 229.992C1074.91 229.992 1087.84 225.546 1090.5 229.628Z" stroke="#33508A"/>
<path d="M1307.5 229.628C1310.19 233.748 1305.95 241.615 1300.77 242.115C1295.82 242.594 1291.91 229.992 1291.91 229.992C1291.91 229.992 1304.84 225.546 1307.5 229.628Z" stroke="#33508A"/>
<path d="M75.7249 296.408C70.8622 297.149 65.4562 290.034 67.144 285.115C68.7606 280.403 81.8476 282.068 81.8476 282.068C81.8476 282.068 80.543 295.675 75.7249 296.408Z" stroke="#33508A"/>
<path d="M145.781 330.486C143.094 326.366 147.333 318.499 152.509 317.999C157.467 317.52 161.369 330.122 161.369 330.122C161.369 330.122 148.443 334.568 145.781 330.486Z" stroke="#33508A"/>
<path d="M300.113 328.872C301.505 324.154 310.242 322.278 313.98 325.893C317.561 329.356 310.501 340.5 310.501 340.5C310.501 340.5 298.733 333.546 300.113 328.872Z" stroke="#33508A"/>
<path d="M230.419 290.985C235.041 289.302 241.742 295.214 241.056 300.369C240.398 305.306 227.24 306.25 227.24 306.25C227.24 306.25 225.84 292.653 230.419 290.985Z" stroke="#33508A"/>
<path d="M372.725 301.408C367.862 302.149 362.456 295.034 364.144 290.115C365.761 285.403 378.848 287.068 378.848 287.068C378.848 287.068 377.543 300.675 372.725 301.408Z" stroke="#33508A"/>
<path d="M442.781 335.486C440.094 331.366 444.333 323.499 449.509 322.999C454.467 322.52 458.369 335.122 458.369 335.122C458.369 335.122 445.443 339.568 442.781 335.486Z" stroke="#33508A"/>
<path d="M597.113 328.872C598.505 324.154 607.242 322.278 610.98 325.893C614.561 329.356 607.501 340.5 607.501 340.5C607.501 340.5 595.733 333.546 597.113 328.872Z" stroke="#33508A"/>
<path d="M527.419 290.985C532.041 289.302 538.742 295.214 538.056 300.369C537.398 305.306 524.24 306.25 524.24 306.25C524.24 306.25 522.84 292.653 527.419 290.985Z" stroke="#33508A"/>
<path d="M669.725 301.408C664.862 302.149 659.456 295.034 661.144 290.115C662.761 285.403 675.848 287.068 675.848 287.068C675.848 287.068 674.543 300.675 669.725 301.408Z" stroke="#33508A"/>
<path d="M739.781 335.486C737.094 331.366 741.333 323.499 746.509 322.999C751.467 322.52 755.369 335.122 755.369 335.122C755.369 335.122 742.443 339.568 739.781 335.486Z" stroke="#33508A"/>
<path d="M1111.11 333.872C1112.51 329.154 1121.24 327.278 1124.98 330.893C1128.56 334.356 1121.5 345.5 1121.5 345.5C1121.5 345.5 1109.73 338.546 1111.11 333.872Z" stroke="#33508A"/>
<path d="M1080.11 294.872C1081.51 290.154 1090.24 288.278 1093.98 291.893C1097.56 295.356 1090.5 306.5 1090.5 306.5C1090.5 306.5 1078.73 299.546 1080.11 294.872Z" stroke="#33508A"/>
<path d="M1183.72 306.408C1178.86 307.149 1173.46 300.034 1175.14 295.115C1176.76 290.403 1189.85 292.068 1189.85 292.068C1189.85 292.068 1188.54 305.675 1183.72 306.408Z" stroke="#33508A"/>
<path d="M1253.78 340.486C1251.09 336.366 1255.33 328.499 1260.51 327.999C1265.47 327.52 1269.37 340.122 1269.37 340.122C1269.37 340.122 1256.44 344.568 1253.78 340.486Z" stroke="#33508A"/>
<path d="M894.113 333.872C895.505 329.154 904.242 327.278 907.98 330.893C911.561 334.356 904.501 345.5 904.501 345.5C904.501 345.5 892.733 338.546 894.113 333.872Z" stroke="#33508A"/>
<path d="M824.419 295.985C829.041 294.302 835.742 300.214 835.056 305.369C834.398 310.306 821.24 311.25 821.24 311.25C821.24 311.25 819.84 297.653 824.419 295.985Z" stroke="#33508A"/>
<path d="M966.725 306.408C961.862 307.149 956.456 300.034 958.144 295.115C959.761 290.403 972.848 292.068 972.848 292.068C972.848 292.068 971.543 305.675 966.725 306.408Z" stroke="#33508A"/>
<path d="M1036.78 340.486C1034.09 336.366 1038.33 328.499 1043.51 327.999C1048.47 327.52 1052.37 340.122 1052.37 340.122C1052.37 340.122 1039.44 344.568 1036.78 340.486Z" stroke="#33508A"/>
<path d="M976.171 369.242C974.778 373.959 966.042 375.836 962.303 372.221C958.723 368.758 965.783 357.614 965.783 357.614C965.783 357.614 977.551 364.568 976.171 369.242Z" stroke="#33508A"/>
<path d="M1045.86 407.128C1041.24 408.812 1034.54 402.9 1035.23 397.745C1035.89 392.808 1049.04 391.864 1049.04 391.864C1049.04 391.864 1050.44 405.461 1045.86 407.128Z" stroke="#33508A"/>
<path d="M903.559 396.705C908.421 395.965 913.827 403.08 912.139 407.999C910.523 412.711 897.436 411.045 897.436 411.045C897.436 411.045 898.74 397.439 903.559 396.705Z" stroke="#33508A"/>
<path d="M833.502 362.628C836.19 366.748 831.951 374.615 826.775 375.115C821.817 375.594 817.914 362.992 817.914 362.992C817.914 362.992 830.84 358.546 833.502 362.628Z" stroke="#33508A"/>
<path d="M679.171 364.242C677.778 368.959 669.042 370.836 665.303 367.221C661.723 363.758 668.783 352.614 668.783 352.614C668.783 352.614 680.551 359.568 679.171 364.242Z" stroke="#33508A"/>
<path d="M748.864 402.128C744.242 403.812 737.541 397.9 738.228 392.745C738.885 387.808 752.044 386.864 752.044 386.864C752.044 386.864 753.443 400.461 748.864 402.128Z" stroke="#33508A"/>
<path d="M606.559 391.705C611.421 390.965 616.827 398.08 615.139 402.999C613.523 407.711 600.436 406.045 600.436 406.045C600.436 406.045 601.74 392.439 606.559 391.705Z" stroke="#33508A"/>
<path d="M536.502 357.628C539.19 361.748 534.951 369.615 529.775 370.115C524.817 370.594 520.914 357.992 520.914 357.992C520.914 357.992 533.84 353.546 536.502 357.628Z" stroke="#33508A"/>
<path d="M382.171 364.242C380.778 368.959 372.042 370.836 368.303 367.221C364.723 363.758 371.783 352.614 371.783 352.614C371.783 352.614 383.551 359.568 382.171 364.242Z" stroke="#33508A"/>
<path d="M451.864 402.128C447.242 403.812 440.541 397.9 441.228 392.745C441.885 387.808 455.044 386.864 455.044 386.864C455.044 386.864 456.443 400.461 451.864 402.128Z" stroke="#33508A"/>
<path d="M309.559 391.705C314.421 390.965 319.827 398.08 318.139 402.999C316.523 407.711 303.436 406.045 303.436 406.045C303.436 406.045 304.74 392.439 309.559 391.705Z" stroke="#33508A"/>
<path d="M239.502 357.628C242.19 361.748 237.951 369.615 232.775 370.115C227.817 370.594 223.914 357.992 223.914 357.992C223.914 357.992 236.84 353.546 239.502 357.628Z" stroke="#33508A"/>
<path d="M85.1708 359.242C83.7781 363.959 75.0416 365.836 71.3033 362.221C67.7228 358.758 74.7828 347.614 74.7828 347.614C74.7828 347.614 86.5507 354.568 85.1708 359.242Z" stroke="#33508A"/>
<path d="M154.864 397.128C150.242 398.812 143.541 392.9 144.228 387.745C144.885 382.808 158.044 381.864 158.044 381.864C158.044 381.864 159.443 395.461 154.864 397.128Z" stroke="#33508A"/>
<path d="M1241.17 373.242C1239.78 377.959 1231.04 379.836 1227.3 376.221C1223.72 372.758 1230.78 361.614 1230.78 361.614C1230.78 361.614 1242.55 368.568 1241.17 373.242Z" stroke="#33508A"/>
<path d="M1272.17 412.242C1270.78 416.959 1262.04 418.836 1258.3 415.221C1254.72 411.758 1261.78 400.614 1261.78 400.614C1261.78 400.614 1273.55 407.568 1272.17 412.242Z" stroke="#33508A"/>
<path d="M1168.56 400.705C1173.42 399.965 1178.83 407.08 1177.14 411.999C1175.52 416.711 1162.44 415.045 1162.44 415.045C1162.44 415.045 1163.74 401.439 1168.56 400.705Z" stroke="#33508A"/>
<path d="M1098.5 366.628C1101.19 370.748 1096.95 378.615 1091.77 379.115C1086.82 379.594 1082.91 366.992 1082.91 366.992C1082.91 366.992 1095.84 362.546 1098.5 366.628Z" stroke="#33508A"/>
<path d="M1315.5 366.628C1318.19 370.748 1313.95 378.615 1308.77 379.115C1303.82 379.594 1299.91 366.992 1299.91 366.992C1299.91 366.992 1312.84 362.546 1315.5 366.628Z" stroke="#33508A"/>
<path d="M156.113 469.872C157.505 465.154 166.242 463.278 169.98 466.893C173.561 470.356 166.501 481.5 166.501 481.5C166.501 481.5 154.733 474.546 156.113 469.872Z" stroke="#33508A"/>
<path d="M86.4194 431.985C91.0412 430.302 97.7421 436.214 97.0558 441.369C96.3984 446.306 83.2397 447.25 83.2397 447.25C83.2397 447.25 81.84 433.653 86.4194 431.985Z" stroke="#33508A"/>
<path d="M228.725 442.408C223.862 443.149 218.456 436.034 220.144 431.115C221.761 426.403 234.848 428.068 234.848 428.068C234.848 428.068 233.543 441.675 228.725 442.408Z" stroke="#33508A"/>
<path d="M298.781 476.486C296.094 472.366 300.333 464.499 305.509 463.999C310.467 463.52 314.369 476.122 314.369 476.122C314.369 476.122 301.443 480.568 298.781 476.486Z" stroke="#33508A"/>
<path d="M453.113 469.872C454.505 465.154 463.242 463.278 466.98 466.893C470.561 470.356 463.501 481.5 463.501 481.5C463.501 481.5 451.733 474.546 453.113 469.872Z" stroke="#33508A"/>
<path d="M383.419 431.985C388.041 430.302 394.742 436.214 394.056 441.369C393.398 446.306 380.24 447.25 380.24 447.25C380.24 447.25 378.84 433.653 383.419 431.985Z" stroke="#33508A"/>
<path d="M525.725 442.408C520.862 443.149 515.456 436.034 517.144 431.115C518.761 426.403 531.848 428.068 531.848 428.068C531.848 428.068 530.543 441.675 525.725 442.408Z" stroke="#33508A"/>
<path d="M595.781 476.486C593.094 472.366 597.333 464.499 602.509 463.999C607.467 463.52 611.369 476.122 611.369 476.122C611.369 476.122 598.443 480.568 595.781 476.486Z" stroke="#33508A"/>
<path d="M967.113 474.872C968.505 470.154 977.242 468.278 980.98 471.893C984.561 475.356 977.501 486.5 977.501 486.5C977.501 486.5 965.733 479.546 967.113 474.872Z" stroke="#33508A"/>
<path d="M936.113 435.872C937.505 431.154 946.242 429.278 949.98 432.893C953.561 436.356 946.501 447.5 946.501 447.5C946.501 447.5 934.733 440.546 936.113 435.872Z" stroke="#33508A"/>
<path d="M1039.72 447.408C1034.86 448.149 1029.46 441.034 1031.14 436.115C1032.76 431.403 1045.85 433.068 1045.85 433.068C1045.85 433.068 1044.54 446.675 1039.72 447.408Z" stroke="#33508A"/>
<path d="M1109.78 481.486C1107.09 477.366 1111.33 469.499 1116.51 468.999C1121.47 468.52 1125.37 481.122 1125.37 481.122C1125.37 481.122 1112.44 485.568 1109.78 481.486Z" stroke="#33508A"/>
<path d="M750.113 474.872C751.505 470.154 760.242 468.278 763.98 471.893C767.561 475.356 760.501 486.5 760.501 486.5C760.501 486.5 748.733 479.546 750.113 474.872Z" stroke="#33508A"/>
<path d="M680.419 436.985C685.041 435.302 691.742 441.214 691.056 446.369C690.398 451.306 677.24 452.25 677.24 452.25C677.24 452.25 675.84 438.653 680.419 436.985Z" stroke="#33508A"/>
<path d="M822.725 447.408C817.862 448.149 812.456 441.034 814.144 436.115C815.761 431.403 828.848 433.068 828.848 433.068C828.848 433.068 827.543 446.675 822.725 447.408Z" stroke="#33508A"/>
<path d="M892.781 481.486C890.094 477.366 894.333 469.499 899.509 468.999C904.467 468.52 908.369 481.122 908.369 481.122C908.369 481.122 895.443 485.568 892.781 481.486Z" stroke="#33508A"/>
<path d="M817.171 510.242C815.778 514.959 807.042 516.836 803.303 513.221C799.723 509.758 806.783 498.614 806.783 498.614C806.783 498.614 818.551 505.568 817.171 510.242Z" stroke="#33508A"/>
<path d="M886.864 548.128C882.242 549.812 875.541 543.9 876.228 538.745C876.885 533.808 890.044 532.864 890.044 532.864C890.044 532.864 891.443 546.461 886.864 548.128Z" stroke="#33508A"/>
<path d="M744.559 537.705C749.421 536.965 754.827 544.08 753.139 548.999C751.523 553.711 738.436 552.045 738.436 552.045C738.436 552.045 739.74 538.439 744.559 537.705Z" stroke="#33508A"/>
<path d="M674.502 503.628C677.19 507.748 672.951 515.615 667.775 516.115C662.817 516.594 658.914 503.992 658.914 503.992C658.914 503.992 671.84 499.546 674.502 503.628Z" stroke="#33508A"/>
<path d="M520.171 505.242C518.778 509.959 510.042 511.836 506.303 508.221C502.723 504.758 509.783 493.614 509.783 493.614C509.783 493.614 521.551 500.568 520.171 505.242Z" stroke="#33508A"/>
<path d="M589.864 543.128C585.242 544.812 578.541 538.9 579.228 533.745C579.885 528.808 593.044 527.864 593.044 527.864C593.044 527.864 594.443 541.461 589.864 543.128Z" stroke="#33508A"/>
<path d="M447.559 532.705C452.421 531.965 457.827 539.08 456.139 543.999C454.523 548.711 441.436 547.045 441.436 547.045C441.436 547.045 442.74 533.439 447.559 532.705Z" stroke="#33508A"/>
<path d="M377.502 498.628C380.19 502.748 375.951 510.615 370.775 511.115C365.817 511.594 361.914 498.992 361.914 498.992C361.914 498.992 374.84 494.546 377.502 498.628Z" stroke="#33508A"/>
<path d="M223.171 505.242C221.778 509.959 213.042 511.836 209.303 508.221C205.723 504.758 212.783 493.614 212.783 493.614C212.783 493.614 224.551 500.568 223.171 505.242Z" stroke="#33508A"/>
<path d="M292.864 543.128C288.242 544.812 281.541 538.9 282.228 533.745C282.885 528.808 296.044 527.864 296.044 527.864C296.044 527.864 297.443 541.461 292.864 543.128Z" stroke="#33508A"/>
<path d="M150.559 532.705C155.421 531.965 160.827 539.08 159.139 543.999C157.523 548.711 144.436 547.045 144.436 547.045C144.436 547.045 145.74 533.439 150.559 532.705Z" stroke="#33508A"/>
<path d="M80.5025 498.628C83.1895 502.748 78.9509 510.615 73.7746 511.115C68.8166 511.594 64.9142 498.992 64.9142 498.992C64.9142 498.992 77.84 494.546 80.5025 498.628Z" stroke="#33508A"/>
<path d="M1082.17 514.242C1080.78 518.959 1072.04 520.836 1068.3 517.221C1064.72 513.758 1071.78 502.614 1071.78 502.614C1071.78 502.614 1083.55 509.568 1082.17 514.242Z" stroke="#33508A"/>
<path d="M1113.17 553.242C1111.78 557.959 1103.04 559.836 1099.3 556.221C1095.72 552.758 1102.78 541.614 1102.78 541.614C1102.78 541.614 1114.55 548.568 1113.17 553.242Z" stroke="#33508A"/>
<path d="M1009.56 541.705C1014.42 540.965 1019.83 548.08 1018.14 552.999C1016.52 557.711 1003.44 556.045 1003.44 556.045C1003.44 556.045 1004.74 542.439 1009.56 541.705Z" stroke="#33508A"/>
<path d="M939.502 507.628C942.189 511.748 937.951 519.615 932.774 520.115C927.817 520.594 923.914 507.992 923.914 507.992C923.914 507.992 936.84 503.546 939.502 507.628Z" stroke="#33508A"/>
<path d="M1299.17 514.242C1297.78 518.959 1289.04 520.836 1285.3 517.221C1281.72 513.758 1288.78 502.614 1288.78 502.614C1288.78 502.614 1300.55 509.568 1299.17 514.242Z" stroke="#33508A"/>
<path d="M1226.56 541.705C1231.42 540.965 1236.83 548.08 1235.14 552.999C1233.52 557.711 1220.44 556.045 1220.44 556.045C1220.44 556.045 1221.74 542.439 1226.56 541.705Z" stroke="#33508A"/>
<path d="M1156.5 507.628C1159.19 511.748 1154.95 519.615 1149.77 520.115C1144.82 520.594 1140.91 507.992 1140.91 507.992C1140.91 507.992 1153.84 503.546 1156.5 507.628Z" stroke="#33508A"/>
</g>
<path d="M950 535.003H1353.5" stroke="black"/>
<path d="M871.557 543.944L871.5 544.054V544.177V549V549.5H872H1354H1354.5V549V341.15V340.633L1353.98 340.651L1354 341.15C1353.98 340.651 1353.98 340.651 1353.98 340.651L1353.98 340.651L1353.97 340.651L1353.94 340.652L1353.82 340.656C1353.72 340.659 1353.56 340.664 1353.34 340.67C1352.92 340.681 1352.29 340.696 1351.47 340.712C1349.82 340.742 1347.38 340.773 1344.24 340.774C1337.97 340.775 1328.9 340.657 1317.71 340.176C1295.33 339.214 1264.48 336.803 1230.58 331.007C1145.92 316.532 1075.07 308.549 1012.19 357.606C975.935 385.894 940.773 432.496 914.69 471.989C901.645 491.742 890.863 509.729 883.342 522.778C879.581 529.303 876.636 534.593 874.63 538.253C873.627 540.083 872.859 541.505 872.342 542.47C872.083 542.953 871.887 543.321 871.756 543.569C871.69 543.693 871.641 543.786 871.607 543.849L871.57 543.92L871.561 543.938L871.558 543.943C871.558 543.944 871.557 543.944 872 544.177L871.557 543.944Z" fill="#FEC3DD" stroke="#FEC3DD"/>
<path d="M236 146.5C148.751 143.463 75 57 75 57V0H480C480 0 343.655 150.248 236 146.5Z" fill="#3EB9FF"/>
<defs>
<filter id="filter0_d_1_4493" x="0" y="152" width="1430" height="534" filterUnits="userSpaceOnUse" color-interpolation-filters="sRGB">
<feFlood flood-opacity="0" result="BackgroundImageFix"/>
<feColorMatrix in="SourceAlpha" type="matrix" values="0 0 0 0 0 0 0 0 0 0 0 0 0 0 0 0 0 0 127 0" result="hardAlpha"/>
<feMorphology radius="20" operator="erode" in="SourceAlpha" result="effect1_dropShadow_1_4493"/>
<feOffset dy="60"/>
<feGaussianBlur stdDeviation="50"/>
<feComposite in2="hardAlpha" operator="out"/>
<feColorMatrix type="matrix" values="0 0 0 0 0.133333 0 0 0 0 0.129412 0 0 0 0 0.580392 0 0 0 0.05 0"/>
<feBlend mode="normal" in2="BackgroundImageFix" result="effect1_dropShadow_1_4493"/>
<feBlend mode="normal" in="SourceGraphic" in2="effect1_dropShadow_1_4493" result="shape"/>
</filter>
<clipPath id="clip0_1_4493">
<rect width="1280" height="550" fill="white" transform="translate(75)"/>
</clipPath>
</defs>
</svg>
