<svg width="1280" height="550" viewBox="0 0 1280 550" fill="none" xmlns="http://www.w3.org/2000/svg">
<g clip-path="url(#clip0_1_4496)">
<rect width="1280" height="550" fill="#222194"/>
<path d="M79.1125 45.8718C80.5052 41.1543 89.2418 39.2776 92.98 42.8929C96.5605 46.3556 89.5005 57.5 89.5005 57.5C89.5005 57.5 77.7326 50.546 79.1125 45.8718Z" stroke="#33508A"/>
<path d="M9.41925 7.98547C14.041 6.30233 20.742 12.2139 20.0557 17.3689C19.3983 22.3063 6.23961 23.2503 6.23961 23.2503C6.23961 23.2503 4.83983 9.65319 9.41925 7.98547Z" stroke="#33508A"/>
<path d="M151.725 18.4084C146.862 19.1487 141.456 12.0335 143.144 7.11455C144.76 2.40317 157.847 4.06833 157.847 4.06833C157.847 4.06833 156.543 17.6749 151.725 18.4084Z" stroke="#33508A"/>
<path d="M221.781 52.4856C219.094 48.3657 223.332 40.499 228.509 39.9989C233.467 39.5199 237.369 52.122 237.369 52.122C237.369 52.122 224.443 56.5677 221.781 52.4856Z" stroke="#33508A"/>
<path d="M376.113 50.8718C377.505 46.1543 386.242 44.2776 389.98 47.8929C393.561 51.3556 386.5 62.5 386.5 62.5C386.5 62.5 374.733 55.546 376.113 50.8718Z" stroke="#33508A"/>
<path d="M306.419 12.9855C311.041 11.3023 317.742 17.2139 317.056 22.3689C316.398 27.3063 303.24 28.2503 303.24 28.2503C303.24 28.2503 301.84 14.6532 306.419 12.9855Z" stroke="#33508A"/>
<path d="M448.725 23.4084C443.862 24.1487 438.456 17.0335 440.144 12.1146C441.76 7.40317 454.847 9.06833 454.847 9.06833C454.847 9.06833 453.543 22.6749 448.725 23.4084Z" stroke="#33508A"/>
<path d="M518.781 57.4856C516.094 53.3657 520.332 45.499 525.509 44.9989C530.467 44.5199 534.369 57.122 534.369 57.122C534.369 57.122 521.443 61.5677 518.781 57.4856Z" stroke="#33508A"/>
<path d="M673.113 50.8718C674.505 46.1543 683.242 44.2776 686.98 47.8929C690.561 51.3556 683.5 62.5 683.5 62.5C683.5 62.5 671.733 55.546 673.113 50.8718Z" stroke="#33508A"/>
<path d="M603.419 12.9855C608.041 11.3023 614.742 17.2139 614.056 22.3689C613.398 27.3063 600.24 28.2503 600.24 28.2503C600.24 28.2503 598.84 14.6532 603.419 12.9855Z" stroke="#33508A"/>
<path d="M745.725 23.4084C740.862 24.1487 735.456 17.0335 737.144 12.1146C738.76 7.40317 751.847 9.06833 751.847 9.06833C751.847 9.06833 750.543 22.6749 745.725 23.4084Z" stroke="#33508A"/>
<path d="M815.781 57.4856C813.094 53.3657 817.332 45.499 822.509 44.9989C827.467 44.5199 831.369 57.122 831.369 57.122C831.369 57.122 818.443 61.5677 815.781 57.4856Z" stroke="#33508A"/>
<path d="M1187.11 55.8718C1188.51 51.1543 1197.24 49.2776 1200.98 52.8929C1204.56 56.3556 1197.5 67.5 1197.5 67.5C1197.5 67.5 1185.73 60.546 1187.11 55.8718Z" stroke="#33508A"/>
<path d="M1156.11 16.8718C1157.51 12.1543 1166.24 10.2776 1169.98 13.8929C1173.56 17.3556 1166.5 28.5 1166.5 28.5C1166.5 28.5 1154.73 21.546 1156.11 16.8718Z" stroke="#33508A"/>
<path d="M1259.72 28.4084C1254.86 29.1487 1249.46 22.0335 1251.14 17.1146C1252.76 12.4032 1265.85 14.0683 1265.85 14.0683C1265.85 14.0683 1264.54 27.6749 1259.72 28.4084Z" stroke="#33508A"/>
<path d="M970.113 55.8718C971.505 51.1543 980.242 49.2776 983.98 52.8929C987.561 56.3556 980.5 67.5 980.5 67.5C980.5 67.5 968.733 60.546 970.113 55.8718Z" stroke="#33508A"/>
<path d="M900.419 17.9855C905.041 16.3023 911.742 22.2139 911.056 27.3689C910.398 32.3063 897.24 33.2503 897.24 33.2503C897.24 33.2503 895.84 19.6532 900.419 17.9855Z" stroke="#33508A"/>
<path d="M1042.72 28.4084C1037.86 29.1487 1032.46 22.0335 1034.14 17.1146C1035.76 12.4032 1048.85 14.0683 1048.85 14.0683C1048.85 14.0683 1047.54 27.6749 1042.72 28.4084Z" stroke="#33508A"/>
<path d="M1112.78 62.4856C1110.09 58.3657 1114.33 50.499 1119.51 49.9989C1124.47 49.5199 1128.37 62.122 1128.37 62.122C1128.37 62.122 1115.44 66.5677 1112.78 62.4856Z" stroke="#33508A"/>
<path d="M1052.17 91.242C1050.78 95.9595 1042.04 97.8362 1038.3 94.2209C1034.72 90.7582 1041.78 79.6138 1041.78 79.6138C1041.78 79.6138 1053.55 86.5678 1052.17 91.242Z" stroke="#33508A"/>
<path d="M1121.86 129.128C1117.24 130.812 1110.54 124.9 1111.23 119.745C1111.88 114.808 1125.04 113.864 1125.04 113.864C1125.04 113.864 1126.44 127.461 1121.86 129.128Z" stroke="#33508A"/>
<path d="M979.558 118.705C984.421 117.965 989.827 125.08 988.139 129.999C986.523 134.711 973.436 133.045 973.436 133.045C973.436 133.045 974.74 119.439 979.558 118.705Z" stroke="#33508A"/>
<path d="M909.502 84.6282C912.189 88.7481 907.951 96.6147 902.774 97.1149C897.817 97.5939 893.914 84.9918 893.914 84.9918C893.914 84.9918 906.84 80.5461 909.502 84.6282Z" stroke="#33508A"/>
<path d="M755.171 86.242C753.778 90.9595 745.041 92.8362 741.303 89.2209C737.723 85.7582 744.783 74.6138 744.783 74.6138C744.783 74.6138 756.551 81.5678 755.171 86.242Z" stroke="#33508A"/>
<path d="M824.864 124.128C820.242 125.812 813.541 119.9 814.228 114.745C814.885 109.808 828.044 108.864 828.044 108.864C828.044 108.864 829.443 122.461 824.864 124.128Z" stroke="#33508A"/>
<path d="M682.558 113.705C687.421 112.965 692.827 120.08 691.139 124.999C689.523 129.711 676.436 128.045 676.436 128.045C676.436 128.045 677.74 114.439 682.558 113.705Z" stroke="#33508A"/>
<path d="M612.502 79.6282C615.189 83.7481 610.951 91.6147 605.774 92.1149C600.817 92.5939 596.914 79.9918 596.914 79.9918C596.914 79.9918 609.84 75.5461 612.502 79.6282Z" stroke="white" stroke-opacity="0.1"/>
<path d="M458.171 86.242C456.778 90.9595 448.041 92.8362 444.303 89.2209C440.723 85.7582 447.783 74.6138 447.783 74.6138C447.783 74.6138 459.551 81.5678 458.171 86.242Z" stroke="#33508A"/>
<path d="M527.864 124.128C523.242 125.812 516.541 119.9 517.228 114.745C517.885 109.808 531.044 108.864 531.044 108.864C531.044 108.864 532.443 122.461 527.864 124.128Z" stroke="#33508A"/>
<path d="M385.558 113.705C390.421 112.965 395.827 120.08 394.139 124.999C392.523 129.711 379.436 128.045 379.436 128.045C379.436 128.045 380.74 114.439 385.558 113.705Z" stroke="#33508A"/>
<path d="M315.502 79.6282C318.189 83.7481 313.951 91.6147 308.774 92.1149C303.817 92.5939 299.914 79.9918 299.914 79.9918C299.914 79.9918 312.84 75.5461 315.502 79.6282Z" stroke="#33508A"/>
<path d="M161.171 81.242C159.778 85.9595 151.041 87.8362 147.303 84.2209C143.723 80.7582 150.783 69.6138 150.783 69.6138C150.783 69.6138 162.551 76.5678 161.171 81.242Z" stroke="#33508A"/>
<path d="M230.864 119.128C226.242 120.812 219.541 114.9 220.228 109.745C220.885 104.808 234.044 103.864 234.044 103.864C234.044 103.864 235.443 117.461 230.864 119.128Z" stroke="#33508A"/>
<path d="M88.5585 108.705C93.4212 107.965 98.8271 115.08 97.1393 119.999C95.5227 124.711 82.4357 123.045 82.4357 123.045C82.4357 123.045 83.7403 109.439 88.5585 108.705Z" stroke="#33508A"/>
<path d="M18.5023 74.6282C21.1894 78.7481 16.9508 86.6147 11.7744 87.1149C6.81652 87.5939 2.91411 74.9918 2.91411 74.9918C2.91411 74.9918 15.8399 70.5461 18.5023 74.6282Z" stroke="#33508A"/>
<path d="M1244.56 122.705C1249.42 121.965 1254.83 129.08 1253.14 133.999C1251.52 138.711 1238.44 137.045 1238.44 137.045C1238.44 137.045 1239.74 123.439 1244.56 122.705Z" stroke="#33508A"/>
<path d="M1174.5 88.6282C1177.19 92.7481 1172.95 100.615 1167.77 101.115C1162.82 101.594 1158.91 88.9918 1158.91 88.9918C1158.91 88.9918 1171.84 84.5461 1174.5 88.6282Z" stroke="#33508A"/>
<path d="M7.72473 159.408C2.86203 160.149 -2.54392 153.034 -0.856099 148.115C0.760499 143.403 13.8475 145.068 13.8475 145.068C13.8475 145.068 12.5429 158.675 7.72473 159.408Z" stroke="#33508A"/>
<path d="M77.7809 193.486C75.0938 189.366 79.3324 181.499 84.5088 180.999C89.4667 180.52 93.3691 193.122 93.3691 193.122C93.3691 193.122 80.4433 197.568 77.7809 193.486Z" stroke="#33508A"/>
<path d="M232.113 191.872C233.505 187.154 242.242 185.278 245.98 188.893C249.561 192.356 242.5 203.5 242.5 203.5C242.5 203.5 230.733 196.546 232.113 191.872Z" stroke="#33508A"/>
<path d="M162.419 153.985C167.041 152.302 173.742 158.214 173.056 163.369C172.398 168.306 159.24 169.25 159.24 169.25C159.24 169.25 157.84 155.653 162.419 153.985Z" stroke="#33508A"/>
<path d="M304.725 164.408C299.862 165.149 294.456 158.034 296.144 153.115C297.76 148.403 310.847 150.068 310.847 150.068C310.847 150.068 309.543 163.675 304.725 164.408Z" stroke="#33508A"/>
<path d="M374.781 198.486C372.094 194.366 376.332 186.499 381.509 185.999C386.467 185.52 390.369 198.122 390.369 198.122C390.369 198.122 377.443 202.568 374.781 198.486Z" stroke="#33508A"/>
<path d="M529.113 191.872C530.505 187.154 539.242 185.278 542.98 188.893C546.561 192.356 539.5 203.5 539.5 203.5C539.5 203.5 527.733 196.546 529.113 191.872Z" stroke="#33508A"/>
<path d="M459.419 153.985C464.041 152.302 470.742 158.214 470.056 163.369C469.398 168.306 456.24 169.25 456.24 169.25C456.24 169.25 454.84 155.653 459.419 153.985Z" stroke="#33508A"/>
<path d="M601.725 164.408C596.862 165.149 591.456 158.034 593.144 153.115C594.76 148.403 607.847 150.068 607.847 150.068C607.847 150.068 606.543 163.675 601.725 164.408Z" stroke="#33508A"/>
<path d="M671.781 198.486C669.094 194.366 673.332 186.499 678.509 185.999C683.467 185.52 687.369 198.122 687.369 198.122C687.369 198.122 674.443 202.568 671.781 198.486Z" stroke="#33508A"/>
<path d="M1043.11 196.872C1044.51 192.154 1053.24 190.278 1056.98 193.893C1060.56 197.356 1053.5 208.5 1053.5 208.5C1053.5 208.5 1041.73 201.546 1043.11 196.872Z" stroke="#33508A"/>
<path d="M1012.11 157.872C1013.51 153.154 1022.24 151.278 1025.98 154.893C1029.56 158.356 1022.5 169.5 1022.5 169.5C1022.5 169.5 1010.73 162.546 1012.11 157.872Z" stroke="#33508A"/>
<path d="M1115.72 169.408C1110.86 170.149 1105.46 163.034 1107.14 158.115C1108.76 153.403 1121.85 155.068 1121.85 155.068C1121.85 155.068 1120.54 168.675 1115.72 169.408Z" stroke="#33508A"/>
<path d="M1185.78 203.486C1183.09 199.366 1187.33 191.499 1192.51 190.999C1197.47 190.52 1201.37 203.122 1201.37 203.122C1201.37 203.122 1188.44 207.568 1185.78 203.486Z" stroke="#33508A"/>
<path d="M826.113 196.872C827.505 192.154 836.242 190.278 839.98 193.893C843.561 197.356 836.5 208.5 836.5 208.5C836.5 208.5 824.733 201.546 826.113 196.872Z" stroke="#33508A"/>
<path d="M756.419 158.985C761.041 157.302 767.742 163.214 767.056 168.369C766.398 173.306 753.24 174.25 753.24 174.25C753.24 174.25 751.84 160.653 756.419 158.985Z" stroke="#33508A"/>
<path d="M898.725 169.408C893.862 170.149 888.456 163.034 890.144 158.115C891.76 153.403 904.847 155.068 904.847 155.068C904.847 155.068 903.543 168.675 898.725 169.408Z" stroke="#33508A"/>
<path d="M968.781 203.486C966.094 199.366 970.332 191.499 975.509 190.999C980.467 190.52 984.369 203.122 984.369 203.122C984.369 203.122 971.443 207.568 968.781 203.486Z" stroke="#33508A"/>
<path d="M893.171 232.242C891.778 236.959 883.041 238.836 879.303 235.221C875.723 231.758 882.783 220.614 882.783 220.614C882.783 220.614 894.551 227.568 893.171 232.242Z" stroke="#33508A"/>
<path d="M962.864 270.128C958.242 271.812 951.541 265.9 952.228 260.745C952.885 255.808 966.044 254.864 966.044 254.864C966.044 254.864 967.443 268.461 962.864 270.128Z" stroke="#33508A"/>
<path d="M820.558 259.705C825.421 258.965 830.827 266.08 829.139 270.999C827.523 275.711 814.436 274.045 814.436 274.045C814.436 274.045 815.74 260.439 820.558 259.705Z" stroke="#33508A"/>
<path d="M750.502 225.628C753.189 229.748 748.951 237.615 743.774 238.115C738.817 238.594 734.914 225.992 734.914 225.992C734.914 225.992 747.84 221.546 750.502 225.628Z" stroke="#33508A"/>
<path d="M596.171 227.242C594.778 231.959 586.041 233.836 582.303 230.221C578.723 226.758 585.783 215.614 585.783 215.614C585.783 215.614 597.551 222.568 596.171 227.242Z" stroke="#33508A"/>
<path d="M665.864 265.128C661.242 266.812 654.541 260.9 655.228 255.745C655.885 250.808 669.044 249.864 669.044 249.864C669.044 249.864 670.443 263.461 665.864 265.128Z" stroke="#33508A"/>
<path d="M523.558 254.705C528.421 253.965 533.827 261.08 532.139 265.999C530.523 270.711 517.436 269.045 517.436 269.045C517.436 269.045 518.74 255.439 523.558 254.705Z" stroke="#33508A"/>
<path d="M453.502 220.628C456.189 224.748 451.951 232.615 446.774 233.115C441.817 233.594 437.914 220.992 437.914 220.992C437.914 220.992 450.84 216.546 453.502 220.628Z" stroke="#33508A"/>
<path d="M299.171 227.242C297.778 231.959 289.041 233.836 285.303 230.221C281.723 226.758 288.783 215.614 288.783 215.614C288.783 215.614 300.551 222.568 299.171 227.242Z" stroke="#33508A"/>
<path d="M368.864 265.128C364.242 266.812 357.541 260.9 358.228 255.745C358.885 250.808 372.044 249.864 372.044 249.864C372.044 249.864 373.443 263.461 368.864 265.128Z" stroke="#33508A"/>
<path d="M226.558 254.705C231.421 253.965 236.827 261.08 235.139 265.999C233.523 270.711 220.436 269.045 220.436 269.045C220.436 269.045 221.74 255.439 226.558 254.705Z" stroke="#33508A"/>
<path d="M156.502 220.628C159.189 224.748 154.951 232.615 149.774 233.115C144.817 233.594 140.914 220.992 140.914 220.992C140.914 220.992 153.84 216.546 156.502 220.628Z" stroke="#33508A"/>
<path d="M2.17069 222.242C0.778023 226.959 -7.95855 228.836 -11.6968 225.221C-15.2773 221.758 -8.21729 210.614 -8.21729 210.614C-8.21729 210.614 3.55058 217.568 2.17069 222.242Z" stroke="#33508A"/>
<path d="M71.8639 260.128C67.2422 261.812 60.5412 255.9 61.2276 250.745C61.8849 245.808 75.0436 244.864 75.0436 244.864C75.0436 244.864 76.4434 258.461 71.8639 260.128Z" stroke="#33508A"/>
<path d="M1158.17 236.242C1156.78 240.959 1148.04 242.836 1144.3 239.221C1140.72 235.758 1147.78 224.614 1147.78 224.614C1147.78 224.614 1159.55 231.568 1158.17 236.242Z" stroke="#33508A"/>
<path d="M1189.17 275.242C1187.78 279.959 1179.04 281.836 1175.3 278.221C1171.72 274.758 1178.78 263.614 1178.78 263.614C1178.78 263.614 1190.55 270.568 1189.17 275.242Z" stroke="#33508A"/>
<path d="M1085.56 263.705C1090.42 262.965 1095.83 270.08 1094.14 274.999C1092.52 279.711 1079.44 278.045 1079.44 278.045C1079.44 278.045 1080.74 264.439 1085.56 263.705Z" stroke="#33508A"/>
<path d="M1015.5 229.628C1018.19 233.748 1013.95 241.615 1008.77 242.115C1003.82 242.594 999.914 229.992 999.914 229.992C999.914 229.992 1012.84 225.546 1015.5 229.628Z" stroke="#33508A"/>
<path d="M1232.5 229.628C1235.19 233.748 1230.95 241.615 1225.77 242.115C1220.82 242.594 1216.91 229.992 1216.91 229.992C1216.91 229.992 1229.84 225.546 1232.5 229.628Z" stroke="#33508A"/>
<path d="M0.724731 296.408C-4.13797 297.149 -9.54392 290.034 -7.8561 285.115C-6.2395 280.403 6.84746 282.068 6.84746 282.068C6.84746 282.068 5.54286 295.675 0.724731 296.408Z" stroke="#33508A"/>
<path d="M70.7809 330.486C68.0938 326.366 72.3324 318.499 77.5088 317.999C82.4667 317.52 86.3691 330.122 86.3691 330.122C86.3691 330.122 73.4433 334.568 70.7809 330.486Z" stroke="#33508A"/>
<path d="M225.113 328.872C226.505 324.154 235.242 322.278 238.98 325.893C242.561 329.356 235.5 340.5 235.5 340.5C235.5 340.5 223.733 333.546 225.113 328.872Z" stroke="#33508A"/>
<path d="M155.419 290.985C160.041 289.302 166.742 295.214 166.056 300.369C165.398 305.306 152.24 306.25 152.24 306.25C152.24 306.25 150.84 292.653 155.419 290.985Z" stroke="#33508A"/>
<path d="M297.725 301.408C292.862 302.149 287.456 295.034 289.144 290.115C290.76 285.403 303.847 287.068 303.847 287.068C303.847 287.068 302.543 300.675 297.725 301.408Z" stroke="#33508A"/>
<path d="M367.781 335.486C365.094 331.366 369.332 323.499 374.509 322.999C379.467 322.52 383.369 335.122 383.369 335.122C383.369 335.122 370.443 339.568 367.781 335.486Z" stroke="#33508A"/>
<path d="M522.113 328.872C523.505 324.154 532.242 322.278 535.98 325.893C539.561 329.356 532.5 340.5 532.5 340.5C532.5 340.5 520.733 333.546 522.113 328.872Z" stroke="#33508A"/>
<path d="M452.419 290.985C457.041 289.302 463.742 295.214 463.056 300.369C462.398 305.306 449.24 306.25 449.24 306.25C449.24 306.25 447.84 292.653 452.419 290.985Z" stroke="#33508A"/>
<path d="M594.725 301.408C589.862 302.149 584.456 295.034 586.144 290.115C587.76 285.403 600.847 287.068 600.847 287.068C600.847 287.068 599.543 300.675 594.725 301.408Z" stroke="#33508A"/>
<path d="M664.781 335.486C662.094 331.366 666.332 323.499 671.509 322.999C676.467 322.52 680.369 335.122 680.369 335.122C680.369 335.122 667.443 339.568 664.781 335.486Z" stroke="#33508A"/>
<path d="M1036.11 333.872C1037.51 329.154 1046.24 327.278 1049.98 330.893C1053.56 334.356 1046.5 345.5 1046.5 345.5C1046.5 345.5 1034.73 338.546 1036.11 333.872Z" stroke="#33508A"/>
<path d="M1005.11 294.872C1006.51 290.154 1015.24 288.278 1018.98 291.893C1022.56 295.356 1015.5 306.5 1015.5 306.5C1015.5 306.5 1003.73 299.546 1005.11 294.872Z" stroke="#33508A"/>
<path d="M1108.72 306.408C1103.86 307.149 1098.46 300.034 1100.14 295.115C1101.76 290.403 1114.85 292.068 1114.85 292.068C1114.85 292.068 1113.54 305.675 1108.72 306.408Z" stroke="#33508A"/>
<path d="M1178.78 340.486C1176.09 336.366 1180.33 328.499 1185.51 327.999C1190.47 327.52 1194.37 340.122 1194.37 340.122C1194.37 340.122 1181.44 344.568 1178.78 340.486Z" stroke="#33508A"/>
<path d="M819.113 333.872C820.505 329.154 829.242 327.278 832.98 330.893C836.561 334.356 829.5 345.5 829.5 345.5C829.5 345.5 817.733 338.546 819.113 333.872Z" stroke="#33508A"/>
<path d="M749.419 295.985C754.041 294.302 760.742 300.214 760.056 305.369C759.398 310.306 746.24 311.25 746.24 311.25C746.24 311.25 744.84 297.653 749.419 295.985Z" stroke="#33508A"/>
<path d="M891.725 306.408C886.862 307.149 881.456 300.034 883.144 295.115C884.76 290.403 897.847 292.068 897.847 292.068C897.847 292.068 896.543 305.675 891.725 306.408Z" stroke="#33508A"/>
<path d="M961.781 340.486C959.094 336.366 963.332 328.499 968.509 327.999C973.467 327.52 977.369 340.122 977.369 340.122C977.369 340.122 964.443 344.568 961.781 340.486Z" stroke="#33508A"/>
<path d="M901.171 369.242C899.778 373.959 891.042 375.836 887.303 372.221C883.723 368.758 890.783 357.614 890.783 357.614C890.783 357.614 902.551 364.568 901.171 369.242Z" stroke="#33508A"/>
<path d="M970.864 407.128C966.242 408.812 959.541 402.9 960.228 397.745C960.885 392.808 974.044 391.864 974.044 391.864C974.044 391.864 975.443 405.461 970.864 407.128Z" stroke="#33508A"/>
<path d="M828.559 396.705C833.421 395.965 838.827 403.08 837.139 407.999C835.523 412.711 822.436 411.045 822.436 411.045C822.436 411.045 823.74 397.439 828.559 396.705Z" stroke="#33508A"/>
<path d="M758.502 362.628C761.19 366.748 756.951 374.615 751.775 375.115C746.817 375.594 742.914 362.992 742.914 362.992C742.914 362.992 755.84 358.546 758.502 362.628Z" stroke="#33508A"/>
<path d="M604.171 364.242C602.778 368.959 594.042 370.836 590.303 367.221C586.723 363.758 593.783 352.614 593.783 352.614C593.783 352.614 605.551 359.568 604.171 364.242Z" stroke="#33508A"/>
<path d="M673.864 402.128C669.242 403.812 662.541 397.9 663.228 392.745C663.885 387.808 677.044 386.864 677.044 386.864C677.044 386.864 678.443 400.461 673.864 402.128Z" stroke="#33508A"/>
<path d="M531.559 391.705C536.421 390.965 541.827 398.08 540.139 402.999C538.523 407.711 525.436 406.045 525.436 406.045C525.436 406.045 526.74 392.439 531.559 391.705Z" stroke="#33508A"/>
<path d="M461.502 357.628C464.19 361.748 459.951 369.615 454.775 370.115C449.817 370.594 445.914 357.992 445.914 357.992C445.914 357.992 458.84 353.546 461.502 357.628Z" stroke="#33508A"/>
<path d="M307.171 364.242C305.778 368.959 297.042 370.836 293.303 367.221C289.723 363.758 296.783 352.614 296.783 352.614C296.783 352.614 308.551 359.568 307.171 364.242Z" stroke="#33508A"/>
<path d="M376.864 402.128C372.242 403.812 365.541 397.9 366.228 392.745C366.885 387.808 380.044 386.864 380.044 386.864C380.044 386.864 381.443 400.461 376.864 402.128Z" stroke="#33508A"/>
<path d="M234.559 391.705C239.421 390.965 244.827 398.08 243.139 402.999C241.523 407.711 228.436 406.045 228.436 406.045C228.436 406.045 229.74 392.439 234.559 391.705Z" stroke="#33508A"/>
<path d="M164.502 357.628C167.19 361.748 162.951 369.615 157.775 370.115C152.817 370.594 148.914 357.992 148.914 357.992C148.914 357.992 161.84 353.546 164.502 357.628Z" stroke="#33508A"/>
<path d="M10.1708 359.242C8.77814 363.959 0.0415697 365.836 -3.6967 362.221C-7.27721 358.758 -0.217163 347.614 -0.217163 347.614C-0.217163 347.614 11.5507 354.568 10.1708 359.242Z" stroke="#33508A"/>
<path d="M79.8641 397.128C75.2423 398.812 68.5413 392.9 69.2277 387.745C69.8851 382.808 83.0437 381.864 83.0437 381.864C83.0437 381.864 84.4435 395.461 79.8641 397.128Z" stroke="#33508A"/>
<path d="M1166.17 373.242C1164.78 377.959 1156.04 379.836 1152.3 376.221C1148.72 372.758 1155.78 361.614 1155.78 361.614C1155.78 361.614 1167.55 368.568 1166.17 373.242Z" stroke="#33508A"/>
<path d="M1197.17 412.242C1195.78 416.959 1187.04 418.836 1183.3 415.221C1179.72 411.758 1186.78 400.614 1186.78 400.614C1186.78 400.614 1198.55 407.568 1197.17 412.242Z" stroke="#33508A"/>
<path d="M1093.56 400.705C1098.42 399.965 1103.83 407.08 1102.14 411.999C1100.52 416.711 1087.44 415.045 1087.44 415.045C1087.44 415.045 1088.74 401.439 1093.56 400.705Z" stroke="#33508A"/>
<path d="M1023.5 366.628C1026.19 370.748 1021.95 378.615 1016.77 379.115C1011.82 379.594 1007.91 366.992 1007.91 366.992C1007.91 366.992 1020.84 362.546 1023.5 366.628Z" stroke="#33508A"/>
<path d="M1240.5 366.628C1243.19 370.748 1238.95 378.615 1233.77 379.115C1228.82 379.594 1224.91 366.992 1224.91 366.992C1224.91 366.992 1237.84 362.546 1240.5 366.628Z" stroke="#33508A"/>
<path d="M81.1125 469.872C82.5052 465.154 91.2418 463.278 94.98 466.893C98.5605 470.356 91.5005 481.5 91.5005 481.5C91.5005 481.5 79.7326 474.546 81.1125 469.872Z" stroke="#33508A"/>
<path d="M11.4193 431.985C16.041 430.302 22.742 436.214 22.0557 441.369C21.3983 446.306 8.23961 447.25 8.23961 447.25C8.23961 447.25 6.83983 433.653 11.4193 431.985Z" stroke="#33508A"/>
<path d="M153.725 442.408C148.862 443.149 143.456 436.034 145.144 431.115C146.76 426.403 159.847 428.068 159.847 428.068C159.847 428.068 158.543 441.675 153.725 442.408Z" stroke="#33508A"/>
<path d="M223.781 476.486C221.094 472.366 225.332 464.499 230.509 463.999C235.467 463.52 239.369 476.122 239.369 476.122C239.369 476.122 226.443 480.568 223.781 476.486Z" stroke="#33508A"/>
<path d="M378.113 469.872C379.505 465.154 388.242 463.278 391.98 466.893C395.561 470.356 388.5 481.5 388.5 481.5C388.5 481.5 376.733 474.546 378.113 469.872Z" stroke="#33508A"/>
<path d="M308.419 431.985C313.041 430.302 319.742 436.214 319.056 441.369C318.398 446.306 305.24 447.25 305.24 447.25C305.24 447.25 303.84 433.653 308.419 431.985Z" stroke="#33508A"/>
<path d="M450.725 442.408C445.862 443.149 440.456 436.034 442.144 431.115C443.76 426.403 456.847 428.068 456.847 428.068C456.847 428.068 455.543 441.675 450.725 442.408Z" stroke="#33508A"/>
<path d="M520.781 476.486C518.094 472.366 522.332 464.499 527.509 463.999C532.467 463.52 536.369 476.122 536.369 476.122C536.369 476.122 523.443 480.568 520.781 476.486Z" stroke="#33508A"/>
<path d="M892.113 474.872C893.505 470.154 902.242 468.278 905.98 471.893C909.561 475.356 902.5 486.5 902.5 486.5C902.5 486.5 890.733 479.546 892.113 474.872Z" stroke="#33508A"/>
<path d="M861.113 435.872C862.505 431.154 871.242 429.278 874.98 432.893C878.561 436.356 871.5 447.5 871.5 447.5C871.5 447.5 859.733 440.546 861.113 435.872Z" stroke="#33508A"/>
<path d="M964.725 447.408C959.862 448.149 954.456 441.034 956.144 436.115C957.76 431.403 970.847 433.068 970.847 433.068C970.847 433.068 969.543 446.675 964.725 447.408Z" stroke="#33508A"/>
<path d="M1034.78 481.486C1032.09 477.366 1036.33 469.499 1041.51 468.999C1046.47 468.52 1050.37 481.122 1050.37 481.122C1050.37 481.122 1037.44 485.568 1034.78 481.486Z" stroke="#33508A"/>
<path d="M675.113 474.872C676.505 470.154 685.242 468.278 688.98 471.893C692.561 475.356 685.5 486.5 685.5 486.5C685.5 486.5 673.733 479.546 675.113 474.872Z" stroke="#33508A"/>
<path d="M605.419 436.985C610.041 435.302 616.742 441.214 616.056 446.369C615.398 451.306 602.24 452.25 602.24 452.25C602.24 452.25 600.84 438.653 605.419 436.985Z" stroke="#33508A"/>
<path d="M747.725 447.408C742.862 448.149 737.456 441.034 739.144 436.115C740.76 431.403 753.847 433.068 753.847 433.068C753.847 433.068 752.543 446.675 747.725 447.408Z" stroke="#33508A"/>
<path d="M817.781 481.486C815.094 477.366 819.332 469.499 824.509 468.999C829.467 468.52 833.369 481.122 833.369 481.122C833.369 481.122 820.443 485.568 817.781 481.486Z" stroke="#33508A"/>
<path d="M742.171 510.242C740.778 514.959 732.042 516.836 728.303 513.221C724.723 509.758 731.783 498.614 731.783 498.614C731.783 498.614 743.551 505.568 742.171 510.242Z" stroke="#33508A"/>
<path d="M811.864 548.128C807.242 549.812 800.541 543.9 801.228 538.745C801.885 533.808 815.044 532.864 815.044 532.864C815.044 532.864 816.443 546.461 811.864 548.128Z" stroke="#33508A"/>
<path d="M669.559 537.705C674.421 536.965 679.827 544.08 678.139 548.999C676.523 553.711 663.436 552.045 663.436 552.045C663.436 552.045 664.74 538.439 669.559 537.705Z" stroke="#33508A"/>
<path d="M599.502 503.628C602.19 507.748 597.951 515.615 592.775 516.115C587.817 516.594 583.914 503.992 583.914 503.992C583.914 503.992 596.84 499.546 599.502 503.628Z" stroke="#33508A"/>
<path d="M445.171 505.242C443.778 509.959 435.042 511.836 431.303 508.221C427.723 504.758 434.783 493.614 434.783 493.614C434.783 493.614 446.551 500.568 445.171 505.242Z" stroke="#33508A"/>
<path d="M514.864 543.128C510.242 544.812 503.541 538.9 504.228 533.745C504.885 528.808 518.044 527.864 518.044 527.864C518.044 527.864 519.443 541.461 514.864 543.128Z" stroke="#33508A"/>
<path d="M372.559 532.705C377.421 531.965 382.827 539.08 381.139 543.999C379.523 548.711 366.436 547.045 366.436 547.045C366.436 547.045 367.74 533.439 372.559 532.705Z" stroke="#33508A"/>
<path d="M302.502 498.628C305.19 502.748 300.951 510.615 295.775 511.115C290.817 511.594 286.914 498.992 286.914 498.992C286.914 498.992 299.84 494.546 302.502 498.628Z" stroke="#33508A"/>
<path d="M148.171 505.242C146.778 509.959 138.042 511.836 134.303 508.221C130.723 504.758 137.783 493.614 137.783 493.614C137.783 493.614 149.551 500.568 148.171 505.242Z" stroke="#33508A"/>
<path d="M217.864 543.128C213.242 544.812 206.541 538.9 207.228 533.745C207.885 528.808 221.044 527.864 221.044 527.864C221.044 527.864 222.443 541.461 217.864 543.128Z" stroke="#33508A"/>
<path d="M75.5586 532.705C80.4213 531.965 85.8272 539.08 84.1394 543.999C82.5228 548.711 69.4359 547.045 69.4359 547.045C69.4359 547.045 70.7405 533.439 75.5586 532.705Z" stroke="#33508A"/>
<path d="M5.50246 498.628C8.18952 502.748 3.95093 510.615 -1.22543 511.115C-6.18336 511.594 -10.0858 498.992 -10.0858 498.992C-10.0858 498.992 2.84003 494.546 5.50246 498.628Z" stroke="#33508A"/>
<path d="M1007.17 514.242C1005.78 518.959 997.041 520.836 993.303 517.221C989.723 513.758 996.783 502.614 996.783 502.614C996.783 502.614 1008.55 509.568 1007.17 514.242Z" stroke="#33508A"/>
<path d="M1038.17 553.242C1036.78 557.959 1028.04 559.836 1024.3 556.221C1020.72 552.758 1027.78 541.614 1027.78 541.614C1027.78 541.614 1039.55 548.568 1038.17 553.242Z" stroke="#33508A"/>
<path d="M934.558 541.705C939.421 540.965 944.827 548.08 943.139 552.999C941.523 557.711 928.436 556.045 928.436 556.045C928.436 556.045 929.74 542.439 934.558 541.705Z" stroke="#33508A"/>
<path d="M864.502 507.628C867.189 511.748 862.951 519.615 857.774 520.115C852.817 520.594 848.914 507.992 848.914 507.992C848.914 507.992 861.84 503.546 864.502 507.628Z" stroke="#33508A"/>
<path d="M1224.17 514.242C1222.78 518.959 1214.04 520.836 1210.3 517.221C1206.72 513.758 1213.78 502.614 1213.78 502.614C1213.78 502.614 1225.55 509.568 1224.17 514.242Z" stroke="#33508A"/>
<path d="M1151.56 541.705C1156.42 540.965 1161.83 548.08 1160.14 552.999C1158.52 557.711 1145.44 556.045 1145.44 556.045C1145.44 556.045 1146.74 542.439 1151.56 541.705Z" stroke="#33508A"/>
<path d="M1081.5 507.628C1084.19 511.748 1079.95 519.615 1074.77 520.115C1069.82 520.594 1065.91 507.992 1065.91 507.992C1065.91 507.992 1078.84 503.546 1081.5 507.628Z" stroke="#33508A"/>
</g>
<defs>
<clipPath id="clip0_1_4496">
<rect width="1280" height="550" fill="white"/>
</clipPath>
</defs>
</svg>
