<svg width="77" height="77" viewBox="0 0 77 77" fill="none" xmlns="http://www.w3.org/2000/svg">
<rect y="0.000732422" width="77" height="77" rx="38.5" fill="#ECF3F8"/>
<path d="M58.1291 26.8962C56.8577 27.4439 55.5211 27.8252 54.1523 28.0309C54.7922 27.9211 55.7338 26.7681 56.1087 26.3015C56.6781 25.5976 57.1121 24.794 57.3886 23.9316C57.3886 23.8675 57.4525 23.776 57.3886 23.7303C57.3563 23.7127 57.3202 23.7034 57.2834 23.7034C57.2467 23.7034 57.2105 23.7127 57.1783 23.7303C55.692 24.5359 54.1101 25.1507 52.4701 25.5603C52.413 25.5778 52.3521 25.5794 52.2942 25.5649C52.2362 25.5503 52.1832 25.5203 52.141 25.478C52.0134 25.3258 51.8759 25.1822 51.7296 25.0479C51.0607 24.4481 50.3018 23.9571 49.4807 23.593C48.3722 23.1379 47.175 22.9408 45.9793 23.0166C44.8191 23.0899 43.6864 23.4014 42.6516 23.9316C41.6326 24.4906 40.737 25.25 40.0187 26.1642C39.263 27.1052 38.7175 28.1972 38.4188 29.3668C38.1725 30.4793 38.1445 31.6292 38.3365 32.7524C38.3365 32.9445 38.3365 32.972 38.172 32.9445C31.6537 31.9837 26.3056 29.6687 21.9357 24.7002C21.7437 24.4806 21.6431 24.4806 21.4877 24.7002C19.5862 27.5917 20.5095 32.1667 22.8864 34.4268C23.2064 34.7288 23.5355 35.0216 23.8829 35.2961C22.7931 35.2187 21.7299 34.9231 20.7563 34.4268C20.5735 34.3079 20.4729 34.3719 20.4638 34.5915C20.4379 34.896 20.4379 35.2021 20.4638 35.5066C20.6546 36.9656 21.2291 38.3478 22.1286 39.5118C23.0281 40.6758 24.2203 41.5798 25.5834 42.1313C25.9156 42.2737 26.2619 42.3811 26.6164 42.4515C25.6075 42.6503 24.5728 42.6813 23.5538 42.543C23.3344 42.4973 23.2521 42.6162 23.3344 42.8267C24.6783 46.4868 27.5946 47.6031 29.7338 48.2253C30.0264 48.2711 30.3189 48.2711 30.648 48.3443C30.648 48.3443 30.648 48.3443 30.5932 48.3992C29.9624 49.5521 27.4118 50.3299 26.2416 50.7325C24.1057 51.5003 21.8284 51.7938 19.5679 51.5926C19.2113 51.5377 19.1291 51.5468 19.0376 51.5926C18.9462 51.6383 19.0376 51.739 19.1382 51.8305C19.5953 52.1324 20.0524 52.3978 20.5278 52.654C21.943 53.4266 23.4392 54.0403 24.9891 54.484C33.0158 56.6984 42.0482 55.0696 48.0728 49.0763C52.8084 44.3731 54.4722 37.8856 54.4722 31.389C54.4722 31.1419 54.7739 30.9955 54.9476 30.8674C56.1457 29.9331 57.202 28.8297 58.0833 27.5917C58.236 27.4071 58.3142 27.1721 58.3028 26.9328C58.3028 26.7956 58.3028 26.823 58.1291 26.8962Z" fill="#33CCFF"/>
</svg>
