<svg width="22322" height="20044" viewBox="0 0 22322 20044" fill="none" xmlns="http://www.w3.org/2000/svg">
<path d="M2122.53 4763.14C2470.73 2701.07 2729.55 0.999763 2122.53 1H20306.6C19632.4 604.062 19684.1 2743.88 20081.7 3946.63C20479.4 5149.39 21125.6 8024.28 21125.6 8024.28C21125.6 8024.28 22648.6 12336.6 22256.5 15152.8C22256.5 15563.5 22166.1 15727.1 22119.8 15915.5C22019.9 16321.4 21937.5 16481.1 21809.1 16810.3C20393.6 20439.4 4657.66 21748.8 970.432 16818.8C-1625.16 13348.3 1774.33 6825.21 2122.53 4763.14Z" fill="#222194"/>
<path d="M22119.8 15915.5C22019.9 16321.4 21937.5 16481.1 21809.1 16810.3C20393.6 20439.4 4657.66 21748.8 970.432 16818.8C-1625.16 13348.3 1774.33 6825.21 2122.53 4763.14C2470.73 2701.07 2729.55 0.999763 2122.53 1C1515.52 1.00024 20306.6 1 20306.6 1C19632.4 604.063 19684.1 2743.88 20081.7 3946.63C20479.4 5149.39 21125.6 8024.28 21125.6 8024.28C21125.6 8024.28 22648.6 12336.6 22256.5 15152.8M22119.8 15915.5C22166.1 15727.1 22256.5 15563.5 22256.5 15152.8M22119.8 15915.5L22256.5 15152.8" stroke="#222194"/>
</svg>
