<svg width="484" height="231" viewBox="0 0 484 231" fill="none" xmlns="http://www.w3.org/2000/svg">
<path d="M0.557335 224.495L0.5 224.605V224.728V229.551V230.051H1H483H483.5V229.551V21.7014V21.1836L482.982 21.2017L483 21.7014C482.982 21.2017 482.982 21.2017 482.982 21.2017L482.98 21.2018L482.973 21.202L482.943 21.203L482.823 21.2069C482.716 21.2102 482.556 21.2149 482.345 21.2206C481.922 21.232 481.293 21.2473 480.467 21.2626C478.815 21.2932 476.38 21.324 473.244 21.3248C466.973 21.3264 457.903 21.2077 446.714 20.7268C424.335 19.7649 393.482 17.354 359.584 11.5584C274.918 -2.9173 204.07 -10.8999 141.192 38.1569C104.935 66.4447 69.7732 113.047 43.6905 152.54C30.6448 172.293 19.8626 190.28 12.3416 203.329C8.58098 209.854 5.63552 215.144 3.62994 218.804C2.62715 220.634 1.85931 222.056 1.34201 223.021C1.08336 223.504 0.88735 223.872 0.755921 224.12C0.690207 224.244 0.640639 224.337 0.60746 224.4L0.570014 224.471L0.560568 224.489L0.558173 224.494C0.557625 224.495 0.557335 224.495 1 224.728L0.557335 224.495Z" fill="#FEC3DD" stroke="#FEC3DD"/>
</svg>
