<svg width="2930" height="2820" viewBox="0 0 2930 2820" fill="none" xmlns="http://www.w3.org/2000/svg">
<path d="M279.308 670.58C324.986 380.643 358.938 0.999967 279.308 1H2664.74C2576.31 85.7934 2583.08 386.661 2635.25 555.775C2687.41 724.888 2772.19 1129.11 2772.19 1129.11C2772.19 1129.11 2971.97 1735.45 2920.53 2131.42C2920.53 2189.16 2908.68 2212.17 2902.6 2238.66C2889.5 2295.72 2878.69 2318.18 2861.85 2364.47C2676.16 2874.74 611.873 3058.84 128.173 2365.66C-212.324 1877.7 233.63 960.516 279.308 670.58Z" fill="#222194"/>
<path d="M2902.6 2238.66C2889.5 2295.72 2878.69 2318.18 2861.85 2364.47C2676.16 2874.74 611.873 3058.84 128.173 2365.66C-212.324 1877.7 233.63 960.516 279.308 670.58C324.986 380.643 358.938 0.999967 279.308 1C199.678 1.00003 2664.74 1 2664.74 1C2576.31 85.7934 2583.08 386.661 2635.25 555.775C2687.41 724.889 2772.19 1129.11 2772.19 1129.11C2772.19 1129.11 2971.97 1735.45 2920.53 2131.42M2902.6 2238.66C2908.68 2212.17 2920.53 2189.16 2920.53 2131.42M2902.6 2238.66L2920.53 2131.42" stroke="#222194"/>
</svg>
