<svg width="1441" height="248" viewBox="0 0 1441 248" fill="none" xmlns="http://www.w3.org/2000/svg">
<path d="M1357.98 241.378L1440.5 241.443C1440.5 241.443 1418.24 252.211 1357.98 241.378L101.289 240.382C31.2567 255.318 1 240.303 1 240.303L101.289 240.382C157.317 228.433 238.803 197.314 350.622 124C602.209 -40.9541 700.243 7.69714 700.243 7.69714C700.243 7.69714 748.396 -15.5974 894.811 40.8096C923.821 51.9859 1000.33 85.88 1070.37 124.57C1209.42 201.378 1300.8 231.1 1357.98 241.378Z" fill="white"/>
<path d="M1 240.303L1440.5 241.443C1440.5 241.443 1355.97 282.335 1070.37 124.57C1000.33 85.88 923.821 51.9859 894.811 40.8096C748.396 -15.5974 700.243 7.69714 700.243 7.69714C700.243 7.69714 602.209 -40.9541 350.622 124C99.0341 288.954 1 240.303 1 240.303Z" stroke="white"/>
</svg>
