<svg width="83" height="17" viewBox="0 0 83 17" fill="none" xmlns="http://www.w3.org/2000/svg">
<path d="M5.904 16.048L1.248 0.232H5.424L8.448 12.136H8.064L8.184 11.752L11.592 0.232H14.016L17.424 12.28H17.04L17.136 11.92L20.4 0.232H21.864L17.208 16.048H14.904L11.304 4.264H11.76L11.664 4.624L8.208 16.048H5.904ZM0.192 1.432V0.232H7.584V1.432L4.368 1.792H3.456L0.192 1.432ZM9.408 1.432V0.232H16.512V1.432L13.584 1.792H12.24L9.408 1.432ZM18.288 1.432V0.232H23.256V1.432L21.12 1.792H20.496L18.288 1.432ZM24.1118 16V14.776L27.4958 14.416H27.9998V16H24.1118ZM25.8638 16C25.8958 15.2 25.9118 14.392 25.9118 13.576C25.9278 12.76 25.9358 11.928 25.9358 11.08C25.9518 10.232 25.9598 9.392 25.9598 8.56V7.648C25.9598 6.832 25.9518 6.008 25.9358 5.176C25.9358 4.328 25.9278 3.496 25.9118 2.68C25.9118 1.848 25.8958 1.032 25.8638 0.232H29.9918C29.9758 1.016 29.9598 1.824 29.9438 2.656C29.9278 3.472 29.9198 4.304 29.9198 5.152C29.9198 5.984 29.9198 6.816 29.9198 7.648V8.464C29.9198 9.312 29.9198 10.168 29.9198 11.032C29.9198 11.88 29.9278 12.72 29.9438 13.552C29.9598 14.368 29.9758 15.184 29.9918 16H25.8638ZM27.9278 16V14.728H35.1518L34.3118 15.424L35.0318 11.824H36.8798L36.6878 16H27.9278ZM27.9278 8.536V7.192H33.1358V8.536H27.9278ZM32.8478 10.456L32.4158 8.032V7.576L32.8478 5.272H34.1438V10.456H32.8478ZM24.1118 1.432V0.232H27.9998V1.792H27.4958L24.1118 1.432ZM34.5518 4.36L33.8318 0.831999L34.6718 1.504H27.8798V0.232H36.2318L36.3998 4.36H34.5518ZM38.2211 16V14.776L41.6051 14.416H41.9891V16H38.2211ZM39.9731 16C40.0051 15.2 40.0211 14.384 40.0211 13.552C40.0371 12.72 40.0451 11.88 40.0451 11.032C40.0611 10.168 40.0691 9.32 40.0691 8.488V7.744C40.0691 6.912 40.0611 6.072 40.0451 5.224C40.0451 4.376 40.0371 3.536 40.0211 2.704C40.0211 1.856 40.0051 1.032 39.9731 0.232H44.0291C44.0131 1.016 43.9971 1.832 43.9811 2.68C43.9651 3.512 43.9571 4.352 43.9571 5.2C43.9571 6.048 43.9571 6.896 43.9571 7.744V8.368C43.9571 9.248 43.9571 10.12 43.9571 10.984C43.9571 11.832 43.9651 12.68 43.9811 13.528C43.9971 14.36 44.0131 15.184 44.0291 16H39.9731ZM42.0131 16V14.68H44.7731C45.8771 14.68 46.7331 14.416 47.3411 13.888C47.9651 13.36 48.2771 12.584 48.2771 11.56C48.2771 10.456 47.9891 9.648 47.4131 9.136C46.8371 8.624 45.9491 8.368 44.7491 8.368H42.0131V7.168H44.6051C45.2771 7.168 45.8291 7.056 46.2611 6.832C46.7091 6.608 47.0451 6.28 47.2691 5.848C47.4931 5.4 47.6051 4.856 47.6051 4.216C47.6051 3.608 47.5011 3.104 47.2931 2.704C47.0851 2.304 46.7811 2.008 46.3811 1.816C45.9811 1.624 45.4611 1.528 44.8211 1.528H42.0131V0.232H45.8051C47.1651 0.232 48.2531 0.392 49.0691 0.711999C49.9011 1.032 50.4931 1.472 50.8451 2.032C51.2131 2.592 51.3971 3.224 51.3971 3.928C51.3971 4.536 51.2451 5.104 50.9411 5.632C50.6371 6.144 50.1171 6.584 49.3811 6.952C48.6611 7.32 47.6451 7.576 46.3331 7.72V7.504C47.7571 7.584 48.9091 7.8 49.7891 8.152C50.6691 8.504 51.3091 8.968 51.7091 9.544C52.1251 10.12 52.3331 10.8 52.3331 11.584C52.3331 12.112 52.2131 12.64 51.9731 13.168C51.7331 13.68 51.3331 14.152 50.7731 14.584C50.2291 15.016 49.4771 15.36 48.5171 15.616C47.5731 15.872 46.3891 16 44.9651 16H42.0131ZM38.2211 1.432V0.232H41.9891V1.792H41.6051L38.2211 1.432ZM53.3149 16V14.776L56.6989 14.416H57.2029V16H53.3149ZM55.0669 16C55.0989 15.2 55.1149 14.392 55.1149 13.576C55.1309 12.76 55.1389 11.928 55.1389 11.08C55.1549 10.232 55.1629 9.392 55.1629 8.56V7.648C55.1629 6.832 55.1549 6.008 55.1389 5.176C55.1389 4.328 55.1309 3.496 55.1149 2.68C55.1149 1.848 55.0989 1.032 55.0669 0.232H59.1949C59.1789 1.016 59.1629 1.824 59.1469 2.656C59.1309 3.472 59.1229 4.304 59.1229 5.152C59.1229 5.984 59.1229 6.816 59.1229 7.648V8.464C59.1229 9.312 59.1229 10.168 59.1229 11.032C59.1229 11.88 59.1309 12.72 59.1469 13.552C59.1629 14.368 59.1789 15.184 59.1949 16H55.0669ZM57.1309 16V14.728H64.3549L63.5149 15.424L64.2349 11.824H66.0829L65.8909 16H57.1309ZM57.1309 8.536V7.192H62.3389V8.536H57.1309ZM62.0509 10.456L61.6189 8.032V7.576L62.0509 5.272H63.3469V10.456H62.0509ZM53.3149 1.432V0.232H57.2029V1.792H56.6989L53.3149 1.432ZM63.7549 4.36L63.0349 0.831999L63.8749 1.504H57.0829V0.232H65.4349L65.6029 4.36H63.7549ZM67.4243 16V14.776L70.8083 14.416H71.6723L75.0563 14.776V16H67.4243ZM69.1763 16C69.2083 15.2 69.2243 14.392 69.2243 13.576C69.2403 12.76 69.2483 11.928 69.2483 11.08C69.2643 10.232 69.2723 9.392 69.2723 8.56V7.648C69.2723 6.816 69.2643 5.984 69.2483 5.152C69.2483 4.32 69.2403 3.496 69.2243 2.68C69.2243 1.848 69.2083 1.032 69.1763 0.232H73.2323C73.2163 1.016 73.2003 1.824 73.1843 2.656C73.1683 3.472 73.1603 4.304 73.1603 5.152C73.1603 5.984 73.1603 6.84 73.1603 7.72V8.488C73.1603 9.336 73.1603 10.184 73.1603 11.032C73.1603 11.88 73.1683 12.72 73.1843 13.552C73.2003 14.368 73.2163 15.184 73.2323 16H69.1763ZM80.2403 16.336C79.2323 16.336 78.4323 16.16 77.8403 15.808C77.2643 15.456 76.9123 14.824 76.7843 13.912L76.2803 11.104C76.2003 10.56 76.0643 10.12 75.8723 9.784C75.6963 9.432 75.4563 9.168 75.1523 8.992C74.8643 8.816 74.4803 8.728 74.0003 8.728H71.2643V7.456H74.0723C74.8563 7.456 75.4723 7.32 75.9203 7.048C76.3843 6.76 76.7043 6.392 76.8803 5.944C77.0723 5.48 77.1683 4.984 77.1683 4.456C77.1683 3.48 76.9123 2.752 76.4003 2.272C75.9043 1.776 75.1683 1.528 74.1923 1.528H71.2163V0.232H75.0563C76.9603 0.232 78.4163 0.584 79.4243 1.288C80.4323 1.976 80.9363 2.944 80.9363 4.192C80.9363 4.816 80.7523 5.424 80.3843 6.016C80.0323 6.592 79.4403 7.08 78.6083 7.48C77.7763 7.864 76.6563 8.096 75.2483 8.176V7.936C76.2083 7.968 77.0003 8.072 77.6243 8.248C78.2483 8.408 78.7523 8.648 79.1363 8.968C79.5203 9.272 79.8163 9.664 80.0243 10.144C80.2323 10.608 80.3923 11.16 80.5043 11.8L81.2483 15.568L79.3523 14.392L82.8323 14.776V16C82.4803 16.08 82.1683 16.144 81.8963 16.192C81.6403 16.24 81.3843 16.272 81.1283 16.288C80.8883 16.32 80.5923 16.336 80.2403 16.336ZM67.4243 1.432V0.232H71.3123V1.792H70.8083L67.4243 1.432Z" fill="#B9B9B9"/>
</svg>
