<svg width="167" height="19" viewBox="0 0 167 19" fill="none" xmlns="http://www.w3.org/2000/svg">
<path d="M0.494318 0.545454H4.62784L8.60795 8.0625H8.77841L12.7585 0.545454H16.892L10.5256 11.8295V18H6.8608V11.8295L0.494318 0.545454ZM22.0611 0.545454L26.2798 13.8068H26.4418L30.669 0.545454H34.7599L28.7429 18H23.9872L17.9616 0.545454H22.0611ZM36.8608 18V0.545454H48.6222V3.58807H40.5511V7.74716H48.017V10.7898H40.5511V14.9574H48.6562V18H36.8608ZM61.0249 5.56534C60.9567 4.87784 60.6641 4.34375 60.147 3.96307C59.63 3.58239 58.9283 3.39204 58.0419 3.39204C57.4396 3.39204 56.9311 3.47727 56.5163 3.64773C56.1016 3.8125 55.7834 4.04261 55.5618 4.33807C55.3459 4.63352 55.2379 4.96875 55.2379 5.34375C55.2266 5.65625 55.2919 5.92898 55.4339 6.16193C55.5817 6.39489 55.7834 6.59659 56.0391 6.76705C56.2947 6.93182 56.5902 7.0767 56.9254 7.2017C57.2607 7.32102 57.6186 7.4233 57.9993 7.50852L59.5675 7.88352C60.3288 8.05398 61.0277 8.28125 61.6641 8.56534C62.3004 8.84943 62.8516 9.19886 63.3175 9.61364C63.7834 10.0284 64.1442 10.517 64.3999 11.0795C64.6612 11.642 64.7947 12.2869 64.8004 13.0142C64.7947 14.0824 64.522 15.0085 63.9822 15.7926C63.4482 16.571 62.6754 17.1761 61.6641 17.608C60.6584 18.0341 59.4453 18.2472 58.0249 18.2472C56.6158 18.2472 55.3885 18.0312 54.343 17.5994C53.3033 17.1676 52.4908 16.5284 51.9055 15.6818C51.326 14.8295 51.022 13.7756 50.9936 12.5199H54.5646C54.6044 13.1051 54.772 13.5937 55.0675 13.9858C55.3686 14.3722 55.7692 14.6648 56.2692 14.8636C56.7749 15.0568 57.3459 15.1534 57.9822 15.1534C58.6072 15.1534 59.1499 15.0625 59.6101 14.8807C60.076 14.6989 60.4368 14.446 60.6925 14.1222C60.9482 13.7983 61.076 13.4261 61.076 13.0057C61.076 12.6136 60.9595 12.2841 60.7266 12.017C60.4993 11.75 60.1641 11.5227 59.7209 11.3352C59.2834 11.1477 58.7464 10.9773 58.1101 10.8239L56.2095 10.3466C54.7379 9.98864 53.576 9.42898 52.7237 8.66761C51.8714 7.90625 51.4482 6.88068 51.4538 5.59091C51.4482 4.53409 51.7294 3.6108 52.2976 2.82102C52.8714 2.03125 53.6584 1.41477 54.6584 0.971591C55.6584 0.528409 56.7947 0.306818 58.0675 0.306818C59.3629 0.306818 60.4936 0.528409 61.4595 0.971591C62.4311 1.41477 63.1868 2.03125 63.7266 2.82102C64.2663 3.6108 64.5447 4.52557 64.5618 5.56534H61.0249ZM67.2827 18V0.545454H74.169C75.4872 0.545454 76.6122 0.78125 77.544 1.25284C78.4815 1.71875 79.1946 2.38068 79.6832 3.23864C80.1776 4.09091 80.4247 5.09375 80.4247 6.24716C80.4247 7.40625 80.1747 8.40341 79.6747 9.23864C79.1747 10.0682 78.4503 10.7045 77.5014 11.1477C76.5582 11.5909 75.4162 11.8125 74.0753 11.8125H69.4645V8.84659H73.4787C74.1832 8.84659 74.7685 8.75 75.2344 8.55682C75.7003 8.36364 76.0469 8.07386 76.2741 7.6875C76.5071 7.30114 76.6236 6.82102 76.6236 6.24716C76.6236 5.66761 76.5071 5.17898 76.2741 4.78125C76.0469 4.38352 75.6974 4.08239 75.2259 3.87784C74.7599 3.66761 74.1719 3.5625 73.4616 3.5625H70.973V18H67.2827ZM76.7088 10.0568L81.0469 18H76.973L72.7287 10.0568H76.7088ZM99.0724 9.27273C99.0724 11.1761 98.7116 12.7955 97.9901 14.1307C97.2741 15.4659 96.2969 16.4858 95.0582 17.1903C93.8253 17.8892 92.4389 18.2386 90.8991 18.2386C89.348 18.2386 87.956 17.8864 86.723 17.1818C85.4901 16.4773 84.5156 15.4574 83.7997 14.1222C83.0838 12.7869 82.7259 11.1705 82.7259 9.27273C82.7259 7.36932 83.0838 5.75 83.7997 4.41477C84.5156 3.07955 85.4901 2.0625 86.723 1.36364C87.956 0.659091 89.348 0.306818 90.8991 0.306818C92.4389 0.306818 93.8253 0.659091 95.0582 1.36364C96.2969 2.0625 97.2741 3.07955 97.9901 4.41477C98.7116 5.75 99.0724 7.36932 99.0724 9.27273ZM95.331 9.27273C95.331 8.03977 95.1463 7 94.777 6.15341C94.4134 5.30682 93.8991 4.66477 93.2344 4.22727C92.5696 3.78977 91.7912 3.57102 90.8991 3.57102C90.0071 3.57102 89.2287 3.78977 88.5639 4.22727C87.8991 4.66477 87.3821 5.30682 87.0128 6.15341C86.6491 7 86.4673 8.03977 86.4673 9.27273C86.4673 10.5057 86.6491 11.5455 87.0128 12.392C87.3821 13.2386 87.8991 13.8807 88.5639 14.3182C89.2287 14.7557 90.0071 14.9744 90.8991 14.9744C91.7912 14.9744 92.5696 14.7557 93.2344 14.3182C93.8991 13.8807 94.4134 13.2386 94.777 12.392C95.1463 11.5455 95.331 10.5057 95.331 9.27273ZM117.207 6.65625H113.474C113.406 6.1733 113.266 5.74432 113.056 5.36932C112.846 4.98864 112.576 4.66477 112.246 4.39773C111.917 4.13068 111.536 3.92614 111.104 3.78409C110.678 3.64205 110.215 3.57102 109.715 3.57102C108.812 3.57102 108.025 3.79545 107.354 4.24432C106.684 4.6875 106.164 5.33523 105.795 6.1875C105.425 7.03409 105.241 8.0625 105.241 9.27273C105.241 10.517 105.425 11.5625 105.795 12.4091C106.17 13.2557 106.692 13.8949 107.363 14.3267C108.033 14.7585 108.809 14.9744 109.69 14.9744C110.184 14.9744 110.641 14.9091 111.062 14.7784C111.488 14.6477 111.866 14.4574 112.195 14.2074C112.525 13.9517 112.798 13.642 113.013 13.2784C113.235 12.9148 113.388 12.5 113.474 12.0341L117.207 12.0511C117.11 12.8523 116.869 13.625 116.482 14.3693C116.102 15.108 115.587 15.7699 114.94 16.3551C114.298 16.9347 113.531 17.3949 112.638 17.7358C111.752 18.071 110.749 18.2386 109.63 18.2386C108.073 18.2386 106.681 17.8864 105.454 17.1818C104.232 16.4773 103.266 15.4574 102.556 14.1222C101.852 12.7869 101.499 11.1705 101.499 9.27273C101.499 7.36932 101.857 5.75 102.573 4.41477C103.289 3.07955 104.261 2.0625 105.488 1.36364C106.715 0.659091 108.096 0.306818 109.63 0.306818C110.641 0.306818 111.579 0.448863 112.442 0.732954C113.312 1.01705 114.082 1.43182 114.752 1.97727C115.423 2.51704 115.968 3.17898 116.388 3.96307C116.815 4.74716 117.087 5.64489 117.207 6.65625ZM119.853 18V0.545454H123.543V7.74716H131.035V0.545454H134.717V18H131.035V10.7898H123.543V18H119.853ZM137.759 18V0.545454H149.521V3.58807H141.45V7.74716H148.915V10.7898H141.45V14.9574H149.555V18H137.759ZM152.455 18V0.545454H159.341C160.659 0.545454 161.784 0.78125 162.716 1.25284C163.653 1.71875 164.366 2.38068 164.855 3.23864C165.349 4.09091 165.597 5.09375 165.597 6.24716C165.597 7.40625 165.347 8.40341 164.847 9.23864C164.347 10.0682 163.622 10.7045 162.673 11.1477C161.73 11.5909 160.588 11.8125 159.247 11.8125H154.636V8.84659H158.651C159.355 8.84659 159.94 8.75 160.406 8.55682C160.872 8.36364 161.219 8.07386 161.446 7.6875C161.679 7.30114 161.795 6.82102 161.795 6.24716C161.795 5.66761 161.679 5.17898 161.446 4.78125C161.219 4.38352 160.869 4.08239 160.398 3.87784C159.932 3.66761 159.344 3.5625 158.634 3.5625H156.145V18H152.455ZM161.881 10.0568L166.219 18H162.145L157.901 10.0568H161.881Z" fill="#B9B9B9"/>
</svg>
